<?xml version="1.0" encoding="utf-8"?>
<!-- Generator: Adobe Illustrator 22.0.1, SVG Export Plug-In . SVG Version: 6.00 Build 0)  -->
<svg version="1.1" id="Layer_1" xmlns="http://www.w3.org/2000/svg" xmlns:xlink="http://www.w3.org/1999/xlink" x="0px" y="0px"
	 viewBox="0 0 377 202.006" enable-background="new 0 0 377 202.006" xml:space="preserve">
<g>
	<path opacity="0.1" fill="#296CFC" d="M7.508,186.83c4.564,0,8.263,3.699,8.263,8.263c0,0.031-0.004,0.06-0.004,0.091h63.365
		c0-0.031-0.004-0.06-0.004-0.091c0-4.564,3.699-8.263,8.263-8.263c4.564,0,8.263,3.699,8.263,8.263c0,0.031-0.004,0.06-0.004,0.091
		h74.383c0-0.031-0.004-0.06-0.004-0.091c0-4.564,3.699-8.263,8.263-8.263c4.564,0,8.263,3.699,8.263,8.263
		c0,0.031-0.004,0.06-0.004,0.091h67.497c0-0.031-0.004-0.06-0.004-0.091c0-4.564,3.699-8.263,8.263-8.263
		c4.564,0,8.263,3.699,8.263,8.263c0,0.031-0.004,0.06-0.004,0.091h90.912c0-0.031-0.004-0.06-0.004-0.091
		c0-4.135,3.039-7.55,7.002-8.158v-72.414c-4.886,0.058-10.027,2.17-15.137,7.139c-27.411,26.651-27.751,32.11-66.441,24.263
		c-15.736-3.191-27.657,15.944-43.066,16.147c-13.666,0.18-24.467-18.759-46.01-23.07c-25.873-5.178-51.267,12.535-69.421,28.996
		c-28.074,25.456-68.755-23.025-122.273-5.371v24.33C6.581,186.88,7.039,186.83,7.508,186.83z"/>
	<path fill="#296CFC" d="M178.5,111.606c-6.341,0-11.5-5.159-11.5-11.5s5.159-11.5,11.5-11.5s11.5,5.159,11.5,11.5
		S184.84,111.606,178.5,111.606z M178.5,90.606c-5.238,0-9.5,4.262-9.5,9.5s4.262,9.5,9.5,9.5s9.5-4.262,9.5-9.5
		S183.738,90.606,178.5,90.606z"/>
	<path opacity="0.1" fill="#296CFC" d="M48.896,62.373l3.199,3.705c0.496,0.573,0.444,1.448-0.116,1.956
		c-0.56,0.506-1.417,0.454-1.911-0.12c-1.166-1.351-2.386-2.216-3.355-3.434c-0.427-0.537-0.714-1.12-0.622-1.768
		c0.936-6.697,3.994-12.695,8.452-17.257c4.62-4.726,10.745-7.913,17.575-8.741c1.39-0.168,2.332,1.595,3.218,2.568h-0.048
		l2.122,2.456c0.496,0.573,0.444,1.448-0.116,1.956c-0.56,0.506-1.417,0.454-1.913-0.12l-3.479-4.031
		c-0.871,0.124-1.73,0.29-2.575,0.498l8.083,9.361c0.496,0.573,0.444,1.448-0.116,1.956c-0.56,0.506-1.417,0.454-1.913-0.12
		l-8.915-10.324c-0.751,0.276-1.485,0.585-2.203,0.927L77.41,57.07c0.496,0.573,0.444,1.448-0.116,1.956
		c-0.56,0.506-1.417,0.454-1.913-0.12l-13.583-15.73C61.145,43.574,60.51,44,59.893,44.45L77.41,64.736
		c0.496,0.573,0.444,1.448-0.116,1.956c-0.56,0.506-1.417,0.454-1.913-0.12L57.767,46.174c-0.448,0.402-0.884,0.817-1.303,1.249
		c-0.11,0.112-0.22,0.226-0.328,0.342l15.813,18.313c0.496,0.573,0.444,1.448-0.116,1.956c-0.56,0.506-1.417,0.454-1.911-0.12
		L54.34,49.867c-0.477,0.616-0.927,1.255-1.353,1.913l12.344,14.297c0.496,0.573,0.444,1.448-0.116,1.956
		c-0.56,0.506-1.417,0.454-1.911-0.12L51.545,54.294c-0.376,0.743-0.72,1.504-1.031,2.284l8.201,9.498
		c0.496,0.573,0.444,1.448-0.116,1.956c-0.56,0.506-1.417,0.454-1.913-0.12l-7.183-8.317C49.257,60.506,49.053,61.431,48.896,62.373
		z"/>
	<path fill="#296CFC" d="M87.584,156.071c-4.407,0-9.123-0.789-14.22-2.555c-9.082-3.148-16.41-9.046-23.498-14.749
		c-13.398-10.78-24.967-20.09-44.186-9.346c-0.482,0.269-1.091,0.097-1.361-0.385c-0.27-0.482-0.097-1.092,0.385-1.361
		c20.396-11.403,33.035-1.233,46.415,9.533c6.955,5.597,14.146,11.383,22.9,14.417c25.734,8.922,40.936-7.851,57.031-25.604
		c10.89-12.012,22.147-24.431,36.818-28.307c0.31-0.083,0.638-0.011,0.887,0.19c0.247,0.201,0.385,0.509,0.368,0.828
		c-0.009,0.171-0.014,0.341-0.014,0.515c0,0.553-0.447,1-1,1c-0.289,0-0.55-0.123-0.732-0.319
		c-13.623,4.024-24.406,15.921-34.843,27.435C119.699,141.522,106.508,156.07,87.584,156.071z M360.476,145.635
		c-7.994,0.001-15.086-7.172-22.007-14.17l-1.135-1.15c-7.915-8.025-16.1-16.324-26.071-16.324c-0.041,0-0.081,0-0.122,0
		c-6.76,0.047-13.702,3.878-21.223,11.715c-8.997,9.374-17.856,12.96-26.49,12.96c-15.141,0.002-29.593-11.02-42.916-21.178
		c-10.439-7.962-19.635-13.289-28.115-16.287c-1.043-0.367-2.088-0.702-3.114-0.996c-0.097,0.031-0.199,0.048-0.306,0.048
		c-0.553,0-1-0.447-1-1l0.952-0.003l-0.953-0.067c0-0.006-0.001-0.096-0.001-0.102c0-0.312,0.146-0.605,0.394-0.795
		c0.247-0.188,0.57-0.249,0.87-0.17c1.256,0.344,2.542,0.747,3.824,1.199c8.681,3.068,18.055,8.492,28.659,16.58
		c21.249,16.2,43.217,32.951,66.753,8.426c7.915-8.247,15.324-12.279,22.652-12.33c0.046,0,0.093,0,0.139,0
		c10.807,0,19.288,8.601,27.492,16.92l1.132,1.146c9.664,9.772,18.008,18.215,28.558,10.736c0.45-0.321,1.075-0.214,1.394,0.237
		c0.319,0.45,0.214,1.074-0.237,1.394C366.419,144.683,363.387,145.635,360.476,145.635z"/>
	<path fill="#296CFC" d="M86.032,114.155c-20.962,0-38.035-16.389-38.868-37.311c-0.05-1.212,0.402-2.408,1.24-3.282
		c0.847-0.882,1.986-1.367,3.207-1.367h31.33v-31.33c0-1.22,0.485-2.358,1.367-3.206c0.872-0.835,2.056-1.29,3.283-1.241
		c21.371,0.852,38.094,18.96,37.281,40.365c-0.767,20.172-17.17,36.575-37.345,37.344C87.023,114.144,86.527,114.155,86.032,114.155
		z M51.611,74.195c-0.671,0-1.298,0.268-1.764,0.752c-0.463,0.482-0.713,1.145-0.685,1.816c0.791,19.847,16.985,35.392,36.87,35.392
		c0.472,0,0.946-0.011,1.422-0.026c19.132-0.729,34.691-16.288,35.419-35.422c0.771-20.306-15.092-37.482-35.36-38.291
		c-0.662-0.021-1.338,0.225-1.821,0.687c-0.484,0.465-0.751,1.092-0.751,1.763v32.33c0,0.553-0.448,1-1,1H51.611z"/>
	<linearGradient id="SVGID_1_" gradientUnits="userSpaceOnUse" x1="187.795" y1="112.039" x2="311.2366" y2="-11.4026">
		<stop  offset="0" style="stop-color:#1D0561"/>
		<stop  offset="0.0454" style="stop-color:#210964"/>
		<stop  offset="0.4411" style="stop-color:#402977"/>
		<stop  offset="0.7734" style="stop-color:#523D84"/>
		<stop  offset="1" style="stop-color:#594488"/>
	</linearGradient>
	<path fill="url(#SVGID_1_)" d="M306.518,0h-91.211c-21.284,0-38.576,17.083-38.917,38.286c-0.004,0.212-0.004,0.423-0.004,0.635
		l0,0v60.937c0,0,0.525,2.392,2.597,2.392c2.139,0,2.384-2.127,2.384-2.127s3.18-11.803,5.382-15.172
		c1.606-2.458,5.863-5.257,8.645-6.195c3.971-1.338,17.131-0.923,17.131-0.923l0.336,0.01c1.044-0.004,1.595,0,2.446,0h91.211
		c21.496,0,38.921-17.425,38.921-38.921l0,0C345.439,17.425,328.013,0,306.518,0z"/>
	<g>
		<path fill="none" d="M251.367,25.964c-2.466,0-4.473,2.057-4.473,4.585s2.007,4.585,4.473,4.585s4.473-2.057,4.473-4.585
			S253.833,25.964,251.367,25.964z"/>
		<path fill="none" d="M306.727,43.645c-0.131,0-0.241,0.13-0.241,0.284s0.11,0.284,0.241,0.284c0.13,0,0.24-0.13,0.24-0.284
			S306.857,43.645,306.727,43.645z"/>
		<ellipse fill="none" cx="293.607" cy="30.896" rx="0.241" ry="0.284"/>
		<ellipse fill="none" cx="273.441" cy="30.549" rx="4.473" ry="4.585"/>
		<path fill="#FFFFFF" d="M251.367,21.815c-4.754,0-8.623,3.918-8.623,8.734s3.868,8.734,8.623,8.734
			c1.765,0,3.461-0.538,4.905-1.554l1.576-1.109v7.568c0,3.718-2.879,6.672-6.419,6.672c-1.635,0-3.145-0.614-4.366-1.775
			c-0.208-0.198-0.474-0.296-0.74-0.296c-0.285,0-0.568,0.112-0.78,0.333c-0.409,0.429-0.391,1.111,0.038,1.52
			c1.604,1.526,3.681,2.367,5.848,2.367c4.723,0,8.566-3.919,8.568-8.737l-0.006-13.821
			C259.91,25.666,256.041,21.815,251.367,21.815z M251.367,37.134c-3.569,0-6.473-2.954-6.473-6.585s2.904-6.585,6.473-6.585
			c3.569,0,6.473,2.954,6.473,6.585S254.936,37.134,251.367,37.134z"/>
		<path fill="#FFFFFF" d="M306.727,39.496c-2.421,0-4.39,1.989-4.39,4.434s1.969,4.434,4.39,4.434s4.39-1.989,4.39-4.434
			S309.148,39.496,306.727,39.496z M306.727,46.213c-1.235,0-2.241-1.025-2.241-2.284s1.006-2.284,2.241-2.284
			s2.24,1.025,2.24,2.284S307.963,46.213,306.727,46.213z"/>
		<path fill="#FFFFFF" d="M293.607,26.462c-2.421,0-4.39,1.989-4.39,4.434s1.969,4.434,4.39,4.434s4.39-1.989,4.39-4.434
			S296.028,26.462,293.607,26.462z M293.607,33.18c-1.235,0-2.241-1.025-2.241-2.284c0-1.259,1.005-2.284,2.241-2.284
			s2.241,1.025,2.241,2.284C295.848,32.155,294.843,33.18,293.607,33.18z"/>
		<path fill="#FFFFFF" d="M306.983,31.878c0-0.287-0.112-0.558-0.315-0.761c-0.204-0.204-0.474-0.316-0.76-0.316
			c-0.287,0-0.557,0.112-0.759,0.315l-11.993,11.99c-0.204,0.203-0.315,0.472-0.316,0.758c0,0.287,0.112,0.558,0.316,0.761
			c0.407,0.407,1.114,0.408,1.52,0l11.992-11.989C306.871,32.434,306.983,32.165,306.983,31.878z"/>
		<path fill="#FFFFFF" d="M212.537,30.441c0,0.593,0.482,1.075,1.075,1.075h10.186l-13.85,13.85c-0.418,0.419-0.418,1.101,0,1.52
			c0.405,0.406,1.11,0.408,1.521-0.002l13.849-13.848v9.605c0,0.593,0.482,1.075,1.075,1.075s1.075-0.482,1.075-1.075V29.367
			h-13.854C213.019,29.367,212.537,29.849,212.537,30.441z"/>
		<path fill="#FFFFFF" d="M273.441,21.815c-4.754,0-8.622,3.918-8.622,8.734s3.868,8.734,8.622,8.734
			c1.765,0,3.461-0.538,4.906-1.554l1.576-1.109v7.568c0,3.718-2.88,6.672-6.419,6.672c-1.637,0-3.147-0.614-4.368-1.775
			c-0.207-0.196-0.474-0.294-0.74-0.294c-0.285,0-0.569,0.111-0.781,0.333c-0.408,0.428-0.39,1.109,0.039,1.519
			c1.606,1.526,3.685,2.367,5.85,2.367c4.723,0,8.566-3.919,8.568-8.737l-0.005-13.813
			C281.984,25.666,278.116,21.815,273.441,21.815z M273.441,37.134c-3.569,0-6.473-2.954-6.473-6.585s2.904-6.585,6.473-6.585
			s6.473,2.954,6.473,6.585S277.011,37.134,273.441,37.134z"/>
	</g>
	<path fill="#296CFC" d="M8.5,202.006c-4.687,0-8.5-3.813-8.5-8.5s3.813-8.5,8.5-8.5s8.5,3.813,8.5,8.5S13.187,202.006,8.5,202.006z
		 M8.5,187.006c-3.584,0-6.5,2.916-6.5,6.5s2.916,6.5,6.5,6.5s6.5-2.916,6.5-6.5S12.084,187.006,8.5,187.006z"/>
	<path fill="#296CFC" d="M87.5,202.006c-4.687,0-8.5-3.813-8.5-8.5s3.813-8.5,8.5-8.5s8.5,3.813,8.5,8.5
		c0,0.544-0.052,1.091-0.155,1.624C95.073,199.114,91.563,202.006,87.5,202.006z M87.5,187.006c-3.584,0-6.5,2.916-6.5,6.5
		s2.916,6.5,6.5,6.5c3.107,0,5.791-2.21,6.381-5.256c0.079-0.408,0.119-0.827,0.119-1.244C94,189.922,91.084,187.006,87.5,187.006z"
		/>
	<path fill="#296CFC" d="M178.5,202.006c-4.687,0-8.5-3.813-8.5-8.5s3.813-8.5,8.5-8.5s8.5,3.813,8.5,8.5
		S183.186,202.006,178.5,202.006z M178.5,187.006c-3.584,0-6.5,2.916-6.5,6.5s2.916,6.5,6.5,6.5s6.5-2.916,6.5-6.5
		S182.083,187.006,178.5,187.006z"/>
	<path fill="#296CFC" d="M262.5,202.006c-4.687,0-8.5-3.813-8.5-8.5s3.813-8.5,8.5-8.5s8.5,3.813,8.5,8.5
		S267.186,202.006,262.5,202.006z M262.5,187.006c-3.584,0-6.5,2.916-6.5,6.5s2.916,6.5,6.5,6.5s6.5-2.916,6.5-6.5
		S266.083,187.006,262.5,187.006z"/>
	<path fill="#296CFC" d="M368.5,202.006c-4.687,0-8.5-3.813-8.5-8.5s3.813-8.5,8.5-8.5s8.5,3.813,8.5,8.5
		S373.186,202.006,368.5,202.006z M368.5,187.006c-3.584,0-6.5,2.916-6.5,6.5s2.916,6.5,6.5,6.5s6.5-2.916,6.5-6.5
		S372.083,187.006,368.5,187.006z"/>
	<path fill="#296CFC" d="M87.5,186.606c-0.552,0-1-0.447-1-1v-30.531c0-0.553,0.448-1,1-1s1,0.447,1,1v30.531
		C88.5,186.158,88.052,186.606,87.5,186.606z"/>
	<path fill="#296CFC" d="M179,186.606c-0.553,0-1-0.447-1-1v-75c0-0.553,0.447-1,1-1s1,0.447,1,1v75
		C180,186.158,179.552,186.606,179,186.606z"/>
	<path fill="#296CFC" d="M262,186.606c-0.553,0-1-0.447-1-1v-47c0-0.553,0.447-1,1-1s1,0.447,1,1v47
		C263,186.158,262.552,186.606,262,186.606z"/>
	<path fill="#296CFC" d="M80,195.85H15.771c-0.552,0-1-0.447-1-1s0.448-1,1-1H80c0.552,0,1,0.447,1,1S80.552,195.85,80,195.85z"/>
	<path fill="#296CFC" d="M170,195.85H96c-0.552,0-1-0.447-1-1s0.448-1,1-1h74c0.553,0,1,0.447,1,1S170.552,195.85,170,195.85z"/>
	<path fill="#296CFC" d="M361,196.606h-90.303c-0.553,0-1-0.447-1-1s0.447-1,1-1H361c0.553,0,1,0.447,1,1
		S361.552,196.606,361,196.606z"/>
	<path fill="#296CFC" d="M255,196.606h-69c-0.553,0-1-0.447-1-1s0.447-1,1-1h69c0.553,0,1,0.447,1,1S255.552,196.606,255,196.606z"
		/>
</g>
</svg>
