<?xml version="1.0" encoding="utf-8"?>
<!-- Generator: Adobe Illustrator 22.0.1, SVG Export Plug-In . SVG Version: 6.00 Build 0)  -->
<svg version="1.1" id="_x3C_Layer_x3E_" xmlns="http://www.w3.org/2000/svg" xmlns:xlink="http://www.w3.org/1999/xlink" x="0px"
	 y="0px" viewBox="0 0 58.112 96.72" enable-background="new 0 0 58.112 96.72" xml:space="preserve">
<path fill="#333333" d="M18.822,44.016c1.851,1.324,6.451,4.415,7.397,5.414c0.947,0.998,0.053,2.524,0.053,2.524l1.42,0.578
	c0.315-0.684,2.209-3.207,3.471-4.785c1.139-1.423,2.127-3.917,2.161-5.748c0.108-5.905-7.731-8.713-11.363-12.025
	c-1.787-1.63-0.367-2.577-0.367-2.577l-1.21-0.789C15.703,31.919,10.777,38.258,18.822,44.016z M22.855,24.295
	c4.522,3.996,12.48,8.147,13.041,10.832c0.73,3.497-0.947,5.469-0.947,5.469l0.905,0.736c0.488-0.699,1.035-1.357,1.538-2.045
	c2.049-2.805,4.024-5.655,6.037-8.485c4.601-6.47,2.879-12.608-4.054-17.562c-3.53-2.522-6.962-5.19-10.525-7.667
	c-1.999-1.683-0.631-4.838-0.631-4.838L27.377,0c0,0-7.547,9.149-8.203,12.831C18.544,16.356,18.333,20.298,22.855,24.295z
	 M44.03,54.794H10.69l-1.435,3.839h9.098l1.751,5.547h14.686l1.662-5.547h8.839L44.03,54.794z M17.049,81.554
	c0-2.43-1.118-3.834-3.554-4.516c1.736-0.821,2.602-2.585,2.602-4.497c0-3.631-3.525-4.874-7.334-4.874H0.295v19.54h9.693
	C13.603,87.206,17.049,85.513,17.049,81.554z M4.488,71.357h4.235c1.613,0,3.111,0.353,3.111,2.06c0,1.506-1.181,2.135-2.766,2.135
	h-4.58V71.357z M4.385,83.573v-4.29H9.42c2.988-0.004,3.328,0.635,3.328,2.232c0,1.621-1.59,2.058-3.415,2.058H4.385z
	 M57.982,85.088h-0.346l-0.375,1.085c-0.094,0.283-0.169,0.53-0.224,0.755H57.03c-0.057-0.233-0.124-0.479-0.212-0.755l-0.359-1.085
	h-0.346l-0.147,2.243h0.259l0.055-0.961c0.02-0.34,0.035-0.712,0.041-0.992h0.006c0.059,0.266,0.141,0.552,0.24,0.871l0.344,1.069
	h0.206l0.371-1.088c0.106-0.309,0.19-0.592,0.265-0.852h0.006c0,0.276,0.019,0.656,0.034,0.969l0.05,0.985h0.268L57.982,85.088z
	 M37.732,87.206h9.695c3.614,0,7.06-1.692,7.06-5.652c0-2.43-1.118-3.834-3.554-4.516c1.737-0.821,2.602-2.585,2.602-4.497
	c0-3.631-3.524-4.874-7.335-4.874h-8.467V87.206z M41.925,71.357h4.235c1.613,0,3.111,0.353,3.111,2.06
	c0,1.506-1.181,2.135-2.766,2.135h-4.58V71.357z M41.824,79.283h5.033c2.987-0.004,3.329,0.635,3.329,2.232
	c0,1.621-1.591,2.058-3.417,2.058h-4.946V79.283z M55.115,86.061c-0.291-0.121-0.419-0.223-0.419-0.433
	c0-0.154,0.11-0.336,0.397-0.336c0.19,0,0.33,0.063,0.396,0.106l0.075-0.235c-0.09-0.057-0.249-0.111-0.462-0.111
	c-0.408,0-0.679,0.26-0.679,0.61c0,0.312,0.212,0.505,0.555,0.638c0.285,0.113,0.397,0.237,0.397,0.442
	c0,0.229-0.163,0.383-0.44,0.383c-0.187,0-0.362-0.064-0.484-0.146l-0.072,0.243c0.112,0.08,0.334,0.146,0.537,0.146
	c0.496,0,0.732-0.303,0.732-0.649C55.647,86.39,55.47,86.21,55.115,86.061z M32.321,77.038c1.736-0.821,2.602-2.585,2.602-4.497
	c0-3.631-3.524-4.874-7.334-4.874h-8.467v19.54h9.693c3.615,0,7.061-1.692,7.061-5.652C35.875,79.123,34.757,77.719,32.321,77.038z
	 M23.314,71.357h4.235c1.613,0,3.111,0.353,3.111,2.06c0,1.506-1.18,2.135-2.766,2.135h-4.58V71.357z M28.158,83.573h-4.947v-4.29
	h5.035c2.988-0.004,3.329,0.635,3.329,2.232C31.575,83.136,29.984,83.573,28.158,83.573z M41.652,91.152h-4.198v0.463h1.847v5.01
	h0.504v-5.01h1.846V91.152z M30.709,96.11c-0.324,0-0.519-0.191-0.519-0.516V93.2h1.07v-0.429h-1.07v-1.058h-0.485v1.058h-0.811
	V93.2h0.811v2.394c0,0.525,0.267,0.945,0.964,0.945c0.186,0,0.454-0.063,0.632-0.127l-0.041-0.429
	C31.089,96.055,30.895,96.11,30.709,96.11z M53.836,96.16c-0.392,0-0.627-0.207-0.627-0.562v-2.599h1.293v-0.466h-1.293v-1.149
	H52.62v1.149h-0.98v0.466h0.98v2.599c0,0.571,0.323,1.028,1.166,1.028c0.226,0,0.548-0.069,0.764-0.138l-0.049-0.466
	C54.296,96.099,54.061,96.16,53.836,96.16z M47.968,92.532H47.38v1.994c0,1.097-0.696,1.633-1.568,1.633
	c-0.93,0-1.136-0.631-1.136-1.278v-2.349h-0.588v2.375c0,0.871,0.313,1.718,1.724,1.718c0.734,0,1.313-0.362,1.548-0.804h0.03
	c0.02,0.078,0.03,0.407,0.04,0.7h0.586c0-0.207-0.048-0.83-0.048-1.123V92.532z M42.09,93.231c-0.02-0.078-0.03-0.406-0.039-0.699
	h-0.588c0,0.207,0.049,0.828,0.049,1.123v2.867H42.1v-2.176c0-0.777,0.46-1.399,1.479-1.399c0.059,0,0.137,0.009,0.226,0.035
	l0.068-0.509c-0.117-0.026-0.224-0.043-0.342-0.043C42.854,92.429,42.384,92.765,42.09,93.231z M28.027,90.958
	c-0.202,0-0.365,0.159-0.365,0.357c0,0.199,0.163,0.357,0.365,0.357s0.365-0.159,0.365-0.357
	C28.391,91.117,28.229,90.958,28.027,90.958z M34.338,92.675c-0.608,0-1.085,0.334-1.279,0.74h-0.016v-2.981h-0.487v6.011h0.487
	v-1.836c0-1.011,0.574-1.504,1.295-1.504c0.77,0,0.94,0.58,0.94,1.177v2.163h0.487v-2.187
	C35.765,93.454,35.505,92.675,34.338,92.675z M49.016,93.534c0-0.415,0.54-0.64,0.96-0.64c0.53,0,0.843,0.198,1.069,0.562
	l0.529-0.277c-0.294-0.509-0.862-0.751-1.597-0.751c-0.744,0-1.547,0.371-1.547,1.149c0,1.52,2.683,0.751,2.683,1.847
	c0,0.457-0.529,0.734-1.038,0.734c-0.529,0-1.067-0.233-1.313-0.657l-0.519,0.311c0.353,0.553,1.048,0.812,1.822,0.812
	c0.862,0,1.635-0.414,1.635-1.235C51.7,93.776,49.016,94.613,49.016,93.534z M16.566,96.082c-0.352,0-0.566-0.207-0.566-0.562
	v-2.599h1.167v-0.466H16v-1.149h-0.53v1.149h-0.882v0.466h0.882v2.599c0,0.571,0.292,1.028,1.051,1.028
	c0.203,0,0.496-0.069,0.689-0.138l-0.043-0.466C16.981,96.021,16.769,96.082,16.566,96.082z M12.617,93.153
	c-0.017-0.078-0.026-0.405-0.036-0.699h-0.53c0,0.207,0.044,0.828,0.044,1.123v2.867h0.53v-2.177c0-0.776,0.415-1.399,1.335-1.399
	c0.053,0,0.123,0.009,0.202,0.035l0.063-0.509c-0.106-0.026-0.203-0.043-0.309-0.043C13.306,92.351,12.882,92.688,12.617,93.153z
	 M25.247,96.094h-0.016l-1.513-4.847h-0.711l-1.513,4.847h-0.017l-1.488-4.847h-0.576l1.743,5.473h0.684l1.513-4.871h0.017
	l1.513,4.871h0.685l1.743-5.473h-0.576L25.247,96.094z M10.903,93.793c0-1.011-0.636-1.442-1.624-1.442
	c-0.53,0-1.167,0.198-1.555,0.561l0.309,0.354c0.362-0.302,0.769-0.448,1.246-0.448c0.653,0,1.147,0.276,1.147,0.967v0.242H9.808
	c-0.805,0-2.262,0.121-2.262,1.338c0,0.847,0.742,1.183,1.44,1.183c0.689,0,1.131-0.242,1.431-0.752h0.019
	c0,0.226,0.017,0.45,0.053,0.649h0.494c-0.062-0.457-0.08-0.899-0.08-1.675V93.793z M10.426,94.709c0,0.664-0.291,1.373-1.422,1.373
	c-0.441,0-0.927-0.251-0.927-0.743c0-0.682,0.884-0.899,1.766-0.899h0.583V94.709z M0.852,92.415c0-0.689,0.706-0.99,1.384-0.99
	c0.551,0,0.973,0.178,1.256,0.534L4.07,91.58c-0.514-0.494-1.101-0.664-1.834-0.664c-1.054,0-2.099,0.494-2.099,1.554
	c0,2.002,3.328,1.144,3.328,2.69c0,0.641-0.742,0.997-1.393,0.997c-0.679,0-1.202-0.263-1.477-0.666L0,95.855
	c0.494,0.572,1.256,0.812,2.043,0.812c1.027,0,2.136-0.588,2.136-1.585C4.179,93.11,0.852,93.892,0.852,92.415z M6.23,96.082
	c-0.354,0-0.566-0.207-0.566-0.562v-2.599H6.83v-0.466H5.665v-1.149h-0.53v1.149H4.251v0.466h0.884v2.599
	c0,0.571,0.291,1.028,1.051,1.028c0.203,0,0.494-0.069,0.689-0.138L6.83,95.944C6.646,96.021,6.434,96.082,6.23,96.082z
	 M27.784,96.444h0.486v-3.673h-0.486V96.444z"/>
</svg>
