<?xml version="1.0" encoding="utf-8"?>
<!-- Generator: Adobe Illustrator 22.0.1, SVG Export Plug-In . SVG Version: 6.00 Build 0)  -->
<svg version="1.1" id="Layer_1" xmlns="http://www.w3.org/2000/svg" xmlns:xlink="http://www.w3.org/1999/xlink" x="0px" y="0px"
	 viewBox="0 0 247.88 242.113" enable-background="new 0 0 247.88 242.113" xml:space="preserve">
<g>
	<g>
		<path fill="#296CFC" d="M215.619,122.094c-0.37,0-0.726-0.206-0.899-0.561c-1.141-2.332-1.72-4.833-1.72-7.434
			c0-9.458,7.824-17.154,17.44-17.154s17.439,7.695,17.439,17.154c0,2.601-0.576,5.099-1.714,7.425
			c-0.242,0.496-0.841,0.703-1.338,0.459c-0.496-0.243-0.701-0.842-0.459-1.338c1.003-2.05,1.511-4.252,1.511-6.546
			c0-8.356-6.926-15.154-15.439-15.154S215,105.744,215,114.1c0,2.294,0.51,4.499,1.517,6.555c0.242,0.496,0.037,1.095-0.459,1.338
			C215.916,122.062,215.767,122.094,215.619,122.094z"/>
		<path fill="#296CFC" d="M230.622,132.964c-2.672,0-5.322-0.549-7.462-1.546c-1.999-0.93-3.508-2.193-4.483-3.754
			c-0.261-0.415-0.381-0.913-0.337-1.402c0.285-3.329,2.683-4.636,4.27-5.5c0.858-0.467,1.616-0.879,2.285-1.458l-0.16-0.263
			c-1.255-2.046-2.976-4.851-1.87-8.896c0.528-1.939,1.734-3.481,3.489-4.459c1.281-0.715,2.763-1.091,4.215-1.039
			c1.485,0.019,2.928,0.419,4.161,1.157c1.711,1.026,2.866,2.608,3.343,4.575c0.961,3.966-0.601,6.498-1.854,8.533l-0.081,0.132
			c-0.051,0.083-0.102,0.166-0.158,0.257c0.671,0.583,1.429,0.995,2.287,1.46c1.6,0.871,4.016,2.186,4.276,5.565
			c0.035,0.438-0.059,0.877-0.271,1.265c-0.784,1.44-2.047,2.639-3.753,3.558c-2.083,1.123-4.771,1.766-7.57,1.812L230.622,132.964z
			 M230.38,106.645c-1.077,0-2.126,0.271-3.053,0.788c-1.273,0.709-2.149,1.829-2.533,3.238c-0.878,3.211,0.405,5.302,1.646,7.325
			l0.426,0.699c0.325,0.55,0.242,1.238-0.196,1.683c-0.959,0.973-2.049,1.566-3.104,2.14c-1.495,0.814-3.041,1.656-3.234,3.918
			c-0.005,0.061,0.009,0.118,0.039,0.167c0.769,1.229,1.99,2.238,3.633,3.003c1.882,0.876,4.232,1.358,6.618,1.358l0.28-0.004
			c2.497-0.04,4.86-0.599,6.666-1.571c1.358-0.732,2.351-1.66,2.947-2.756c0.025-0.048,0.036-0.099,0.032-0.15
			c-0.177-2.299-1.733-3.146-3.238-3.965c-1.052-0.571-2.142-1.162-3.104-2.141c-0.449-0.458-0.518-1.17-0.165-1.733
			c0.158-0.268,0.275-0.458,0.392-0.647l0.081-0.132c1.17-1.898,2.379-3.859,1.615-7.015c-0.348-1.434-1.188-2.586-2.428-3.33
			c-0.93-0.557-2.025-0.859-3.169-0.873C230.481,106.646,230.431,106.645,230.38,106.645z M235.76,119.667
			c-0.004,0.006-0.007,0.012-0.011,0.018C235.753,119.679,235.756,119.673,235.76,119.667z"/>
	</g>
	<g>
		
			<linearGradient id="SVGID_1_" gradientUnits="userSpaceOnUse" x1="77.4071" y1="-869.2046" x2="172.0251" y2="-774.587" gradientTransform="matrix(1 0 0 -1 0 -699.7744)">
			<stop  offset="0" style="stop-color:#1D0561"/>
			<stop  offset="0.0454" style="stop-color:#210964"/>
			<stop  offset="0.4411" style="stop-color:#402977"/>
			<stop  offset="0.7734" style="stop-color:#523D84"/>
			<stop  offset="1" style="stop-color:#594488"/>
		</linearGradient>
		<circle fill="url(#SVGID_1_)" cx="124.716" cy="122.121" r="66.905"/>
		<g>
			<path fill="#FFFFFF" d="M126.716,166.622c-22.883,0-41.5-18.617-41.5-41.5c0-7.609,2.078-15.051,6.009-21.52
				c0.286-0.472,0.901-0.622,1.374-0.335s0.623,0.902,0.335,1.374c-3.741,6.157-5.718,13.239-5.718,20.482
				c0,21.78,17.72,39.5,39.5,39.5c21.78,0,39.5-17.72,39.5-39.5c0-17.384-11.631-32.963-28.283-37.885
				c-0.53-0.157-0.832-0.713-0.676-1.243c0.157-0.529,0.711-0.831,1.242-0.675c17.497,5.172,29.717,21.54,29.717,39.803
				C168.216,148.004,149.6,166.622,126.716,166.622z"/>
			<path fill="#FFFFFF" d="M100.716,111.122c-0.552,0-1-0.448-1-1v-8.5c0-0.552,0.448-1,1-1s1,0.448,1,1v8.5
				C101.716,110.674,101.269,111.122,100.716,111.122z"/>
			<path fill="#FFFFFF" d="M140.716,150.122h-23c-9.925,0-18-8.075-18-18v-9.5c0-0.553,0.448-1,1-1s1,0.447,1,1v9.5
				c0,8.822,7.178,16,16,16h22v-46.5c0-0.552,0.447-1,1-1s1,0.448,1,1v47.5C141.716,149.674,141.269,150.122,140.716,150.122z"/>
			<path fill="#FFFFFF" d="M105.716,102.622c-6.893,0-12.5-5.607-12.5-12.5c0-0.552,0.448-1,1-1s1,0.448,1,1
				c0,5.79,4.71,10.5,10.5,10.5c0.552,0,1,0.448,1,1S106.269,102.622,105.716,102.622z"/>
			<path fill="#FFFFFF" d="M110.716,102.622c-6.893,0-12.5-5.607-12.5-12.5c0-0.552,0.448-1,1-1s1,0.448,1,1
				c0,5.79,4.71,10.5,10.5,10.5c0.552,0,1,0.448,1,1S111.269,102.622,110.716,102.622z"/>
			<path fill="#FFFFFF" d="M140.716,102.622h-40c-6.893,0-12.5-5.607-12.5-12.5c0-6.891,5.606-12.498,12.497-12.5
				c0.001,0,0.002,0,0.003,0c0.552,0,1,0.448,1,1s-0.448,1-1,1c-1.103,0-2,0.897-2,2s0.897,2,2,2h23c9.925,0,18,8.075,18,18
				C141.716,102.174,141.269,102.622,140.716,102.622z M96.931,80.327c-3.925,1.522-6.715,5.338-6.715,9.794
				c0,5.79,4.71,10.5,10.5,10.5h38.968c-0.518-8.358-7.482-15-15.968-15h-23c-2.206,0-4-1.794-4-4
				C96.716,81.169,96.792,80.733,96.931,80.327z"/>
			<g>
				<path fill="#FFFFFF" d="M103.337,127.122h-4.621c-1.654,0-3-1.346-3-3v-12c0-1.654,1.346-3,3-3h5.371
					c0.825,0,1.622,0.345,2.186,0.946c0.565,0.601,0.859,1.418,0.808,2.241l-0.75,12.001
					C106.233,125.886,104.917,127.122,103.337,127.122z M98.716,111.122c-0.551,0-1,0.449-1,1v12c0,0.552,0.449,1,1,1h4.621
					c0.527,0,0.965-0.412,0.998-0.938l0.75-12c0.018-0.278-0.078-0.543-0.27-0.747c-0.191-0.204-0.45-0.315-0.729-0.315H98.716z"/>
				<path fill="#FFFFFF" d="M117.716,127.122h-4.621c-1.58,0-2.896-1.235-2.994-2.813l-0.75-12c-0.052-0.823,0.243-1.64,0.807-2.241
					c0.565-0.602,1.362-0.946,2.187-0.946h5.371c1.654,0,3,1.346,3,3v12C120.716,125.776,119.371,127.122,117.716,127.122z
					 M112.345,111.122c-0.279,0-0.538,0.112-0.729,0.315c-0.191,0.203-0.287,0.468-0.269,0.747l0.75,12
					c0.033,0.525,0.471,0.938,0.998,0.938h4.621c0.551,0,1-0.448,1-1v-12c0-0.551-0.449-1-1-1H112.345z"/>
				<path fill="#FFFFFF" d="M110.216,113.622h-4c-0.552,0-1-0.448-1-1s0.448-1,1-1h4c0.552,0,1,0.448,1,1
					S110.769,113.622,110.216,113.622z"/>
				<path fill="#FFFFFF" d="M133.716,113.622h-14c-0.552,0-1-0.448-1-1s0.448-1,1-1h14c0.553,0,1,0.448,1,1
					S134.269,113.622,133.716,113.622z"/>
			</g>
			<path fill="#FFFFFF" d="M129.716,127.622h-1c-0.552,0-1-0.447-1-1s0.448-1,1-1h1c1.654,0,3-1.346,3-3v-6c0-0.552,0.447-1,1-1
				s1,0.448,1,1v6C134.716,125.378,132.473,127.622,129.716,127.622z"/>
			<path fill="#FFFFFF" d="M149.925,159.33c-0.256,0-0.512-0.098-0.707-0.293l-9.209-9.208c-0.391-0.391-0.391-1.023,0-1.414
				s1.023-0.391,1.414,0l9.209,9.208c0.391,0.391,0.391,1.023,0,1.414C150.437,159.232,150.181,159.33,149.925,159.33z"/>
			<path fill="#FFFFFF" d="M117.716,165.622c-0.552,0-1-0.447-1-1v-15.5c0-0.553,0.448-1,1-1s1,0.447,1,1v15.5
				C118.716,165.174,118.269,165.622,117.716,165.622z"/>
			<path fill="#FFFFFF" d="M117.716,158.122h-16c-0.552,0-1-0.447-1-1s0.448-1,1-1h16c0.552,0,1,0.447,1,1
				S118.269,158.122,117.716,158.122z"/>
			<path fill="#FFFFFF" d="M140.716,106.622h-8c-0.553,0-1-0.448-1-1s0.447-1,1-1h8c0.553,0,1,0.448,1,1
				S141.269,106.622,140.716,106.622z"/>
			<path fill="#FFFFFF" d="M140.716,110.122h-5c-0.553,0-1-0.448-1-1s0.447-1,1-1h5c0.553,0,1,0.448,1,1
				S141.269,110.122,140.716,110.122z"/>
		</g>
	</g>
	<g>
		<path fill="#296CFC" d="M2.619,122.094c-0.37,0-0.726-0.206-0.899-0.561C0.579,119.202,0,116.7,0,114.1
			c0-9.458,7.824-17.154,17.44-17.154s17.44,7.695,17.44,17.154c0,2.602-0.577,5.1-1.714,7.425c-0.243,0.496-0.84,0.703-1.338,0.459
			c-0.496-0.243-0.702-0.842-0.459-1.338c1.003-2.05,1.511-4.252,1.511-6.546c0-8.356-6.926-15.154-15.44-15.154S2,105.744,2,114.1
			c0,2.293,0.51,4.499,1.516,6.555c0.243,0.496,0.037,1.095-0.459,1.338C2.916,122.062,2.766,122.094,2.619,122.094z"/>
		<path fill="#296CFC" d="M17.623,132.964c-2.672,0-5.322-0.549-7.463-1.546c-2-0.93-3.508-2.193-4.483-3.754
			c-0.26-0.415-0.38-0.913-0.336-1.402c0.285-3.329,2.683-4.636,4.27-5.5c0.861-0.469,1.618-0.881,2.285-1.459l-0.16-0.263
			c-1.254-2.044-2.976-4.849-1.871-8.896c0.53-1.94,1.736-3.482,3.489-4.459c1.281-0.714,2.732-1.088,4.216-1.039
			c1.485,0.019,2.928,0.419,4.161,1.157c1.71,1.026,2.866,2.608,3.343,4.575c0.961,3.966-0.6,6.498-1.855,8.533
			c-0.087,0.141-0.161,0.261-0.238,0.389c0.67,0.583,1.429,0.995,2.286,1.46c1.601,0.871,4.017,2.187,4.277,5.565
			c0.034,0.442-0.06,0.88-0.272,1.266c-0.783,1.439-2.047,2.638-3.753,3.557c-2.081,1.123-4.77,1.766-7.57,1.812L17.623,132.964z
			 M17.38,106.645c-1.077,0-2.126,0.271-3.053,0.788c-1.273,0.709-2.148,1.829-2.533,3.239c-0.877,3.212,0.406,5.303,1.647,7.326
			l0.425,0.698c0.327,0.546,0.245,1.235-0.196,1.682c-0.956,0.971-2.044,1.563-3.096,2.137c-1.502,0.818-3.048,1.66-3.241,3.921
			c-0.005,0.061,0.008,0.118,0.039,0.167c0.768,1.229,1.989,2.238,3.632,3.003c1.882,0.876,4.233,1.358,6.619,1.358l0.28-0.004
			c2.498-0.04,4.861-0.599,6.666-1.571c1.359-0.732,2.351-1.66,2.947-2.756c0.026-0.048,0.037-0.1,0.033-0.152
			c-0.177-2.296-1.732-3.143-3.237-3.962c-1.053-0.572-2.142-1.163-3.104-2.142c-0.456-0.464-0.523-1.16-0.167-1.731
			c0.18-0.304,0.304-0.505,0.434-0.717c1.21-1.962,2.419-3.923,1.655-7.079c-0.348-1.434-1.188-2.586-2.428-3.33
			c-0.93-0.557-2.025-0.859-3.169-0.873C17.481,106.646,17.431,106.645,17.38,106.645z M22.758,119.67
			c-0.003,0.005-0.006,0.01-0.009,0.015C22.752,119.68,22.755,119.675,22.758,119.67z"/>
	</g>
	<g opacity="0.2">
		<path fill="#296CFC" d="M38.078,51.231c-0.37,0-0.726-0.206-0.899-0.561C36.396,49.072,36,47.358,36,45.576
			c0-6.479,5.356-11.749,11.94-11.749s11.94,5.271,11.94,11.749c0,1.782-0.396,3.494-1.175,5.088
			c-0.243,0.496-0.84,0.701-1.338,0.459c-0.496-0.243-0.702-0.842-0.459-1.338c0.645-1.318,0.972-2.734,0.972-4.209
			c0-5.375-4.459-9.749-9.94-9.749S38,40.201,38,45.576c0,1.475,0.328,2.893,0.975,4.215c0.243,0.496,0.037,1.095-0.459,1.338
			C38.375,51.198,38.225,51.231,38.078,51.231z"/>
		<path fill="#296CFC" d="M48.062,58.465c-1.825,0-3.639-0.376-5.107-1.06c-1.39-0.647-2.441-1.53-3.126-2.625
			c-0.211-0.337-0.309-0.742-0.273-1.14c0.205-2.394,1.895-3.315,3.014-3.924c0.46-0.25,0.875-0.477,1.243-0.753
			c-0.861-1.405-1.996-3.324-1.236-6.107c0.377-1.38,1.235-2.477,2.482-3.171c0.904-0.504,1.947-0.766,2.975-0.733
			c1.045,0.013,2.063,0.296,2.934,0.818c1.216,0.729,2.039,1.854,2.377,3.251c0.672,2.775-0.454,4.6-1.275,5.933l-0.005,0.008
			c0.369,0.279,0.783,0.504,1.243,0.753c1.128,0.614,2.833,1.541,3.021,3.972c0.028,0.358-0.049,0.714-0.222,1.028
			c-0.551,1.014-1.438,1.857-2.632,2.501c-1.431,0.771-3.275,1.214-5.19,1.246L48.062,58.465z M41.552,53.764
			c0.478,0.742,1.233,1.356,2.247,1.828c1.209,0.563,2.724,0.873,4.263,0.873l0.184-0.002c1.607-0.026,3.125-0.383,4.279-1.006
			c0.847-0.457,1.461-1.028,1.826-1.699c-0.115-1.172-0.831-1.649-1.999-2.284c-0.721-0.391-1.468-0.796-2.144-1.484
			c-0.407-0.416-0.471-1.058-0.157-1.563l0.309-0.51c0.783-1.269,1.516-2.458,1.041-4.422c-0.21-0.865-0.716-1.56-1.463-2.008
			c-0.567-0.34-1.238-0.524-1.941-0.533c-0.694-0.026-1.372,0.149-1.965,0.48c-0.767,0.427-1.294,1.102-1.526,1.951
			c-0.546,1.998,0.27,3.327,1.059,4.612l0.284,0.466c0.296,0.499,0.221,1.124-0.178,1.528c-0.672,0.682-1.419,1.088-2.142,1.482
			C42.381,52.097,41.672,52.565,41.552,53.764z M51.768,49.452l-0.008,0.013C51.763,49.46,51.765,49.457,51.768,49.452z"/>
	</g>
	<g opacity="0.2">
		<path fill="#296CFC" d="M182.195,43.088c-0.37,0-0.726-0.206-0.899-0.561C180.437,40.77,180,38.885,180,36.925
			C180,29.798,185.893,24,193.136,24s13.136,5.798,13.136,12.925c0,1.962-0.435,3.845-1.292,5.597
			c-0.242,0.496-0.841,0.702-1.338,0.458c-0.496-0.243-0.701-0.842-0.459-1.338c0.723-1.475,1.089-3.062,1.089-4.717
			c0-6.024-4.995-10.925-11.136-10.925S182,30.901,182,36.925c0,1.653,0.367,3.242,1.093,4.724c0.242,0.496,0.037,1.095-0.459,1.338
			C182.492,43.056,182.343,43.088,182.195,43.088z"/>
		<path fill="#296CFC" d="M193.271,51.113c-2.009,0-4.004-0.414-5.619-1.165c-1.522-0.708-2.673-1.674-3.421-2.87
			c-0.223-0.355-0.325-0.782-0.287-1.2c0.221-2.595,2.066-3.6,3.288-4.264c0.548-0.298,1.037-0.565,1.469-0.905l0,0
			c-0.951-1.551-2.255-3.677-1.409-6.772c0.409-1.501,1.343-2.695,2.701-3.451c0.986-0.55,2.104-0.834,3.245-0.8
			c1.141,0.014,2.251,0.323,3.2,0.892c1.323,0.793,2.218,2.017,2.587,3.539c0.736,3.035-0.449,4.956-1.4,6.499
			c-0.02,0.032-0.039,0.062-0.058,0.093c0.435,0.342,0.925,0.608,1.471,0.905c1.231,0.669,3.09,1.681,3.294,4.318
			c0.028,0.381-0.053,0.754-0.234,1.083c-0.601,1.104-1.568,2.024-2.874,2.728c-1.573,0.848-3.601,1.333-5.708,1.368L193.271,51.113
			z M193.095,31.684c-0.754,0-1.484,0.189-2.129,0.549c-0.877,0.488-1.48,1.26-1.745,2.23c-0.618,2.261,0.299,3.756,1.186,5.201
			l0.315,0.518c0.303,0.509,0.226,1.148-0.183,1.563c-0.732,0.744-1.553,1.191-2.347,1.623c-1.096,0.597-2.126,1.157-2.257,2.687
			c0.53,0.826,1.395,1.538,2.56,2.081c1.356,0.631,3.052,0.979,4.775,0.979l0.202-0.002c1.803-0.03,3.505-0.431,4.801-1.129
			c0.958-0.516,1.654-1.165,2.069-1.929c-0.126-1.521-1.163-2.085-2.26-2.682c-0.794-0.431-1.615-0.876-2.354-1.627
			c-0.416-0.422-0.481-1.081-0.158-1.6c0.142-0.24,0.235-0.393,0.341-0.564c0.883-1.43,1.708-2.768,1.169-4.991
			c-0.24-0.99-0.818-1.783-1.673-2.295c-0.646-0.387-1.409-0.598-2.207-0.607C193.166,31.684,193.13,31.684,193.095,31.684z
			 M197.292,41.162c-0.004,0.007-0.008,0.013-0.012,0.02C197.284,41.175,197.288,41.168,197.292,41.162z"/>
	</g>
	<g>
		<path fill="#296CFC" d="M113.775,234.088c-0.37,0-0.726-0.206-0.899-0.561c-0.86-1.758-1.296-3.644-1.296-5.604
			c0-7.126,5.893-12.924,13.136-12.924c7.243,0,13.135,5.798,13.135,12.924c0,1.961-0.435,3.844-1.291,5.597
			c-0.243,0.496-0.84,0.704-1.338,0.459c-0.496-0.242-0.701-0.842-0.459-1.338c0.722-1.477,1.088-3.063,1.088-4.718
			c0-6.023-4.995-10.924-11.135-10.924c-6.141,0-11.136,4.9-11.136,10.924c0,1.653,0.368,3.242,1.093,4.725
			c0.243,0.496,0.037,1.095-0.459,1.338C114.072,234.056,113.923,234.088,113.775,234.088z"/>
		<path fill="#296CFC" d="M124.851,242.113c-2.01,0-4.005-0.414-5.62-1.166c-1.521-0.707-2.672-1.672-3.421-2.869
			c-0.222-0.355-0.324-0.779-0.288-1.195c0.223-2.601,2.068-3.604,3.289-4.269c0.548-0.3,1.038-0.566,1.469-0.905l0,0
			c-0.951-1.548-2.256-3.674-1.41-6.772c0.41-1.502,1.344-2.695,2.702-3.451c0.985-0.55,2.107-0.822,3.245-0.8
			c1.142,0.015,2.252,0.323,3.2,0.893c1.324,0.794,2.219,2.019,2.587,3.539c0.735,3.033-0.449,4.954-1.4,6.498
			c-0.02,0.032-0.038,0.063-0.057,0.093c0.433,0.341,0.924,0.608,1.471,0.905c1.23,0.669,3.089,1.68,3.293,4.318
			c0.028,0.379-0.053,0.753-0.234,1.082c-0.6,1.104-1.568,2.024-2.874,2.729c-1.573,0.848-3.601,1.333-5.708,1.368L124.851,242.113z
			 M124.673,222.684c-0.753,0-1.483,0.188-2.127,0.548c-0.877,0.488-1.481,1.26-1.746,2.231c-0.618,2.263,0.3,3.757,1.187,5.202
			l0.314,0.517c0.302,0.508,0.227,1.146-0.18,1.56c-0.734,0.744-1.552,1.19-2.344,1.623c-1.101,0.599-2.131,1.16-2.262,2.688
			c0.531,0.827,1.395,1.539,2.559,2.08c1.356,0.632,3.052,0.979,4.776,0.979l0.202-0.003c1.803-0.029,3.505-0.431,4.802-1.129
			c0.957-0.517,1.653-1.165,2.068-1.929c-0.126-1.522-1.162-2.086-2.26-2.682c-0.795-0.434-1.617-0.88-2.353-1.628
			c-0.417-0.425-0.482-1.083-0.158-1.602c0.141-0.237,0.235-0.39,0.34-0.561c0.883-1.432,1.708-2.771,1.169-4.993
			c-0.24-0.988-0.818-1.782-1.672-2.295c-0.646-0.387-1.409-0.597-2.208-0.607C124.745,222.684,124.709,222.684,124.673,222.684z
			 M128.872,232.162c-0.004,0.007-0.008,0.014-0.013,0.021C128.864,232.175,128.868,232.168,128.872,232.162z"/>
	</g>
	<g>
		<path fill="#296CFC" d="M113.775,19.088c-0.37,0-0.726-0.206-0.899-0.561c-0.86-1.758-1.296-3.643-1.296-5.603
			C111.58,5.798,117.473,0,124.716,0c7.243,0,13.135,5.798,13.135,12.925c0,1.961-0.435,3.844-1.291,5.596
			c-0.243,0.497-0.84,0.702-1.338,0.459c-0.496-0.243-0.701-0.842-0.459-1.338c0.722-1.476,1.088-3.063,1.088-4.717
			C135.852,6.901,130.856,2,124.716,2c-6.141,0-11.136,4.901-11.136,10.925c0,1.653,0.368,3.242,1.093,4.724
			c0.243,0.496,0.037,1.095-0.459,1.338C114.072,19.056,113.923,19.088,113.775,19.088z"/>
		<path fill="#296CFC" d="M124.851,27.113c-2.009,0-4.005-0.414-5.62-1.165c-1.522-0.709-2.673-1.674-3.421-2.87
			c-0.222-0.355-0.324-0.779-0.288-1.195c0.222-2.6,2.067-3.604,3.288-4.269c0.547-0.298,1.038-0.565,1.471-0.905l-0.001-0.001
			c-0.95-1.548-2.255-3.673-1.41-6.771c0.41-1.502,1.344-2.695,2.702-3.451c0.986-0.55,2.102-0.835,3.245-0.8
			c1.141,0.014,2.251,0.323,3.2,0.892c1.324,0.793,2.219,2.018,2.587,3.539c0.736,3.034-0.449,4.955-1.4,6.498
			c-0.02,0.032-0.039,0.062-0.058,0.092c0.435,0.343,0.925,0.609,1.471,0.905c1.231,0.669,3.09,1.681,3.294,4.318
			c0.028,0.381-0.053,0.754-0.234,1.083c-0.601,1.104-1.568,2.024-2.874,2.728c-1.573,0.848-3.6,1.333-5.708,1.368L124.851,27.113z
			 M124.674,7.684c-0.753,0-1.483,0.189-2.128,0.549c-0.877,0.488-1.48,1.26-1.745,2.231c-0.618,2.262,0.3,3.757,1.187,5.202
			l0.314,0.518c0.302,0.507,0.226,1.145-0.18,1.559c-0.736,0.747-1.557,1.194-2.352,1.627c-1.094,0.595-2.124,1.156-2.254,2.686
			c0.53,0.825,1.394,1.538,2.56,2.08c1.355,0.631,3.052,0.979,4.775,0.979l0.202-0.002c1.803-0.03,3.505-0.431,4.801-1.129
			c0.958-0.516,1.654-1.165,2.069-1.929c-0.126-1.521-1.163-2.085-2.26-2.682c-0.794-0.431-1.615-0.876-2.353-1.627
			c-0.417-0.422-0.482-1.081-0.159-1.6c0.142-0.24,0.236-0.393,0.342-0.564c0.882-1.43,1.708-2.768,1.168-4.991
			c-0.24-0.99-0.818-1.783-1.672-2.295c-0.646-0.388-1.409-0.598-2.208-0.608C124.745,7.684,124.709,7.684,124.674,7.684z
			 M128.872,17.162c-0.004,0.006-0.008,0.013-0.012,0.02C128.864,17.175,128.868,17.168,128.872,17.162z"/>
	</g>
	<path opacity="0.2" fill="#296CFC" d="M58.707,37.128c-0.299,0-0.596-0.134-0.792-0.39c-0.337-0.438-0.256-1.065,0.182-1.402
		c14.81-11.413,32.386-18.869,50.829-21.561c0.538-0.081,1.054,0.298,1.134,0.845c0.08,0.546-0.299,1.054-0.845,1.134
		c-18.104,2.643-35.358,9.961-49.897,21.166C59.135,37.06,58.92,37.128,58.707,37.128z"/>
	<path opacity="0.2" fill="#296CFC" d="M20.438,93.612c-0.09,0-0.181-0.012-0.272-0.038c-0.531-0.15-0.841-0.702-0.691-1.234
		c3.653-12.955,9.617-25.009,17.724-35.827c0.331-0.442,0.958-0.531,1.4-0.201c0.442,0.332,0.532,0.958,0.201,1.4
		c-7.959,10.62-13.813,22.453-17.4,35.171C21.276,93.324,20.875,93.612,20.438,93.612z"/>
	<path opacity="0.2" fill="#296CFC" d="M32.055,179.333c-0.338,0-0.667-0.171-0.856-0.481c-7.718-12.717-12.681-26.628-14.75-41.346
		c-0.077-0.547,0.304-1.053,0.851-1.13c0.545-0.078,1.053,0.305,1.129,0.851c2.032,14.448,6.903,28.104,14.48,40.588
		c0.287,0.472,0.136,1.087-0.336,1.373C32.411,179.286,32.232,179.333,32.055,179.333z"/>
	<path opacity="0.2" fill="#296CFC" d="M109.289,230.51c-0.048,0-0.096-0.003-0.144-0.01c-20.991-3.021-40.541-12.05-56.534-26.11
		c-0.415-0.364-0.456-0.996-0.091-1.411c0.364-0.414,0.996-0.456,1.411-0.091c15.702,13.804,34.893,22.667,55.499,25.632
		c0.546,0.079,0.926,0.586,0.847,1.133C110.206,230.151,109.778,230.51,109.289,230.51z"/>
	<path opacity="0.2" fill="#296CFC" d="M140.378,230.522c-0.49,0-0.918-0.359-0.989-0.858c-0.078-0.547,0.302-1.054,0.849-1.132
		c19.126-2.736,37.199-10.635,52.267-22.843c0.431-0.347,1.06-0.28,1.407,0.147c0.348,0.43,0.281,1.06-0.147,1.407
		c-15.349,12.435-33.76,20.48-53.243,23.269C140.473,230.519,140.425,230.522,140.378,230.522z"/>
	<path opacity="0.2" fill="#296CFC" d="M213.757,185.365c-0.198,0-0.398-0.059-0.573-0.182c-0.452-0.317-0.562-0.94-0.244-1.393
		c9.752-13.899,16.126-30.119,18.433-46.906c0.074-0.547,0.573-0.938,1.126-0.854c0.548,0.074,0.93,0.579,0.854,1.126
		c-2.349,17.102-8.842,33.625-18.776,47.783C214.382,185.216,214.072,185.365,213.757,185.365z"/>
	<path opacity="0.2" fill="#296CFC" d="M229.728,95.12c-0.441,0-0.846-0.295-0.965-0.743c-4.464-16.756-13.078-32.382-24.913-45.191
		c-0.375-0.406-0.35-1.039,0.056-1.413c0.404-0.375,1.037-0.352,1.413,0.056c12.055,13.046,20.83,28.965,25.376,46.034
		c0.143,0.534-0.175,1.082-0.708,1.224C229.899,95.109,229.813,95.12,229.728,95.12z"/>
	<path opacity="0.2" fill="#296CFC" d="M179.092,29.117c-0.17,0-0.342-0.043-0.499-0.134c-12.045-6.962-25.138-11.454-38.914-13.351
		c-0.547-0.075-0.93-0.58-0.854-1.127c0.074-0.547,0.568-0.932,1.127-0.854c14.033,1.933,27.371,6.508,39.641,13.601
		c0.479,0.276,0.643,0.888,0.366,1.366C179.773,28.938,179.438,29.117,179.092,29.117z"/>
	<g opacity="0.2">
		<path fill="#296CFC" d="M194.077,200.231c-0.37,0-0.726-0.206-0.899-0.561c-0.781-1.598-1.178-3.312-1.178-5.094
			c0-6.479,5.356-11.75,11.94-11.75c6.583,0,11.939,5.271,11.939,11.75c0,1.782-0.396,3.494-1.175,5.088
			c-0.243,0.496-0.841,0.704-1.338,0.459c-0.496-0.243-0.701-0.842-0.459-1.338c0.645-1.317,0.972-2.733,0.972-4.209
			c0-5.376-4.459-9.75-9.939-9.75c-5.481,0-9.94,4.374-9.94,9.75c0,1.476,0.328,2.894,0.975,4.215
			c0.242,0.496,0.037,1.095-0.459,1.338C194.374,200.199,194.225,200.231,194.077,200.231z"/>
		<path fill="#296CFC" d="M204.062,207.464c-1.826,0-3.641-0.376-5.107-1.06c-1.391-0.647-2.442-1.53-3.126-2.624
			c-0.211-0.338-0.308-0.741-0.273-1.137c0.205-2.397,1.896-3.318,3.016-3.928c0.462-0.252,0.875-0.478,1.241-0.753
			c-0.861-1.404-1.996-3.323-1.236-6.106c0.378-1.381,1.235-2.478,2.482-3.172c0.905-0.504,1.913-0.751,2.977-0.733
			c1.042,0.013,2.061,0.296,2.932,0.818c1.217,0.729,2.039,1.854,2.378,3.252c0.672,2.774-0.453,4.6-1.274,5.932l-0.005,0.008
			c0.369,0.28,0.784,0.505,1.242,0.754c1.131,0.615,2.833,1.543,3.021,3.972c0.027,0.356-0.048,0.712-0.22,1.025
			c-0.554,1.019-1.44,1.861-2.634,2.504c-1.431,0.771-3.273,1.214-5.19,1.246L204.062,207.464z M203.901,189.951
			c-0.663,0-1.304,0.166-1.87,0.481c-0.777,0.434-1.291,1.09-1.526,1.952c-0.546,1.997,0.271,3.326,1.06,4.61l0.283,0.467
			c0.297,0.506,0.219,1.131-0.184,1.533c-0.664,0.675-1.408,1.08-2.128,1.473c-1.171,0.638-1.883,1.11-1.989,2.347
			c0.452,0.667,1.218,1.297,2.251,1.778c1.209,0.563,2.723,0.872,4.264,0.872l0.177-0.002c1.614-0.026,3.132-0.384,4.286-1.006
			c0.847-0.456,1.461-1.028,1.827-1.7c-0.115-1.171-0.831-1.647-1.998-2.283c-0.722-0.392-1.468-0.796-2.146-1.483
			c-0.408-0.413-0.473-1.058-0.156-1.565l0.275-0.456c0.815-1.322,1.549-2.512,1.073-4.476c-0.21-0.865-0.716-1.56-1.463-2.008
			c-0.567-0.34-1.238-0.524-1.94-0.533C203.966,189.951,203.934,189.951,203.901,189.951z M207.77,198.45l-0.009,0.014
			C207.764,198.458,207.767,198.454,207.77,198.45z M200.244,197.585c-0.002,0.003-0.004,0.005-0.006,0.007
			C200.24,197.59,200.242,197.588,200.244,197.585z M207.632,197.584c0,0,0.001,0.001,0.002,0.002
			C207.633,197.585,207.632,197.584,207.632,197.584z"/>
	</g>
	<g opacity="0.2">
		<path fill="#296CFC" d="M31.195,197.088c-0.37,0-0.726-0.206-0.899-0.561c-0.86-1.758-1.296-3.644-1.296-5.604
			C29,183.798,34.893,178,42.136,178s13.136,5.798,13.136,12.924c0,1.96-0.435,3.843-1.292,5.597
			c-0.243,0.495-0.841,0.704-1.337,0.459c-0.497-0.242-0.702-0.842-0.459-1.338c0.723-1.478,1.089-3.065,1.089-4.718
			c0-6.023-4.996-10.924-11.136-10.924C35.996,180,31,184.901,31,190.924c0,1.653,0.368,3.242,1.093,4.725
			c0.243,0.496,0.037,1.095-0.459,1.338C31.492,197.056,31.343,197.088,31.195,197.088z"/>
		<path fill="#296CFC" d="M42.271,205.113c-2.009,0-4.005-0.414-5.619-1.166c-1.521-0.707-2.672-1.672-3.421-2.869
			c-0.222-0.355-0.324-0.779-0.288-1.195c0.222-2.6,2.067-3.604,3.289-4.269c0.548-0.3,1.037-0.566,1.469-0.905
			c-0.951-1.549-2.256-3.676-1.41-6.772c0.41-1.502,1.344-2.695,2.702-3.451c0.985-0.55,2.106-0.821,3.245-0.8
			c1.142,0.015,2.252,0.323,3.2,0.893c1.324,0.794,2.218,2.018,2.587,3.539c0.735,3.032-0.449,4.954-1.4,6.498
			c-0.02,0.032-0.039,0.063-0.057,0.093c0.433,0.341,0.924,0.608,1.471,0.905c1.23,0.669,3.09,1.68,3.293,4.318
			c0.028,0.377-0.052,0.749-0.231,1.078c-0.604,1.108-1.572,2.028-2.877,2.732c-1.574,0.848-3.601,1.333-5.708,1.368L42.271,205.113
			z M42.093,185.684c-0.753,0-1.483,0.188-2.127,0.548c-0.877,0.488-1.481,1.26-1.746,2.231c-0.618,2.262,0.299,3.757,1.187,5.202
			l0.314,0.517c0.304,0.509,0.227,1.148-0.182,1.562c-0.731,0.743-1.551,1.189-2.343,1.622c-1.099,0.599-2.129,1.159-2.26,2.688
			c0.531,0.827,1.395,1.539,2.559,2.08c1.356,0.632,3.052,0.979,4.776,0.979l0.202-0.003c1.803-0.029,3.505-0.431,4.801-1.129
			c0.958-0.517,1.654-1.166,2.07-1.929c-0.126-1.521-1.164-2.085-2.261-2.682c-0.795-0.434-1.617-0.88-2.353-1.628
			c-0.417-0.427-0.48-1.084-0.158-1.602c0.141-0.237,0.235-0.39,0.34-0.561c0.882-1.433,1.707-2.771,1.169-4.993
			c-0.24-0.988-0.818-1.782-1.673-2.295c-0.645-0.387-1.408-0.597-2.208-0.607C42.165,185.684,42.129,185.684,42.093,185.684z
			 M46.292,195.162c-0.004,0.007-0.008,0.014-0.013,0.021C46.284,195.175,46.288,195.168,46.292,195.162z"/>
	</g>
</g>
</svg>
