<?xml version="1.0" encoding="utf-8"?>
<!-- Generator: Adobe Illustrator 22.0.1, SVG Export Plug-In . SVG Version: 6.00 Build 0)  -->
<svg version="1.1" id="_x3C_Layer_x3E_" xmlns="http://www.w3.org/2000/svg" xmlns:xlink="http://www.w3.org/1999/xlink" x="0px"
	 y="0px" viewBox="0 0 90 90" enable-background="new 0 0 90 90" xml:space="preserve">
<g>
	<path fill="#333333" d="M49.3,5.28c-1.64,0.549-2.742,2.09-2.73,3.82c0.028,0.937,0.354,1.841,0.93,2.58l0.8,1.09
		c1.484,2.116,0.972,5.035-1.144,6.519c-0.324,0.227-0.675,0.412-1.046,0.551l-3.92-1l1.26-1.12c1.242-1.131,1.349-3.048,0.24-4.31
		l-0.6-0.69c-1.766-2.021-1.56-5.091,0.461-6.858c0.229-0.2,0.476-0.378,0.739-0.532L49.3,5.28z"/>
	<path fill="#333333" d="M34.94,14.12c0,1.618-1.312,2.93-2.93,2.93c-1.618,0-2.93-1.312-2.93-2.93c0-1.614,1.306-2.924,2.92-2.93
		c1.618-0.006,2.934,1.302,2.94,2.92C34.94,14.113,34.94,14.117,34.94,14.12z M31.94,7.31c-3.761,0-6.81,3.049-6.81,6.81
		c0,3.761,3.049,6.81,6.81,6.81c3.761,0,6.81-3.049,6.81-6.81l0,0c0-3.738-3.012-6.777-6.75-6.81L31.94,7.31z"/>
	<path fill="#333333" d="M29,72.63c-0.006,1.618-1.323,2.925-2.941,2.919s-2.925-1.323-2.919-2.941
		c0.006-1.587,1.274-2.88,2.86-2.918c1.618-0.039,2.961,1.241,2.999,2.859C29,72.576,29,72.603,29,72.63z M26,65.82
		c-3.761,0-6.81,3.049-6.81,6.81c0,3.761,3.049,6.81,6.81,6.81c3.761,0,6.81-3.049,6.81-6.81v0C32.81,68.869,29.761,65.82,26,65.82z
		"/>
	<path fill="#333333" d="M20.85,19.22c-1.582-0.247-3.065,0.836-3.312,2.418c-0.247,1.582,0.836,3.065,2.418,3.312
		c1.582,0.247,3.065-0.836,3.312-2.418c0.004-0.027,0.008-0.055,0.012-0.082l3.81,0.38c-0.408,3.7-3.738,6.369-7.438,5.961
		c-3.7-0.408-6.369-3.738-5.961-7.438c0.408-3.7,3.738-6.369,7.438-5.961c0.074,0.008,0.147,0.017,0.221,0.028L20.85,19.22z"/>
	<path fill="#333333" d="M19.29,63.5c0.162-1.593-0.999-3.016-2.592-3.178c-1.593-0.162-3.016,0.999-3.178,2.592
		s0.999,3.016,2.592,3.178c0.029,0.003,0.059,0.006,0.088,0.008L16,69.93c-3.717-0.202-6.566-3.379-6.364-7.096
		c0.202-3.717,3.379-6.566,7.096-6.364s6.566,3.379,6.364,7.096c-0.004,0.075-0.009,0.15-0.016,0.224L19.29,63.5z"/>
	<polygon fill="#333333" points="63.58,9.44 54.75,6.14 53.54,9.38 56.1,10.34 52.82,19.15 56.52,20.53 59.8,11.72 62.37,12.67 	"/>
	<path fill="#333333" d="M63.92,23l-1.77,1.18l-3.27-3.06L71,14.34l3.51,3.29l-5.94,12.52l-3.27-3.06l1.07-1.85L63.92,23z
		 M66.51,21.26l1.41,1.32l2.08-3.7L66.51,21.26z"/>
	<polygon fill="#333333" points="44.38,75.3 44.78,71.93 36.39,70.97 34.91,83.49 38.76,83.94 39.33,79.12 43.31,79.56 43.64,76.81 
		39.65,76.35 39.84,74.79 	"/>
	<polygon fill="#333333" points="56.94,73.02 56.09,69.74 47.92,71.88 51.07,84.08 54.82,83.11 53.61,78.41 57.48,77.38 56.79,74.7 
		52.91,75.71 52.51,74.19 	"/>
	<line fill="#333333" x1="46.44" y1="73.76" x2="45.65" y2="80.45"/>
	<polygon fill="#333333" points="66.65,72.61 69.81,70.11 68.08,67.91 64.91,70.41 63.96,69.21 67.6,66.34 65.52,63.67 58.85,68.92 
		66.62,78.82 67.38,78.22 73.3,73.57 71.18,70.88 67.53,73.74 	"/>
	<polygon fill="#333333" points="76,62.13 78.02,58.64 75.59,57.24 73.58,60.73 72.25,59.97 74.58,55.96 71.65,54.25 67.4,61.59 
		78.28,67.91 78.76,67.08 82.54,60.57 79.58,58.85 77.25,62.86 	"/>
	<path fill="#333333" d="M4.54,42.1v0.16c0,0.76,0.37,1,0.72,1S6,43,6,42.36c0-1.24-1.94-1.1-1.94-2.79c0-1,0.54-1.52,1.27-1.52
		s1.23,0.5,1.2,1.64H6c0-0.61-0.14-1-0.66-1c-0.33,0-0.66,0.22-0.66,0.82c0,1.24,1.94,1.06,1.94,2.84c0,1.18-0.63,1.56-1.34,1.56
		C4,43.9,4,42.64,4,42.1H4.54z"/>
	<path fill="#333333" d="M8.06,43.77H7.51v-5.61h0.55V43.77z"/>
	<path fill="#333333" d="M12.1,38.16v5.61h-0.75L9.64,38.9l0,0v4.87H9.15v-5.61h0.78L11.6,43l0,0v-4.8L12.1,38.16z"/>
	<path fill="#333333" d="M15,39.71c0.028-0.28-0.017-0.562-0.13-0.82c-0.117-0.146-0.293-0.234-0.48-0.24
		c-0.289-0.009-0.551,0.168-0.65,0.44c-0.128,0.376-0.172,0.775-0.13,1.17v1.5c0,1.38,0.35,1.54,0.77,1.54
		c0.17,0,0.68-0.08,0.68-1.17h0.57c0,1.77-0.94,1.77-1.22,1.77c-0.54,0-1.36,0-1.36-2.22v-1.6c0-1.59,0.54-2,1.39-2
		s1.18,0.58,1.13,1.66L15,39.71z"/>
	<path fill="#333333" d="M16.43,43.77v-5.61h2.23v0.62H17v1.8h1.56v0.62H17v1.94h1.71v0.62L16.43,43.77z"/>
	<path fill="#333333" d="M74.43,43.77h-0.55v-4.61l-0.62,0.54V39c0.251-0.196,0.486-0.414,0.7-0.65h0.47L74.43,43.77z"/>
	<path fill="#333333" d="M78.4,41.1c0,1.41,0,2.79-1.12,2.79c-0.62,0-1-0.55-1-1.41h0.55c0,0.4,0.12,0.81,0.47,0.81
		c0.53,0,0.57-0.76,0.57-2.15l0,0c-0.085,0.317-0.382,0.531-0.71,0.51c-0.33,0-1-0.23-1-1.7c0-1.21,0.56-1.66,1.11-1.66
		C78.42,38.29,78.4,39.64,78.4,41.1z M76.72,39.93c0,0.54,0.08,1.12,0.56,1.12s0.56-0.58,0.56-1.12s-0.08-1.12-0.56-1.12
		S76.72,39.44,76.72,39.93z"/>
	<path fill="#333333" d="M79.39,38.38h2.15V39l-1.11,4.77h-0.62L81,39h-1.58L79.39,38.38z"/>
	<path fill="#333333" d="M84.2,43.77h-0.55v-4.61l-0.62,0.54V39c0.251-0.196,0.486-0.414,0.7-0.65h0.47L84.2,43.77z"/>
	<path fill="#333333" d="M34.4,63.73c-1.79-1.4-1.66-6.43-1.66-6.43c0.021-2.933,0.777-5.815,2.2-8.38
		c0.963-1.817,2.224-3.46,3.73-4.86l0,0c3.22-2.79,7.55-3.25,10.19-0.92c0.861,0.76,1.482,1.754,1.79,2.86
		c1.464,0.27,2.788,1.045,3.74,2.19c2.32,2.65,1.87,7-0.92,10.19l0,0c-1.34,1.58-2.895,2.963-4.62,4.11
		c-2.595,1.608-5.569,2.502-8.62,2.59C35.83,65.1,34.4,63.73,34.4,63.73z M49.59,47.15c-2.919,1.54-5.363,3.846-7.07,6.67
		c-1.791,3.274-4.163,6.195-7,8.62c0,0-0.81,0.64,0.07,0.64c0,0,1.12-0.09,3.53-2.27c1.951-1.794,3.655-3.839,5.07-6.08
		c1.546-2.653,3.481-5.06,5.74-7.14c0.094-0.059,0.131-0.177,0.09-0.28C49.943,47.149,49.753,47.079,49.59,47.15z"/>
	<path fill="#333333" d="M46.18,31.65c-1.023-2.023-2.997-3.395-5.25-3.65c-1.477-0.168-2.966,0.186-4.21,1
		c-0.989-0.58-2.124-0.865-3.27-0.82c-3.52,0.16-6.3,3.52-6.67,7.76l0,0c-0.105,2.052,0.135,4.107,0.71,6.08
		c0.767,2.83,2.232,5.422,4.26,7.54c0,0,0.44,0.48,1,1c0.885-2.489,2.34-4.735,4.25-6.56c-0.17-1.11-0.42-2.34-0.77-3.76
		c-0.745-3.215-0.6-6.572,0.42-9.71c0.072-0.154,0.25-0.227,0.41-0.17c0.104,0.046,0.159,0.16,0.13,0.27
		c-0.191,3.077,0.082,6.165,0.81,9.16c0.205,0.944,0.359,1.899,0.46,2.86c1.478-1.137,3.218-1.883,5.06-2.17
		c-0.402-0.901-0.58-1.885-0.52-2.87C43.12,35.249,44.286,33.064,46.18,31.65z"/>
	<path fill="#333333" d="M51.48,45.19c-2.29-5.35-6.9-4.72-6.9-4.72c-0.7-3.1,0-6.1,2.34-7.65c0.944-0.635,2.052-0.982,3.19-1
		c0.623-1.317,1.683-2.377,3-3c3.12-1.56,7.15,0,9.53,3.43l0,0c1.178,1.681,2.113,3.519,2.78,5.46c0.89,2.89,1.001,5.964,0.32,8.91
		c-1.1,4.2-2.77,5.22-2.77,5.22C61.61,53,58.27,52.29,57,52C56.956,48.727,54.673,45.911,51.48,45.19z M51,33
		c0.707,3.152,2.259,6.053,4.49,8.39c2.638,2.542,4.79,5.545,6.35,8.86c0,0,0.4,0.93,0.62,0.1c0,0,0.2-1.08-1.24-3.92
		c-1.197-2.307-2.693-4.445-4.45-6.36c-2.113-2.143-3.892-4.59-5.28-7.26c-0.032-0.103-0.132-0.17-0.24-0.16
		C51.092,32.689,50.985,32.838,51,33z"/>
	<path fill="#333333" d="M90,45c0,24.853-20.147,45-45,45S0,69.853,0,45S20.147,0,45,0S90,20.147,90,45z M45,1.19
		C20.804,1.19,1.19,20.804,1.19,45S20.804,88.81,45,88.81S88.81,69.196,88.81,45l0,0C88.81,20.804,69.196,1.19,45,1.19z"/>
	<path fill="#333333" d="M69.25,45c0,13.393-10.857,24.25-24.25,24.25S20.75,58.393,20.75,45S31.607,20.75,45,20.75
		S69.25,31.607,69.25,45L69.25,45z M45,21.73c-12.852,0-23.27,10.418-23.27,23.27S32.148,68.27,45,68.27S68.27,57.852,68.27,45l0,0
		C68.27,32.148,57.852,21.73,45,21.73z"/>
	<path fill="#333333" d="M74.76,23.81h-0.47v-0.19h1.13v0.19h-0.47v1.39h-0.19L74.76,23.81z"/>
	<path fill="#333333" d="M77.1,23.78L77.1,23.78l-0.45,1.42h-0.18L76,23.78l0,0v1.42h-0.19v-1.58h0.35l0.4,1.3l0,0l0.4-1.3h0.32
		v1.58h-0.19L77.1,23.78z"/>
</g>
</svg>
