<?xml version="1.0" encoding="utf-8"?>
<!-- Generator: Adobe Illustrator 22.0.1, SVG Export Plug-In . SVG Version: 6.00 Build 0)  -->
<svg version="1.1" id="Layer_1" xmlns="http://www.w3.org/2000/svg" xmlns:xlink="http://www.w3.org/1999/xlink" x="0px" y="0px"
	 viewBox="0 0 368 182" enable-background="new 0 0 368 182" xml:space="preserve">
<g>
	
		<linearGradient id="SVGID_1_" gradientUnits="userSpaceOnUse" x1="107.7515" y1="-119.4803" x2="259.2494" y2="32.0174" gradientTransform="matrix(1 0 0 -1 0 47.269)">
		<stop  offset="0" style="stop-color:#1D0561"/>
		<stop  offset="0.0454" style="stop-color:#210964"/>
		<stop  offset="0.4411" style="stop-color:#402977"/>
		<stop  offset="0.7734" style="stop-color:#523D84"/>
		<stop  offset="1" style="stop-color:#594488"/>
	</linearGradient>
	<path fill="url(#SVGID_1_)" d="M242.606,182h-118.21c-1.876,0-3.396-1.54-3.396-3.442V3.442C121,1.54,122.52,0,124.396,0h118.208
		C244.48,0,246,1.54,246,3.442v175.116C246.002,180.46,244.482,182,242.606,182z"/>
	<g>
		<path fill="#FFFFFF" d="M168.792,25.08h-22.43c-0.552,0-1-0.448-1-1s0.448-1,1-1h22.43c0.552,0,1,0.448,1,1
			S169.344,25.08,168.792,25.08z"/>
		<g>
			<path fill="#FFFFFF" d="M171.27,51.691h-10.644c-0.446,0-0.839-0.296-0.961-0.725l-7.604-26.611
				c-0.086-0.302-0.026-0.626,0.163-0.877s0.484-0.398,0.798-0.398h10.645c0.446,0,0.839,0.296,0.961,0.725l7.603,26.611
				c0.086,0.302,0.026,0.626-0.163,0.877S171.584,51.691,171.27,51.691z M161.38,49.691h8.564l-7.032-24.611h-8.565L161.38,49.691z"
				/>
			<path fill="#FFFFFF" d="M175.254,51.691h-19.388c-0.552,0-1-0.448-1-1s0.448-1,1-1h19.388c0.552,0,1,0.448,1,1
				S175.806,51.691,175.254,51.691z"/>
			<path fill="#FFFFFF" d="M147.883,51.691h-7.603c-0.552,0-1-0.448-1-1s0.448-1,1-1h7.603c0.552,0,1,0.448,1,1
				S148.435,51.691,147.883,51.691z"/>
			<path fill="#FFFFFF" d="M157.387,43.327h-10.645c-0.552,0-1-0.448-1-1s0.448-1,1-1h10.645c0.552,0,1,0.448,1,1
				S157.939,43.327,157.387,43.327z"/>
			<path fill="#FFFFFF" d="M143.899,51.611c-0.091,0-0.184-0.013-0.275-0.039c-0.531-0.152-0.838-0.705-0.687-1.236l7.476-26.167
				c0.152-0.53,0.705-0.838,1.236-0.687c0.531,0.152,0.838,0.705,0.687,1.236l-7.476,26.167
				C144.735,51.325,144.334,51.611,143.899,51.611z"/>
		</g>
	</g>
	<g>
		<path fill="#FFFFFF" d="M228.603,25.08h-38.775c-0.553,0-1-0.448-1-1s0.447-1,1-1h38.775c0.553,0,1,0.448,1,1
			S229.155,25.08,228.603,25.08z"/>
		<path fill="#FFFFFF" d="M228.603,31.732h-38.775c-0.553,0-1-0.448-1-1s0.447-1,1-1h38.775c0.553,0,1,0.448,1,1
			S229.155,31.732,228.603,31.732z"/>
		<path fill="#FFFFFF" d="M228.603,38.385h-38.775c-0.553,0-1-0.448-1-1s0.447-1,1-1h38.775c0.553,0,1,0.448,1,1
			S229.155,38.385,228.603,38.385z"/>
		<path fill="#FFFFFF" d="M228.603,45.038h-38.775c-0.553,0-1-0.448-1-1s0.447-1,1-1h38.775c0.553,0,1,0.448,1,1
			S229.155,45.038,228.603,45.038z"/>
		<path fill="#FFFFFF" d="M205.794,51.691h-15.967c-0.553,0-1-0.448-1-1s0.447-1,1-1h15.967c0.553,0,1,0.448,1,1
			S206.347,51.691,205.794,51.691z"/>
	</g>
	<g>
		<path fill="#FFFFFF" d="M206.047,67.024H140.66c-0.552,0-1-0.448-1-1s0.448-1,1-1h65.387c0.553,0,1,0.448,1,1
			S206.6,67.024,206.047,67.024z"/>
		<path fill="#FFFFFF" d="M206.047,73.677H140.66c-0.552,0-1-0.448-1-1s0.448-1,1-1h65.387c0.553,0,1,0.448,1,1
			S206.6,73.677,206.047,73.677z"/>
		<path fill="#FFFFFF" d="M206.047,80.329H140.66c-0.552,0-1-0.448-1-1s0.448-1,1-1h65.387c0.553,0,1,0.448,1,1
			S206.6,80.329,206.047,80.329z"/>
		<path fill="#FFFFFF" d="M206.047,86.982H140.66c-0.552,0-1-0.448-1-1s0.448-1,1-1h65.387c0.553,0,1,0.448,1,1
			S206.6,86.982,206.047,86.982z"/>
		<path fill="#FFFFFF" d="M206.047,93.635H140.66c-0.552,0-1-0.447-1-1s0.448-1,1-1h65.387c0.553,0,1,0.447,1,1
			S206.6,93.635,206.047,93.635z"/>
		<path fill="#FFFFFF" d="M206.047,100.288H140.66c-0.552,0-1-0.447-1-1s0.448-1,1-1h65.387c0.553,0,1,0.447,1,1
			S206.6,100.288,206.047,100.288z"/>
		<path fill="#FFFFFF" d="M164.23,106.94h-23.57c-0.552,0-1-0.447-1-1s0.448-1,1-1h23.57c0.552,0,1,0.447,1,1
			S164.782,106.94,164.23,106.94z"/>
		<path fill="#FFFFFF" d="M229.364,67.024h-13.687c-0.553,0-1-0.448-1-1s0.447-1,1-1h13.687c0.553,0,1,0.448,1,1
			S229.917,67.024,229.364,67.024z"/>
		<path fill="#FFFFFF" d="M229.364,73.677h-13.687c-0.553,0-1-0.448-1-1s0.447-1,1-1h13.687c0.553,0,1,0.448,1,1
			S229.917,73.677,229.364,73.677z"/>
		<path fill="#FFFFFF" d="M229.364,80.329h-13.687c-0.553,0-1-0.448-1-1s0.447-1,1-1h13.687c0.553,0,1,0.448,1,1
			S229.917,80.329,229.364,80.329z"/>
		<path fill="#FFFFFF" d="M225.562,86.982h-9.884c-0.553,0-1-0.448-1-1s0.447-1,1-1h9.884c0.553,0,1,0.448,1,1
			S226.114,86.982,225.562,86.982z"/>
	</g>
	<path fill="#FFFFFF" d="M220.477,158.896H148.28c-4.962,0-9-4.037-9-9v-24.298c0-4.963,4.038-9,9-9h72.197c4.963,0,9,4.037,9,9
		v24.298C229.477,154.859,225.439,158.896,220.477,158.896z M148.28,118.599c-3.86,0-7,3.141-7,7v24.298c0,3.859,3.14,7,7,7h72.197
		c3.859,0,7-3.141,7-7v-24.298c0-3.859-3.141-7-7-7H148.28z"/>
	<path fill="#FFFFFF" d="M185.456,153.51c-0.256,0-0.512-0.098-0.707-0.293l-25.059-25.059c-0.606-0.605-1.592-0.605-2.198,0
		l-12.64,12.64c-0.391,0.391-1.023,0.391-1.414,0s-0.391-1.023,0-1.414l12.64-12.64c1.384-1.385,3.639-1.386,5.025,0l25.06,25.059
		c0.391,0.391,0.391,1.023,0,1.414C185.968,153.412,185.712,153.51,185.456,153.51z"/>
	<path fill="#FFFFFF" d="M221.952,145.146c-0.257,0-0.513-0.099-0.707-0.293l-17.772-17.772c-0.606-0.606-1.593-0.604-2.197,0
		l-9.347,9.346c-0.391,0.391-1.023,0.391-1.414,0l-2.123-2.123c-0.384-0.384-1.055-0.382-1.437,0l-7.54,7.54
		c-0.391,0.391-1.023,0.391-1.414,0s-0.391-1.023,0-1.414l7.54-7.54c1.175-1.176,3.088-1.176,4.265,0l1.416,1.416l8.64-8.639
		c1.384-1.384,3.638-1.386,5.025,0l17.107,17.107l2.699-2.385c0.414-0.365,1.046-0.327,1.411,0.087
		c0.366,0.414,0.327,1.046-0.087,1.411l-3.403,3.008C222.425,145.063,222.188,145.146,221.952,145.146z"/>
	<path opacity="0.1" fill="#FFFFFF" enable-background="new    " d="M228,153v-15l-6.316,5.254
		c-0.547,0.501-1.376,0.475-1.892-0.061l-10.134-10.515c-0.54-0.56-1.414-0.56-1.954,0l-1.221,1.267c-0.54,0.56-1.414,0.56-1.954,0
		l-0.611-0.634c-0.54-0.56-1.414-0.56-1.954,0l-2.931,3.041c-0.54,0.56-1.414,0.56-1.954,0l-2.32-2.408
		c-0.54-0.56-1.414-0.56-1.954,0l-0.733,0.76c-0.54,0.56-1.414,0.56-1.954,0l-1.466-1.521c-0.54-0.56-1.414-0.56-1.954,0
		l-8.915,9.251c-0.54,0.56-1.414,0.56-1.954,0l-5.801-6.019c-0.54-0.56-1.414-0.56-1.954,0l0,0c-0.54,0.56-1.414,0.56-1.954,0
		l-1.038-1.077c-0.54-0.56-1.414-0.56-1.954,0l-2.381,2.471c-0.54,0.56-1.414,0.56-1.954,0l-0.244-0.253
		c-0.54-0.56-1.414-0.56-1.954,0l-0.122,0.127c-0.54,0.56-1.414,0.56-1.954,0l-2.231-2.315c-0.551-0.571-1.447-0.558-1.982,0.03
		l-7.928,8.714C142.135,144.378,141,144.634,141,145v8c0,2.366,2.849,4.896,5.13,4.896h9.915h59.048h7.778
		C225.151,157.896,228,155.366,228,153z"/>
	<g>
		<path fill="#296CFC" d="M98.968,164.663H3c-1.654,0-3-1.346-3-3V21.183c0-1.654,1.346-3,3-3h95.968c1.654,0,3,1.346,3,3v140.48
			C101.968,163.317,100.622,164.663,98.968,164.663z M3,20.183c-0.551,0-1,0.449-1,1v140.48c0,0.552,0.449,1,1,1h95.968
			c0.551,0,1-0.448,1-1V21.183c0-0.551-0.449-1-1-1H3z"/>
		<path fill="#296CFC" d="M80.792,64.605H21.176c-1.654,0-3-1.346-3-3V38.927c0-1.654,1.346-3,3-3h59.616c1.654,0,3,1.346,3,3
			v22.678C83.792,63.259,82.446,64.605,80.792,64.605z M21.176,37.927c-0.551,0-1,0.449-1,1v22.678c0,0.551,0.449,1,1,1h59.616
			c0.551,0,1-0.449,1-1V38.927c0-0.551-0.449-1-1-1H21.176z"/>
		<path fill="#296CFC" d="M80.792,147.517H21.176c-1.654,0-3-1.346-3-3v-34.538c0-1.654,1.346-3,3-3h59.616c1.654,0,3,1.346,3,3
			v34.538C83.792,146.171,82.446,147.517,80.792,147.517z M21.176,108.979c-0.551,0-1,0.448-1,1v34.538c0,0.552,0.449,1,1,1h59.616
			c0.551,0,1-0.448,1-1v-34.538c0-0.552-0.449-1-1-1H21.176z"/>
		<path fill="#296CFC" d="M46.381,74.287H19.58c-0.552,0-1-0.448-1-1s0.448-1,1-1h26.801c0.552,0,1,0.448,1,1
			S46.933,74.287,46.381,74.287z"/>
		<path fill="#296CFC" d="M46.381,80.292H19.58c-0.552,0-1-0.448-1-1s0.448-1,1-1h26.801c0.552,0,1,0.448,1,1
			S46.933,80.292,46.381,80.292z"/>
		<path fill="#296CFC" d="M46.381,86.297H19.58c-0.552,0-1-0.448-1-1s0.448-1,1-1h26.801c0.552,0,1,0.448,1,1
			S46.933,86.297,46.381,86.297z"/>
		<path fill="#296CFC" d="M46.381,92.302H19.58c-0.552,0-1-0.448-1-1s0.448-1,1-1h26.801c0.552,0,1,0.448,1,1
			S46.933,92.302,46.381,92.302z"/>
		<path fill="#296CFC" d="M46.44,98.308H19.58c-0.552,0-1-0.447-1-1s0.448-1,1-1h26.86c0.552,0,1,0.447,1,1
			S46.992,98.308,46.44,98.308z"/>
		<path fill="#296CFC" d="M82.733,74.287H55.932c-0.552,0-1-0.448-1-1s0.448-1,1-1h26.801c0.552,0,1,0.448,1,1
			S83.285,74.287,82.733,74.287z"/>
		<path fill="#296CFC" d="M82.733,80.292H55.932c-0.552,0-1-0.448-1-1s0.448-1,1-1h26.801c0.552,0,1,0.448,1,1
			S83.285,80.292,82.733,80.292z"/>
		<path fill="#296CFC" d="M82.733,86.297H55.932c-0.552,0-1-0.448-1-1s0.448-1,1-1h26.801c0.552,0,1,0.448,1,1
			S83.285,86.297,82.733,86.297z"/>
		<path fill="#296CFC" d="M82.733,92.302H55.932c-0.552,0-1-0.448-1-1s0.448-1,1-1h26.801c0.552,0,1,0.448,1,1
			S83.285,92.302,82.733,92.302z"/>
		<path fill="#296CFC" d="M76.382,98.308h-20.45c-0.552,0-1-0.447-1-1s0.448-1,1-1h20.45c0.552,0,1,0.447,1,1
			S76.934,98.308,76.382,98.308z"/>
		<path fill="#296CFC" d="M45.613,136.253c-0.313,0-0.627-0.083-0.913-0.248c-0.572-0.329-0.913-0.921-0.913-1.581v-13.616
			c0-0.659,0.341-1.25,0.912-1.58c0.571-0.329,1.253-0.332,1.826-0.001l11.792,6.808c0.572,0.33,0.913,0.92,0.914,1.58
			s-0.341,1.252-0.914,1.583l-11.792,6.808C46.24,136.17,45.926,136.253,45.613,136.253z M45.787,121.109v13.013l11.27-6.506
			L45.787,121.109z M57.319,127.767h0.01H57.319z"/>
		<path fill="#296CFC" d="M82,64c-0.125,0-0.251-0.023-0.374-0.073l-62-25c-0.512-0.207-0.76-0.789-0.553-1.301
			c0.206-0.512,0.79-0.761,1.301-0.553l62,25c0.512,0.207,0.76,0.789,0.553,1.301C82.771,63.764,82.396,64,82,64z"/>
	</g>
	<g>
		<path fill="#296CFC" d="M365,164.662h-95.968c-1.654,0-3-1.346-3-3V21.182c0-1.654,1.346-3,3-3H365c1.654,0,3,1.346,3,3v140.48
			C368,163.316,366.654,164.662,365,164.662z M269.032,20.182c-0.552,0-1,0.449-1,1v140.48c0,0.552,0.448,1,1,1H365
			c0.552,0,1-0.448,1-1V21.182c0-0.551-0.448-1-1-1H269.032z"/>
		<path fill="#296CFC" d="M346.824,83.901h-15.002c-1.654,0-3-1.346-3-3V38.927c0-1.654,1.346-3,3-3h15.002c1.654,0,3,1.346,3,3
			V80.9C349.824,82.555,348.479,83.901,346.824,83.901z M331.822,37.927c-0.552,0-1,0.449-1,1v41.974c0,0.551,0.448,1,1,1h15.002
			c0.552,0,1-0.449,1-1.001V38.927c0-0.551-0.448-1-1-1H331.822z"/>
		<path fill="#296CFC" d="M317.37,37.935h-31.758c-0.553,0-1-0.448-1-1s0.447-1,1-1h31.758c0.553,0,1,0.448,1,1
			S317.923,37.935,317.37,37.935z"/>
		<path fill="#296CFC" d="M317.37,75.939h-31.758c-0.553,0-1-0.448-1-1s0.447-1,1-1h31.758c0.553,0,1,0.448,1,1
			S317.923,75.939,317.37,75.939z"/>
		<path fill="#296CFC" d="M308.341,82.549h-22.729c-0.553,0-1-0.448-1-1s0.447-1,1-1h22.729c0.553,0,1,0.448,1,1
			S308.894,82.549,308.341,82.549z"/>
		<path fill="#296CFC" d="M317.37,43.94h-31.758c-0.553,0-1-0.448-1-1s0.447-1,1-1h31.758c0.553,0,1,0.448,1,1
			S317.923,43.94,317.37,43.94z"/>
		<path fill="#296CFC" d="M317.37,49.945h-31.758c-0.553,0-1-0.448-1-1s0.447-1,1-1h31.758c0.553,0,1,0.448,1,1
			S317.923,49.945,317.37,49.945z"/>
		<path fill="#296CFC" d="M317.37,55.95h-31.758c-0.553,0-1-0.448-1-1s0.447-1,1-1h31.758c0.553,0,1,0.448,1,1
			S317.923,55.95,317.37,55.95z"/>
		<path fill="#296CFC" d="M298.427,61.955h-12.814c-0.553,0-1-0.448-1-1s0.447-1,1-1h12.814c0.553,0,1,0.448,1,1
			S298.979,61.955,298.427,61.955z"/>
		<path fill="#296CFC" d="M348.765,99.516h-27.627c-0.553,0-1-0.447-1-1s0.447-1,1-1h27.627c0.553,0,1,0.447,1,1
			S349.317,99.516,348.765,99.516z"/>
		<path fill="#296CFC" d="M348.765,105.521h-27.627c-0.553,0-1-0.447-1-1s0.447-1,1-1h27.627c0.553,0,1,0.447,1,1
			S349.317,105.521,348.765,105.521z"/>
		<path fill="#296CFC" d="M336.431,111.526h-15.293c-0.553,0-1-0.447-1-1s0.447-1,1-1h15.293c0.553,0,1,0.447,1,1
			S336.983,111.526,336.431,111.526z"/>
		<path fill="#296CFC" d="M310.76,99.516h-25.147c-0.553,0-1-0.447-1-1s0.447-1,1-1h25.147c0.553,0,1,0.447,1,1
			S311.313,99.516,310.76,99.516z"/>
		<path fill="#296CFC" d="M310.76,105.521h-25.147c-0.553,0-1-0.447-1-1s0.447-1,1-1h25.147c0.553,0,1,0.447,1,1
			S311.313,105.521,310.76,105.521z"/>
		<path fill="#296CFC" d="M310.819,111.526h-25.207c-0.553,0-1-0.447-1-1s0.447-1,1-1h25.207c0.553,0,1,0.447,1,1
			S311.372,111.526,310.819,111.526z"/>
		<path fill="#296CFC" d="M346.824,148.05h-59.616c-1.654,0-3-1.346-3-3v-20.199c0-1.654,1.346-3,3-3h59.616c1.654,0,3,1.346,3,3
			v20.199C349.824,146.704,348.479,148.05,346.824,148.05z M287.208,123.851c-0.552,0-1,0.448-1,1v20.199c0,0.552,0.448,1,1,1
			h59.616c0.552,0,1-0.448,1-1v-20.199c0-0.552-0.448-1-1-1H287.208z"/>
		<path fill="#296CFC" d="M348,147c-0.111,0-0.224-0.019-0.334-0.058l-62-22c-0.521-0.185-0.793-0.756-0.608-1.276
			c0.185-0.521,0.758-0.794,1.276-0.608l62,22c0.521,0.185,0.793,0.756,0.608,1.276C348.797,146.744,348.411,147,348,147z"/>
	</g>
</g>
</svg>
