<?xml version="1.0" encoding="utf-8"?>
<!-- Generator: Adobe Illustrator 22.0.1, SVG Export Plug-In . SVG Version: 6.00 Build 0)  -->
<svg version="1.1" id="Layer_1" xmlns="http://www.w3.org/2000/svg" xmlns:xlink="http://www.w3.org/1999/xlink" x="0px" y="0px"
	 viewBox="0 0 326.274 229.354" enable-background="new 0 0 326.274 229.354" xml:space="preserve">
<g>
	<path fill="#00ACEE" d="M74.958,70.06c-0.552,0-1-0.448-1-1V57.682c0-0.552,0.448-1,1-1s1,0.448,1,1V69.06
		C75.958,69.612,75.51,70.06,74.958,70.06z"/>
	<path fill="#296CFC" d="M283.556,160.189c-0.553,0-1-0.447-1-1V29.217c0-1.529-1.259-2.772-2.807-2.772H133.744
		c-0.552,0-1-0.448-1-1s0.448-1,1-1h146.005c2.65,0,4.807,2.141,4.807,4.772v129.972
		C284.556,159.742,284.108,160.189,283.556,160.189z"/>
	<path fill="#296CFC" d="M325.273,193.324c-0.215,0-0.433-0.069-0.615-0.212l-40.945-32.027H104.299c-0.552,0-1-0.447-1-1
		s0.448-1,1-1h179.759c0.224,0,0.44,0.075,0.616,0.212l41.217,32.239c0.435,0.341,0.512,0.969,0.172,1.404
		C325.865,193.192,325.571,193.324,325.273,193.324z"/>
	<path opacity="0.2" fill="#296CFC" d="M274.073,114.572c-0.553,0-1-0.448-1-1V35.867l-119.603,0.06c-0.552,0-1-0.448-1-1
		s0.448-1,1-1h119.643c1.081,0,1.96,0.87,1.96,1.94v77.705C275.073,114.124,274.626,114.572,274.073,114.572z"/>
	<g>
		<g>
			<path fill="#296CFC" d="M282.408,171.716h-4.82c-0.553,0-1-0.447-1-1s0.447-1,1-1h4.82c0.553,0,1,0.447,1,1
				S282.961,171.716,282.408,171.716z"/>
			<path fill="#296CFC" d="M271.312,171.716h-5.86c-0.553,0-1-0.447-1-1s0.447-1,1-1h5.86c0.553,0,1,0.447,1,1
				S271.864,171.716,271.312,171.716z M261.544,171.716h-5.86c-0.553,0-1-0.447-1-1s0.447-1,1-1h5.86c0.553,0,1,0.447,1,1
				S262.097,171.716,261.544,171.716z M251.776,171.716h-5.86c-0.553,0-1-0.447-1-1s0.447-1,1-1h5.86c0.553,0,1,0.447,1,1
				S252.329,171.716,251.776,171.716z M242.009,171.716h-5.86c-0.553,0-1-0.447-1-1s0.447-1,1-1h5.86c0.553,0,1,0.447,1,1
				S242.562,171.716,242.009,171.716z M232.241,171.716h-5.86c-0.553,0-1-0.447-1-1s0.447-1,1-1h5.86c0.553,0,1,0.447,1,1
				S232.794,171.716,232.241,171.716z M222.474,171.716h-5.86c-0.553,0-1-0.447-1-1s0.447-1,1-1h5.86c0.553,0,1,0.447,1,1
				S223.026,171.716,222.474,171.716z M212.706,171.716h-5.86c-0.553,0-1-0.447-1-1s0.447-1,1-1h5.86c0.553,0,1,0.447,1,1
				S213.259,171.716,212.706,171.716z M202.939,171.716h-5.861c-0.553,0-1-0.447-1-1s0.447-1,1-1h5.861c0.553,0,1,0.447,1,1
				S203.492,171.716,202.939,171.716z M193.172,171.716h-5.861c-0.553,0-1-0.447-1-1s0.447-1,1-1h5.861c0.553,0,1,0.447,1,1
				S193.725,171.716,193.172,171.716z M183.404,171.716h-5.861c-0.552,0-1-0.447-1-1s0.448-1,1-1h5.861c0.553,0,1,0.447,1,1
				S183.957,171.716,183.404,171.716z M173.637,171.716h-5.861c-0.552,0-1-0.447-1-1s0.448-1,1-1h5.861c0.552,0,1,0.447,1,1
				S174.189,171.716,173.637,171.716z M163.869,171.716h-5.861c-0.552,0-1-0.447-1-1s0.448-1,1-1h5.861c0.552,0,1,0.447,1,1
				S164.421,171.716,163.869,171.716z M154.102,171.716h-5.86c-0.552,0-1-0.447-1-1s0.448-1,1-1h5.86c0.552,0,1,0.447,1,1
				S154.654,171.716,154.102,171.716z M144.334,171.716h-5.86c-0.552,0-1-0.447-1-1s0.448-1,1-1h5.86c0.552,0,1,0.447,1,1
				S144.886,171.716,144.334,171.716z M134.566,171.716h-5.86c-0.552,0-1-0.447-1-1s0.448-1,1-1h5.86c0.552,0,1,0.447,1,1
				S135.119,171.716,134.566,171.716z M124.799,171.716h-5.86c-0.552,0-1-0.447-1-1s0.448-1,1-1h5.86c0.552,0,1,0.447,1,1
				S125.351,171.716,124.799,171.716z"/>
			<path fill="#296CFC" d="M114.386,171.716h-4.82c-0.552,0-1-0.447-1-1s0.448-1,1-1h4.82c0.552,0,1,0.447,1,1
				S114.938,171.716,114.386,171.716z"/>
		</g>
	</g>
	<g>
		<g>
			<path fill="#296CFC" d="M290.353,182.874h-4.819c-0.553,0-1-0.447-1-1s0.447-1,1-1h4.819c0.553,0,1,0.447,1,1
				S290.905,182.874,290.353,182.874z"/>
			<path fill="#296CFC" d="M278.914,182.874h-6.18c-0.553,0-1-0.447-1-1s0.447-1,1-1h6.18c0.553,0,1,0.447,1,1
				S279.467,182.874,278.914,182.874z M268.614,182.874h-6.18c-0.553,0-1-0.447-1-1s0.447-1,1-1h6.18c0.553,0,1,0.447,1,1
				S269.167,182.874,268.614,182.874z M258.314,182.874h-6.18c-0.553,0-1-0.447-1-1s0.447-1,1-1h6.18c0.553,0,1,0.447,1,1
				S258.867,182.874,258.314,182.874z M248.015,182.874h-6.18c-0.553,0-1-0.447-1-1s0.447-1,1-1h6.18c0.553,0,1,0.447,1,1
				S248.567,182.874,248.015,182.874z M237.715,182.874h-6.18c-0.553,0-1-0.447-1-1s0.447-1,1-1h6.18c0.553,0,1,0.447,1,1
				S238.268,182.874,237.715,182.874z M227.416,182.874h-6.181c-0.553,0-1-0.447-1-1s0.447-1,1-1h6.181c0.553,0,1,0.447,1,1
				S227.969,182.874,227.416,182.874z M217.116,182.874h-6.18c-0.553,0-1-0.447-1-1s0.447-1,1-1h6.18c0.553,0,1,0.447,1,1
				S217.669,182.874,217.116,182.874z M206.816,182.874h-6.18c-0.553,0-1-0.447-1-1s0.447-1,1-1h6.18c0.553,0,1,0.447,1,1
				S207.369,182.874,206.816,182.874z M196.517,182.874h-6.18c-0.553,0-1-0.447-1-1s0.447-1,1-1h6.18c0.553,0,1,0.447,1,1
				S197.069,182.874,196.517,182.874z M186.217,182.874h-6.18c-0.552,0-1-0.447-1-1s0.448-1,1-1h6.18c0.553,0,1,0.447,1,1
				S186.77,182.874,186.217,182.874z M175.917,182.874h-6.18c-0.552,0-1-0.447-1-1s0.448-1,1-1h6.18c0.552,0,1,0.447,1,1
				S176.469,182.874,175.917,182.874z M165.617,182.874h-6.18c-0.552,0-1-0.447-1-1s0.448-1,1-1h6.18c0.552,0,1,0.447,1,1
				S166.169,182.874,165.617,182.874z M155.318,182.874h-6.18c-0.552,0-1-0.447-1-1s0.448-1,1-1h6.18c0.552,0,1,0.447,1,1
				S155.87,182.874,155.318,182.874z M145.018,182.874h-6.18c-0.552,0-1-0.447-1-1s0.448-1,1-1h6.18c0.552,0,1,0.447,1,1
				S145.57,182.874,145.018,182.874z M134.718,182.874h-6.18c-0.552,0-1-0.447-1-1s0.448-1,1-1h6.18c0.552,0,1,0.447,1,1
				S135.271,182.874,134.718,182.874z M124.418,182.874h-6.18c-0.552,0-1-0.447-1-1s0.448-1,1-1h6.18c0.552,0,1,0.447,1,1
				S124.971,182.874,124.418,182.874z"/>
			<path fill="#296CFC" d="M113.436,182.874h-4.82c-0.552,0-1-0.447-1-1s0.448-1,1-1h4.82c0.552,0,1,0.447,1,1
				S113.988,182.874,113.436,182.874z"/>
		</g>
	</g>
	<path fill="#296CFC" d="M321.494,198.759H104.351c-0.552,0-1-0.447-1-1s0.448-1,1-1h217.143c1.604,0,2.581-0.47,2.78-0.7v-2.735
		H103.875c-0.552,0-1-0.447-1-1s0.448-1,1-1h221.399c0.553,0,1,0.447,1,1v3.813C326.274,197.939,323.797,198.759,321.494,198.759z"
		/>
	<path fill="#296CFC" d="M99.403,229.354H5c-2.757,0-5-2.243-5-5V73.06c0-2.757,2.243-5,5-5h94.403c2.757,0,5,2.243,5,5v151.294
		C104.403,227.111,102.16,229.354,99.403,229.354z M5,70.06c-1.654,0-3,1.346-3,3v151.294c0,1.654,1.346,3,3,3h94.403
		c1.654,0,3-1.346,3-3V73.06c0-1.654-1.346-3-3-3H5z"/>
	<path fill="#296CFC" d="M50.841,221.769c-1.893,0-3.433-1.54-3.433-3.434c0-1.893,1.54-3.433,3.433-3.433s3.433,1.54,3.433,3.433
		C54.274,220.229,52.734,221.769,50.841,221.769z M50.841,216.903c-0.79,0-1.433,0.643-1.433,1.433s0.643,1.434,1.433,1.434
		s1.433-0.644,1.433-1.434S51.631,216.903,50.841,216.903z"/>
	<path opacity="0.2" fill="#296CFC" d="M82.542,211.259H10.215c-1.622,0-2.94-1.331-2.94-2.968V84.303
		c0-1.636,1.319-2.968,2.94-2.968h15.067c0.552,0,1,0.448,1,1s-0.448,1-1,1H10.215c-0.519,0-0.94,0.434-0.94,0.968v123.988
		c0,0.533,0.422,0.968,0.94,0.968h72.328c0.552,0,1,0.447,1,1S83.095,211.259,82.542,211.259z"/>
	<path fill="#296CFC" d="M59.786,77.646H46.512c-0.552,0-1-0.448-1-1s0.448-1,1-1h13.274c0.552,0,1,0.448,1,1
		S60.338,77.646,59.786,77.646z"/>
	<path fill="#296CFC" d="M129.744,60.786H29.652c-2.757,0-5-2.243-5-5V5c0-2.757,2.243-5,5-5h100.092c2.757,0,5,2.243,5,5v50.786
		C134.744,58.543,132.501,60.786,129.744,60.786z M29.652,2c-1.654,0-3,1.346-3,3v50.786c0,1.654,1.346,3,3,3h100.092
		c1.654,0,3-1.346,3-3V5c0-1.654-1.346-3-3-3H29.652z"/>
	<path fill="#296CFC" d="M126.159,34.238c-0.552,0-1-0.448-1-1v-7.586c0-0.552,0.448-1,1-1s1,0.448,1,1v7.586
		C127.159,33.791,126.711,34.238,126.159,34.238z"/>
	<path fill="#296CFC" d="M40.243,37.368c-2.178,0-3.95-1.772-3.95-3.95v-7.375c0-2.178,1.772-3.95,3.95-3.95s3.95,1.772,3.95,3.95
		v7.375C44.193,35.596,42.421,37.368,40.243,37.368z M40.243,24.094c-1.075,0-1.95,0.875-1.95,1.95v7.375
		c0,1.075,0.875,1.95,1.95,1.95s1.95-0.875,1.95-1.95v-7.375C42.193,24.969,41.318,24.094,40.243,24.094z"/>
	
		<linearGradient id="SVGID_1_" gradientUnits="userSpaceOnUse" x1="3.9351" y1="72.0066" x2="-128.1073" y2="204.049" gradientTransform="matrix(-1 0 0 -1 81.8358 234.5186)">
		<stop  offset="0" style="stop-color:#1D0561"/>
		<stop  offset="0.0454" style="stop-color:#210964"/>
		<stop  offset="0.4411" style="stop-color:#402977"/>
		<stop  offset="0.7734" style="stop-color:#523D84"/>
		<stop  offset="1" style="stop-color:#594488"/>
	</linearGradient>
	<path fill="url(#SVGID_1_)" d="M64.924,148.707H222.92c1.105,0,2-0.895,2-2V46.275c0-1.105-0.895-2-2-2H64.924
		c-1.105,0-2,0.895-2,2v100.432C62.924,147.811,63.819,148.707,64.924,148.707z"/>
	<path fill="#FFFFFF" d="M131.166,94.423H76.958c-1.654,0-3-1.346-3-3V61.289c0-1.654,1.346-3,3-3h54.208c1.654,0,3,1.346,3,3
		v30.134C134.166,93.077,132.82,94.423,131.166,94.423z M76.958,60.289c-0.551,0-1,0.449-1,1v30.134c0,0.551,0.449,1,1,1h54.208
		c0.551,0,1-0.449,1-1V61.289c0-0.551-0.449-1-1-1H76.958z"/>
	<path fill="#FFFFFF" d="M76.447,93.461c-0.349,0-0.688-0.183-0.872-0.508c-0.271-0.481-0.102-1.091,0.379-1.363l55.736-31.457
		c0.482-0.27,1.091-0.102,1.363,0.379c0.271,0.481,0.102,1.091-0.379,1.363L76.938,93.333C76.782,93.42,76.613,93.461,76.447,93.461
		z"/>
	<path fill="#FFFFFF" d="M133.784,109.058H75.576c-0.552,0-1-0.448-1-1s0.448-1,1-1h58.208c0.552,0,1,0.448,1,1
		S134.336,109.058,133.784,109.058z"/>
	<path fill="#FFFFFF" d="M119.932,121.866H75.576c-0.552,0-1-0.447-1-1s0.448-1,1-1h44.355c0.552,0,1,0.447,1,1
		S120.484,121.866,119.932,121.866z"/>
	<path fill="#FFFFFF" d="M210.693,133.918h-54.208c-1.654,0-3-1.346-3-3v-22.467c0-1.654,1.346-3,3-3h54.208c1.654,0,3,1.346,3,3
		v22.467C213.693,132.573,212.348,133.918,210.693,133.918z M156.485,107.451c-0.551,0-1,0.449-1,1v22.467c0,0.552,0.449,1,1,1
		h54.208c0.552,0,1-0.448,1-1v-22.467c0-0.551-0.448-1-1-1H156.485z"/>
	<path fill="#FFFFFF" d="M155.33,133.532c-0.381,0-0.745-0.219-0.912-0.589c-0.227-0.504-0.003-1.096,0.5-1.323l56.334-25.398
		c0.507-0.229,1.097-0.002,1.323,0.5c0.227,0.503,0.002,1.096-0.501,1.323l-56.334,25.399
		C155.607,133.503,155.467,133.532,155.33,133.532z"/>
	<g>
		<path fill="#FFFFFF" d="M212.063,60.754h-57.577c-0.552,0-1-0.448-1-1s0.448-1,1-1h57.577c0.553,0,1,0.448,1,1
			S212.615,60.754,212.063,60.754z"/>
		<path fill="#FFFFFF" d="M212.063,74.666h-57.577c-0.552,0-1-0.448-1-1s0.448-1,1-1h57.577c0.553,0,1,0.448,1,1
			S212.615,74.666,212.063,74.666z"/>
		<path fill="#FFFFFF" d="M212.063,88.576h-57.577c-0.552,0-1-0.448-1-1s0.448-1,1-1h57.577c0.553,0,1,0.448,1,1
			S212.615,88.576,212.063,88.576z"/>
	</g>
</g>
</svg>
