<?xml version="1.0" encoding="utf-8"?>
<!-- Generator: Adobe Illustrator 22.0.1, SVG Export Plug-In . SVG Version: 6.00 Build 0)  -->
<svg version="1.1" id="_x3C_Layer_x3E_" xmlns="http://www.w3.org/2000/svg" xmlns:xlink="http://www.w3.org/1999/xlink" x="0px"
	 y="0px" viewBox="0 0 85.522 98.238" enable-background="new 0 0 85.522 98.238" xml:space="preserve">
<g>
	<path fill-rule="evenodd" clip-rule="evenodd" fill="#333333" d="M0.549,86.393V78.87h3.203l0.485,0.051l0.485,0.095l0.389,0.144
		l0.341,0.243l0.293,0.295l0.192,0.336l0.096,0.389l0.048,0.437l-0.048,0.192l-0.048,0.246L5.937,81.49l-0.096,0.244l-0.149,0.144
		l-0.144,0.197l-0.144,0.144l-0.197,0.096l0.341,0.195l0.197,0.146l0.192,0.192l0.144,0.198l0.144,0.287l0.048,0.294l0.053,0.388
		l-0.053,0.534L6.13,85.034l-0.192,0.389l-0.293,0.338l-0.389,0.29l-0.437,0.195l-0.533,0.099l-0.581,0.047H0.549L0.549,86.393z
		 M1.908,85.129L1.908,85.129h1.797h0.24l0.245-0.047l0.192-0.097l0.149-0.149l0.144-0.143l0.096-0.192l0.048-0.195l0.048-0.243
		l-0.048-0.245l-0.048-0.24l-0.096-0.194l-0.101-0.146l-0.192-0.097L4.19,83.046l-0.197-0.049H3.705H1.908V85.129L1.908,85.129z
		 M1.908,81.783L1.908,81.783h1.797l0.24-0.049l0.197-0.05l0.192-0.096l0.096-0.098l0.101-0.097l0.043-0.143l0.053-0.293
		l-0.053-0.193l-0.043-0.149l-0.048-0.145l-0.101-0.095l-0.144-0.097l-0.192-0.05l-0.437-0.05H1.908V81.783z"/>
	<path fill-rule="evenodd" clip-rule="evenodd" fill="#333333" d="M3.752,78.862H0.538v7.539h3.166l0.581-0.048l0.538-0.099
		l0.437-0.195l0.389-0.29l0.293-0.346l0.197-0.387l0.144-0.487l0.048-0.536l-0.048-0.389l-0.048-0.291v-0.002L6.092,83.04
		l-0.149-0.197l-0.192-0.195H5.746l-0.192-0.146l-0.325-0.187l0.176-0.09H5.41l0.144-0.146l0.149-0.195l0.144-0.144v-0.002
		l0.101-0.245l0.044-0.194l0.053-0.243l0.048-0.195l-0.048-0.441l-0.097-0.387L5.751,79.69l-0.293-0.296L5.117,79.15l-0.389-0.144
		L4.237,78.91L3.752,78.862L3.752,78.862z M0.549,86.39L0.549,86.39v-7.52h3.203l0.485,0.051l0.485,0.095l0.389,0.144l0.341,0.245
		l0.288,0.291l0.197,0.339l0.096,0.389l0.048,0.437l-0.048,0.192l-0.048,0.246L5.937,81.49l-0.096,0.242l-0.143,0.146l-0.149,0.195
		l-0.144,0.146l-0.197,0.096l0.341,0.195l0.192,0.144l0.197,0.194l0.144,0.198l0.144,0.287l0.053,0.294l0.048,0.386l-0.048,0.536
		L6.13,85.031l-0.192,0.392l-0.293,0.335l-0.389,0.293l-0.437,0.195l-0.533,0.099L3.705,86.39H0.549L0.549,86.39z M3.603,80.179
		l0.442,0.05l0.192,0.05l0.144,0.093l0.101,0.098l0.042,0.145l0.054,0.149l0.048,0.193L4.579,81.25l-0.054,0.143L4.429,81.49
		l-0.096,0.098l-0.192,0.093l-0.197,0.05l-0.24,0.051H1.908v-1.604H3.603L3.603,80.179L3.603,80.179z M1.914,81.772L1.914,81.772
		v-1.583h1.689l0.437,0.048l0.192,0.048l0.144,0.096l0.096,0.096L4.52,80.62l0.048,0.144l0.048,0.193l-0.048,0.29L4.52,81.388
		l-0.096,0.096L4.328,81.58l-0.192,0.096l-0.192,0.048l-0.24,0.048H1.914L1.914,81.772z M3.998,82.995l0.192,0.051l0.192,0.095
		l0.197,0.097l0.096,0.143l0.096,0.197l0.048,0.24l0.048,0.245l-0.048,0.243l-0.048,0.195l-0.096,0.192l-0.15,0.143l-0.143,0.149
		L4.19,85.082l-0.245,0.047h-0.24H1.908v-2.134h1.797H3.998L3.998,82.995L3.998,82.995z M1.914,85.121L1.914,85.121v-2.119h1.791
		h0.288l0.192,0.051l0.197,0.093l0.192,0.096l0.096,0.144l0.09,0.192l0.054,0.245l0.048,0.24l-0.048,0.239L4.76,84.495l-0.09,0.192
		L4.52,84.832l-0.144,0.144l-0.192,0.096l-0.24,0.05h-0.24H1.914z"/>
	<path fill-rule="evenodd" clip-rule="evenodd" fill="#333333" d="M3.752,78.872H0.549v7.52h3.156l0.581-0.05l0.533-0.096
		l0.437-0.195l0.389-0.29l0.293-0.341l0.192-0.386l0.144-0.485l0.053-0.534l-0.053-0.391l-0.048-0.291l-0.144-0.29l-0.144-0.195
		l-0.192-0.192l-0.197-0.143l-0.341-0.198l0.197-0.096l0.144-0.144l0.144-0.197l0.149-0.144l0.096-0.244l0.048-0.192l0.048-0.246
		l0.048-0.192l-0.048-0.437l-0.096-0.389l-0.192-0.341l-0.293-0.291l-0.341-0.24l-0.389-0.147l-0.485-0.095L3.752,78.872
		L3.752,78.872z M0.554,86.382L0.554,86.382v-7.505h3.198l0.485,0.051l0.485,0.093l0.384,0.147l0.341,0.242l0.288,0.288l0.192,0.341
		l0.096,0.384l0.053,0.437l-0.053,0.192l-0.048,0.24L5.927,81.49l-0.096,0.24l-0.144,0.144l-0.144,0.192l-0.144,0.146l-0.197,0.094
		l-0.011,0.01l0.352,0.202l0.192,0.145l0.192,0.192l0.149,0.194l0.144,0.29l0.048,0.289l0.048,0.388l-0.048,0.534l-0.144,0.479
		l-0.197,0.39l-0.288,0.336L5.25,86.047l-0.432,0.189l-0.533,0.099l-0.581,0.048H0.554L0.554,86.382z M3.609,80.173l0.437,0.045
		l0.197,0.051l0.149,0.096v0.006l0.096,0.096l0.048,0.149l0.053,0.146l0.048,0.195L4.589,81.25l-0.053,0.149l-0.101,0.095
		l-0.096,0.101l-0.192,0.096H4.141L3.95,81.74l-0.245,0.051H1.898v-1.618H3.609L3.609,80.173L3.609,80.173z M1.908,81.783
		L1.908,81.783v-1.602h1.701l0.437,0.045l0.192,0.048l0.144,0.101l0.101,0.095l0.048,0.145l0.043,0.149l0.053,0.193L4.573,81.25
		l-0.043,0.143L4.429,81.49l-0.096,0.101l-0.192,0.093l-0.197,0.05l-0.24,0.049H1.908L1.908,81.783z M3.998,82.987l0.192,0.048
		h0.005l0.192,0.098l0.197,0.098v0.003l0.096,0.144l0.101,0.197l0.048,0.243l0.048,0.245l-0.048,0.243l-0.048,0.197L4.68,84.698
		l-0.144,0.147l-0.15,0.146L4.19,85.09l-0.24,0.05H3.944h-0.24H1.898v-2.153h1.807H3.998L3.998,82.987L3.998,82.987z M1.908,85.129
		L1.908,85.129v-2.137h1.797h0.288l0.197,0.051l0.192,0.098l0.192,0.097l0.101,0.146l0.096,0.194l0.048,0.243l0.048,0.242
		l-0.048,0.243l-0.048,0.192l-0.096,0.195l-0.144,0.146l-0.149,0.144L4.19,85.082l-0.245,0.047h-0.24H1.908z"/>
	<polygon fill-rule="evenodd" clip-rule="evenodd" fill="#333333" points="9.045,86.489 8.752,86.44 8.512,86.39 8.267,86.246 
		8.075,86.15 7.926,85.956 7.638,85.615 7.441,85.228 7.345,84.788 7.297,84.404 7.297,84.013 7.297,80.909 8.656,80.909 
		8.656,83.914 8.656,84.255 8.704,84.549 8.8,84.741 8.901,84.938 9.045,85.082 9.189,85.177 9.434,85.278 9.674,85.278 
		9.871,85.278 10.116,85.177 10.26,85.082 10.404,84.938 10.553,84.741 10.596,84.549 10.644,84.255 10.697,83.965 10.697,80.909 
		12.003,80.909 12.003,86.39 10.697,86.39 10.697,85.956 10.404,86.196 10.116,86.39 9.722,86.489 9.338,86.537 	"/>
	<path fill-rule="evenodd" clip-rule="evenodd" fill="#333333" d="M12.014,80.898h-1.328v3.065l-0.048,0.292l-0.048,0.289
		l-0.048,0.194l-0.149,0.192l-0.144,0.144l-0.139,0.096l-0.24,0.096H9.674h-0.24l-0.24-0.096l-0.144-0.096L8.906,84.93l-0.096-0.192
		l-0.096-0.194l-0.053-0.289v-0.338v-3.019H7.286v3.115v0.389l0.053,0.386l0.091,0.443l0.197,0.388l0.293,0.341l0.144,0.192
		l0.005,0.006l0.192,0.096l0.245,0.147l0.245,0.048l0.293,0.05l0.288,0.045h0.006l0.389-0.045l0.389-0.098l0.293-0.197l0.277-0.229
		v0.418v0.008h1.328V80.898L12.014,80.898z M9.434,85.276L9.434,85.276h0.24h0.197l0.24-0.099l0.144-0.095l0.149-0.147l0.144-0.195
		l0.048-0.192l0.053-0.294l0.048-0.287v-3.059h1.311v5.484h-1.311v-0.437l-0.293,0.242l-0.293,0.195l-0.384,0.096l-0.395,0.05
		l-0.288-0.05L8.752,86.44l-0.24-0.048l-0.245-0.149l-0.192-0.096l-0.149-0.192l-0.288-0.341l-0.197-0.389l-0.096-0.438
		l-0.048-0.386v-0.389v-3.104h1.359v3.008v0.338l0.048,0.294L8.8,84.741l0.096,0.195l0.149,0.147l0.144,0.095L9.434,85.276z"/>
	<path fill-rule="evenodd" clip-rule="evenodd" fill="#333333" d="M12.003,80.909h-1.311v3.059l-0.048,0.287l-0.043,0.294
		l-0.053,0.192l-0.144,0.195l-0.144,0.147l-0.149,0.095l-0.24,0.099H9.679H9.434l-0.245-0.099l-0.144-0.095l-0.144-0.147L8.8,84.741
		l-0.096-0.192l-0.048-0.294v-0.338v-3.008H7.297v3.107v0.387l0.048,0.386l0.096,0.438l0.197,0.389l0.288,0.341l0.144,0.192
		l0.197,0.096l0.245,0.149l0.24,0.048l0.293,0.049l0.293,0.05l0.384-0.05l0.389-0.096l0.293-0.195l0.288-0.242v0.437h1.311V80.909
		L12.003,80.909z M9.429,85.284L9.429,85.284h0.251h0.192l0.245-0.098l0.149-0.099l0.144-0.146l0.143-0.195h0.006l0.048-0.196
		l0.048-0.291l0.048-0.29v-3.049h1.295v5.464h-1.295v-0.426v-0.022l-0.304,0.256l-0.293,0.192l-0.384,0.096l-0.384,0.05l-0.293-0.05
		L8.752,86.43l-0.24-0.048l-0.24-0.144L8.08,86.142L7.936,85.95l-0.293-0.338l-0.192-0.386l-0.096-0.438l-0.048-0.386v-0.387v-3.096
		h1.337v2.998v0.338v0.003l0.053,0.291l0.096,0.196L8.89,84.94l0.149,0.146l0.144,0.099L9.429,85.284L9.429,85.284z M9.338,86.537
		L9.338,86.537v-0.009V86.537z"/>
	<polygon fill-rule="evenodd" clip-rule="evenodd" fill="#333333" points="30.018,86.393 30.018,83.384 30.018,83.043 29.97,82.8 
		29.874,82.558 29.778,82.364 29.629,82.219 29.485,82.121 29.24,82.071 29.048,82.025 28.803,82.071 28.563,82.121 28.419,82.219 
		28.27,82.364 28.126,82.558 28.025,82.8 27.982,83.043 27.982,83.384 27.982,86.393 26.617,86.393 26.617,80.909 27.982,80.909 
		27.982,81.393 28.27,81.103 28.611,80.957 28.952,80.812 29.341,80.812 29.825,80.812 30.215,80.957 30.556,81.149 30.844,81.442 
		31.084,81.783 31.233,82.219 31.329,82.702 31.377,83.286 31.377,86.393 	"/>
	<polygon fill-rule="evenodd" clip-rule="evenodd" fill="#333333" points="29.825,80.802 29.341,80.802 28.952,80.802 
		28.606,80.948 28.264,81.095 27.987,81.372 27.987,80.909 27.987,80.898 26.612,80.898 26.612,86.401 27.987,86.401 27.987,83.381 
		27.976,83.381 27.976,86.393 26.617,86.393 26.617,80.909 27.976,80.909 27.976,81.393 28.27,81.101 28.611,80.957 28.952,80.81 
		29.341,80.81 29.821,80.81 30.215,80.957 30.551,81.151 30.844,81.442 31.088,81.783 31.233,82.219 31.329,82.705 31.377,83.286 
		31.377,86.393 30.018,86.393 30.018,83.381 30.018,83.04 29.97,82.8 29.874,82.56 29.778,82.364 29.629,82.219 29.485,82.123 
		29.24,82.073 29.048,82.023 28.803,82.073 28.563,82.123 28.414,82.219 28.27,82.364 28.126,82.56 28.03,82.8 27.976,83.04 
		27.976,83.381 27.987,83.381 27.987,83.046 28.035,82.8 28.136,82.56 28.28,82.368 28.424,82.225 28.563,82.129 28.808,82.081 
		29.048,82.033 29.24,82.081 29.48,82.129 29.623,82.225 29.767,82.368 29.863,82.56 29.965,82.8 30.007,83.046 30.007,83.381 
		30.007,86.401 31.387,86.401 31.387,83.286 31.339,82.699 31.244,82.215 31.094,81.777 30.849,81.435 30.556,81.143 30.215,80.948 
			"/>
	<polygon fill-rule="evenodd" clip-rule="evenodd" fill="#333333" points="29.825,80.81 29.341,80.81 28.952,80.81 28.611,80.957 
		28.27,81.103 27.982,81.393 27.982,80.909 26.623,80.909 26.623,86.393 27.982,86.393 27.982,83.384 27.982,83.381 27.971,83.381 
		27.971,86.382 26.628,86.382 26.628,80.917 27.971,80.917 27.971,81.393 27.971,81.415 28.275,81.111 28.616,80.967 28.952,80.818 
		29.341,80.818 29.821,80.818 30.21,80.962 30.546,81.159 30.839,81.449 31.078,81.785 31.222,82.219 31.318,82.705 31.371,83.286 
		31.371,86.382 30.029,86.382 30.029,83.381 30.029,83.043 29.981,82.796 29.974,82.796 29.879,82.556 29.783,82.361 29.783,82.358 
		29.633,82.209 29.49,82.113 29.245,82.062 29.048,82.014 28.803,82.062 28.563,82.113 28.557,82.113 28.408,82.209 28.264,82.358 
		28.121,82.55 28.115,82.55 28.019,82.796 27.971,83.04 27.971,83.043 27.971,83.381 27.982,83.381 27.982,83.043 28.03,82.8 
		28.126,82.556 28.27,82.364 28.419,82.219 28.563,82.121 28.808,82.075 29.048,82.025 29.245,82.075 29.485,82.121 29.629,82.219 
		29.773,82.364 29.874,82.556 29.97,82.8 30.018,83.043 30.018,83.384 30.018,86.393 31.377,86.393 31.377,83.286 31.329,82.702 
		31.233,82.219 31.088,81.783 30.844,81.444 30.551,81.151 30.21,80.957 	"/>
	<rect x="13.272" y="80.909" fill-rule="evenodd" clip-rule="evenodd" fill="#333333" width="1.354" height="5.482"/>
	<path fill-rule="evenodd" clip-rule="evenodd" fill="#333333" d="M13.266,80.909h1.359v5.482h-1.359V80.909L13.266,80.909z
		 M14.625,80.909L14.625,80.909H14.62H14.625L14.625,80.909z M14.625,80.898L14.625,80.898h-1.364v5.503h1.374v-5.503H14.625z"/>
	<path fill-rule="evenodd" clip-rule="evenodd" fill="#333333" d="M13.277,80.913h1.343v5.469h-1.343V80.913L13.277,80.913z
		 M13.272,86.39L13.272,86.39h1.354v-5.482h-1.354V86.39z"/>
	<polygon fill-rule="evenodd" clip-rule="evenodd" fill="#333333" points="15.793,79.309 15.793,86.393 17.152,86.393 
		17.152,78.627 	"/>
	<path fill-rule="evenodd" clip-rule="evenodd" fill="#333333" d="M15.793,79.309l1.359-0.682v7.763h-1.359V79.309L15.793,79.309z
		 M15.782,79.299L15.782,79.299v7.102h0.011h1.369v-7.79L15.782,79.299z"/>
	<path fill-rule="evenodd" clip-rule="evenodd" fill="#333333" d="M15.793,86.393h0.011H15.793L15.793,86.393z M15.803,79.315
		L15.803,79.315l1.343-0.672v7.739h-1.343V79.315L15.803,79.315z M15.793,79.309L15.793,79.309v7.084h1.359v-7.766L15.793,79.309z"
		/>
	<path fill-rule="evenodd" clip-rule="evenodd" fill="#333333" d="M19.774,86.489l-0.437-0.147l-0.341-0.243l-0.341-0.338
		l-0.24-0.437l-0.144-0.485l-0.101-0.584l-0.048-0.628l0.048-0.632l0.101-0.583l0.192-0.437l0.245-0.435l0.288-0.29l0.389-0.246
		l0.389-0.144l0.485-0.048H20.6l0.336,0.097l0.293,0.143l0.245,0.246v-1.989l1.359-0.682v7.766h-1.359v-0.392l-0.293,0.195
		l-0.288,0.197L20.6,86.489l-0.341,0.048L19.774,86.489L19.774,86.489z M20.355,82.071L20.355,82.071l-0.192,0.05l-0.192,0.051
		l-0.149,0.143l-0.144,0.192L19.577,82.8l-0.043,0.339l-0.048,0.437l0.048,0.485l0.043,0.386l0.101,0.294l0.144,0.195l0.192,0.147
		l0.149,0.095l0.192,0.099h0.197l0.293-0.05l0.288-0.144l0.197-0.147l0.144-0.195v-2.183l-0.144-0.146l-0.197-0.195l-0.288-0.146
		l-0.341-0.048L20.355,82.071z"/>
	<path fill-rule="evenodd" clip-rule="evenodd" fill="#333333" d="M22.844,78.611l-1.381,0.688v1.975l-0.229-0.227l-0.293-0.149
		L20.6,80.802h-0.341l-0.485,0.048L19.38,81l-0.389,0.239l-0.293,0.293l-0.245,0.44l-0.192,0.44l-0.096,0.583l-0.054,0.632
		l0.054,0.631l0.096,0.581l0.144,0.487l0.246,0.442l0.341,0.336l0.341,0.245l0.442,0.149l0.485,0.045l0.341-0.045l0.293-0.098
		v-0.003l0.293-0.194l0.277-0.184v0.37v0.011h1.381V78.611L22.844,78.611z M21.474,81.295L21.474,81.295v-1.985l1.359-0.682v7.766
		h-1.359v-0.389l-0.293,0.192l-0.288,0.197L20.6,86.489l-0.341,0.048l-0.485-0.048l-0.437-0.144l-0.341-0.246l-0.341-0.341
		l-0.24-0.436l-0.144-0.482l-0.096-0.584l-0.053-0.628l0.053-0.632l0.096-0.583l0.192-0.437l0.245-0.438l0.288-0.293l0.389-0.239
		l0.389-0.144l0.485-0.048H20.6l0.341,0.097l0.288,0.146L21.474,81.295L21.474,81.295z M20.504,82.023l0.335,0.05l0.293,0.144
		l0.197,0.195l0.144,0.146v2.183l-0.144,0.195l-0.197,0.147l-0.293,0.144l-0.288,0.048h-0.197l-0.192-0.097l-0.143-0.095
		l-0.197-0.147l-0.144-0.195l-0.096-0.294l-0.048-0.384l-0.053-0.487l0.053-0.437l0.048-0.339l0.096-0.293l0.144-0.192l0.149-0.149
		l0.192-0.043l0.192-0.05L20.504,82.023L20.504,82.023L20.504,82.023z M20.36,85.266L20.36,85.266l-0.192-0.096l-0.149-0.096
		l-0.192-0.144l-0.145-0.194l-0.095-0.289l-0.048-0.384l-0.049-0.487l0.049-0.437l0.048-0.339l0.095-0.287l0.145-0.192l0.149-0.145
		l0.186-0.048l0.197-0.048l0.144-0.048l0.335,0.048l0.288,0.144l0.197,0.195l0.138,0.141v2.18l-0.138,0.189l-0.197,0.144
		l-0.288,0.147l-0.288,0.045H20.36z"/>
	<path fill-rule="evenodd" clip-rule="evenodd" fill="#333333" d="M22.833,78.627l-1.359,0.68v1.991l-0.245-0.246l-0.293-0.143
		L20.6,80.81h-0.341l-0.485,0.05l-0.389,0.144l-0.389,0.243l-0.288,0.29l-0.245,0.438l-0.192,0.437l-0.101,0.583l-0.048,0.632
		l0.048,0.628l0.101,0.581l0.144,0.486l0.24,0.436l0.341,0.341l0.341,0.24l0.437,0.149l0.485,0.048l0.341-0.048l0.293-0.099
		l0.288-0.194l0.293-0.192v0.386h1.359V78.627L22.833,78.627z M21.479,81.298L21.479,81.298v-1.985l1.343-0.672v7.742h-1.343v-0.378
		v-0.016l-0.304,0.203l-0.288,0.192l-0.293,0.098l-0.336,0.045l-0.485-0.045l-0.432-0.146l-0.341-0.239l-0.335-0.341l-0.246-0.432
		l-0.143-0.486l-0.096-0.581l-0.048-0.628l0.048-0.632l0.096-0.581l0.197-0.434l0.24-0.438l0.288-0.288l0.389-0.242l0.384-0.147
		l0.485-0.045h0.336l0.341,0.096l0.288,0.144l0.256,0.259V81.298L21.479,81.298z M21.474,81.298L21.474,81.298h0.005H21.474
		L21.474,81.298z M20.504,82.017l0.341,0.045l0.293,0.147v0.006l0.197,0.192l0.143,0.149v2.185v0.005l-0.143,0.197l-0.197,0.144
		l-0.293,0.149l-0.293,0.048h-0.197l-0.197-0.101l-0.15-0.096l-0.192-0.144l-0.149-0.197v-0.005l-0.096-0.288V84.45l-0.048-0.387
		l-0.053-0.485l0.053-0.442l0.048-0.336v-0.005l0.096-0.291l0.149-0.197l0.15-0.146l0.197-0.048l0.192-0.051L20.504,82.017
		L20.504,82.017L20.504,82.017z M20.355,85.274L20.355,85.274l-0.192-0.097l-0.149-0.095l-0.192-0.144l-0.144-0.197l-0.101-0.29
		l-0.043-0.387l-0.048-0.485l0.048-0.437l0.043-0.341l0.101-0.293l0.144-0.194l0.149-0.144l0.192-0.051l0.192-0.047l0.149-0.048
		l0.341,0.048l0.288,0.149l0.197,0.193l0.144,0.144v2.185l-0.144,0.197l-0.197,0.144l-0.288,0.144l-0.293,0.048H20.355z"/>
	<path fill-rule="evenodd" clip-rule="evenodd" fill="#333333" d="M50.75,86.489l-0.34-0.096l-0.293-0.197l-0.24-0.195v0.392h-1.359
		v-6.939l1.359-0.682v2.527l0.24-0.197l0.341-0.192l0.292-0.097h0.341l0.485,0.048l0.389,0.144l0.385,0.246l0.293,0.29l0.244,0.435
		l0.192,0.437l0.097,0.583l0.048,0.632l-0.048,0.628l-0.097,0.584l-0.149,0.485l-0.239,0.437l-0.341,0.338l-0.337,0.243
		l-0.437,0.147l-0.485,0.048L50.75,86.489L50.75,86.489z M50.558,82.071L50.558,82.071l-0.292,0.101l-0.197,0.192l-0.192,0.244
		v2.132l0.143,0.15l0.198,0.192l0.288,0.144l0.143,0.05h0.197l0.244-0.05l0.192-0.049l0.198-0.143l0.143-0.195l0.097-0.243
		l0.048-0.293l0.053-0.335l0.043-0.392l-0.043-0.387l-0.053-0.341l-0.096-0.24l-0.144-0.244l-0.149-0.147l-0.192-0.096l-0.197-0.05
		l-0.144-0.048L50.558,82.071z"/>
	<path fill-rule="evenodd" clip-rule="evenodd" fill="#333333" d="M49.887,78.755l-1.38,0.693v6.953h1.38V86.02l0.224,0.184h0.006
		l0.288,0.194l0.341,0.101l0.341,0.045h0.005l0.485-0.045l0.437-0.149l0.342-0.245l0.341-0.336l0.251-0.442l0.144-0.487l0.096-0.581
		l0.048-0.631l-0.048-0.632l-0.096-0.586l-0.197-0.437l-0.24-0.44l-0.298-0.293L51.966,81l-0.389-0.15l-0.485-0.048H50.75h-0.005
		l-0.288,0.096l-0.341,0.194l-0.23,0.186V78.755L49.887,78.755z M48.518,86.39L48.518,86.39v-6.937l1.359-0.682v2.523l0.24-0.194
		l0.341-0.192l0.292-0.097h0.341l0.485,0.046l0.389,0.146l0.385,0.239l0.293,0.293l0.244,0.438l0.192,0.437l0.097,0.583l0.048,0.632
		l-0.048,0.628l-0.097,0.584l-0.149,0.482l-0.239,0.436l-0.341,0.341l-0.337,0.246l-0.437,0.144l-0.485,0.048l-0.341-0.048
		l-0.34-0.099l-0.293-0.194l-0.24-0.192v0.386H48.518L48.518,86.39z M50.847,82.023l0.144,0.05l0.197,0.05l0.192,0.094l0.149,0.147
		l0.144,0.244l0.096,0.24l0.047,0.341l0.049,0.387l-0.049,0.387l-0.047,0.34l-0.048,0.293l-0.097,0.243l-0.143,0.195l-0.198,0.143
		l-0.192,0.049l-0.244,0.048H50.65l-0.143-0.048l-0.288-0.144l-0.198-0.197l-0.143-0.144v-2.132l0.192-0.244l0.197-0.197
		l0.292-0.093L50.847,82.023v0.01V82.023L50.847,82.023L50.847,82.023z M50.655,85.266L50.655,85.266l-0.144-0.045l-0.287-0.147
		l-0.197-0.194l-0.139-0.144v-2.127l0.187-0.24l0.196-0.192l0.288-0.096l0.289-0.048l0.144,0.048l0.192,0.048l0.192,0.096
		l0.144,0.144l0.144,0.24l0.101,0.24l0.048,0.341l0.048,0.387l-0.048,0.387l-0.048,0.34l-0.053,0.291l-0.096,0.24l-0.144,0.192
		l-0.192,0.144l-0.192,0.051l-0.24,0.045H50.655z"/>
	<path fill-rule="evenodd" clip-rule="evenodd" fill="#333333" d="M49.877,78.771l-1.359,0.68v6.939h1.359v-0.386l0.24,0.192
		l0.293,0.194l0.34,0.099l0.341,0.048l0.485-0.048l0.437-0.149l0.342-0.24l0.336-0.341l0.245-0.436l0.143-0.486l0.097-0.581
		l0.052-0.628l-0.052-0.632l-0.097-0.583l-0.192-0.437l-0.244-0.438l-0.288-0.29l-0.389-0.243l-0.389-0.144l-0.485-0.05v0.011V80.81
		H50.75l-0.292,0.099l-0.341,0.192l-0.24,0.194V78.771L49.877,78.771z M48.522,86.382L48.522,86.382v-6.926l1.344-0.671v2.528
		l0.255-0.202l0.341-0.194l0.288-0.096h0.341l0.48,0.045l0.389,0.144l0.384,0.246l0.293,0.288l0.239,0.435l0.192,0.437l0.096,0.581
		l0.053,0.632l-0.048,0.628l-0.101,0.581l-0.144,0.486l-0.24,0.432l-0.341,0.341l-0.336,0.239l-0.437,0.146l-0.48,0.045
		l-0.341-0.045l-0.335-0.098l-0.294-0.195l-0.239-0.194l-0.016-0.011v0.4H48.522L48.522,86.382z M50.847,82.012l0.005,0.006
		l0.145,0.045l0.196,0.051l0.192,0.096v0.002l0.149,0.147l0.144,0.245l0.101,0.242l0.048,0.344l0.048,0.387l-0.048,0.392
		l-0.048,0.335l-0.053,0.293l-0.09,0.246H51.63l-0.149,0.196l-0.192,0.15l-0.198,0.048l-0.244,0.046H50.65l-0.143-0.046
		l-0.294-0.149h-0.005l-0.192-0.194l-0.149-0.147v-2.142v-0.006l0.197-0.24l0.197-0.197l0.293-0.099l0.294-0.045V82.012
		L50.847,82.012L50.847,82.012z M50.847,82.023L50.847,82.023l0.144,0.05l0.197,0.05l0.192,0.096l0.149,0.145l0.144,0.24
		l0.096,0.244l0.047,0.341l0.054,0.387l-0.054,0.387l-0.047,0.34l-0.048,0.291l-0.097,0.242l-0.149,0.195l-0.192,0.146l-0.192,0.051
		l-0.244,0.046h-0.192l-0.149-0.046l-0.288-0.146l-0.198-0.195l-0.143-0.146v-2.137l0.192-0.24l0.197-0.195l0.287-0.096
		L50.847,82.023z"/>
	<path fill-rule="evenodd" clip-rule="evenodd" fill="#333333" d="M33.856,87.554h0.048l0.581-0.048l0.437-0.095l0.293-0.144
		l0.239-0.197l0.101-0.24l0.096-0.245v-0.486v-0.098l-0.293,0.195l-0.288,0.197l-0.293,0.096l-0.389,0.048l-0.437-0.048
		l-0.437-0.195l-0.341-0.243l-0.341-0.29l-0.24-0.44l-0.144-0.482l-0.149-0.584v-0.679v-0.581l0.149-0.583l0.144-0.486l0.288-0.386
		l0.293-0.341l0.389-0.195l0.389-0.144l0.485-0.048h0.341l0.341,0.097l0.292,0.192l0.24,0.197v-0.389h1.359v4.999l-0.048,0.63
		l-0.101,0.533l-0.24,0.485l-0.096,0.198l-0.197,0.192l-0.144,0.143l-0.192,0.149l-0.491,0.192l-0.533,0.147l-0.63,0.048
		L33.856,87.554L33.856,87.554z M34.34,82.071L34.34,82.071l-0.192,0.101l-0.149,0.143l-0.144,0.192L33.76,82.8l-0.048,0.339
		l-0.053,0.437l0.053,0.485l0.048,0.341l0.096,0.339l0.144,0.195l0.149,0.147l0.192,0.095l0.193,0.099h0.149l0.336-0.05l0.245-0.144
		l0.24-0.147l0.149-0.195v-2.183l-0.149-0.194l-0.192-0.147l-0.293-0.146l-0.336-0.048h-0.197L34.34,82.071z"/>
	<path fill-rule="evenodd" clip-rule="evenodd" fill="#333333" d="M34.777,80.802h-0.341l-0.485,0.048L33.557,81l-0.389,0.192
		l-0.293,0.341l-0.288,0.389l-0.149,0.487l-0.144,0.583v0.584v0.679l0.144,0.584l0.149,0.487l0.24,0.442l0.341,0.288l0.342,0.243
		l0.442,0.194l0.437,0.051l0.389-0.051l0.293-0.093v-0.003l0.292-0.194l0.278-0.184v0.08v0.486l-0.096,0.239l-0.096,0.241
		l-0.24,0.192L34.921,87.4l-0.437,0.096l-0.581,0.05h-0.048h-0.016l0.496,1.085l0.64-0.049l0.533-0.146l0.49-0.195l0.192-0.146
		l0.15-0.146l0.192-0.193v-0.002l0.095-0.197l0.246-0.483l0.095-0.537l0.054-0.63v-5.01h-1.38v0.38l-0.224-0.183v-0.003
		l-0.298-0.194L34.777,80.802L34.777,80.802z M34.388,86.537L34.388,86.537l-0.437-0.048l-0.437-0.195l-0.341-0.243l-0.336-0.293
		l-0.245-0.436l-0.149-0.482l-0.144-0.584v-0.679v-0.581l0.144-0.583l0.149-0.486l0.292-0.389l0.289-0.338l0.389-0.195l0.389-0.146
		l0.485-0.046h0.341l0.341,0.097l0.292,0.192l0.24,0.194v-0.386h1.359v4.999l-0.048,0.63l-0.101,0.535l-0.24,0.482l-0.096,0.194
		l-0.192,0.195l-0.149,0.146l-0.192,0.143l-0.491,0.194l-0.533,0.147l-0.63,0.045l-0.484-1.066h0.048l0.581-0.048l0.437-0.095
		l0.293-0.15l0.239-0.189l0.101-0.243l0.096-0.245v-0.486v-0.095l-0.293,0.192l-0.288,0.194l-0.293,0.099L34.388,86.537
		L34.388,86.537z M34.681,82.023l0.336,0.05l0.293,0.144l0.192,0.147l0.149,0.194h-0.011h0.011v2.183l-0.149,0.195l-0.24,0.147
		l-0.245,0.144l-0.336,0.048h-0.149l-0.193-0.097l-0.196-0.095l-0.144-0.147l-0.144-0.195L33.76,84.4l-0.048-0.336l-0.053-0.487
		l0.053-0.437L33.76,82.8l0.096-0.293l0.144-0.192l0.144-0.149l0.196-0.093l0.144-0.05H34.681L34.681,82.023L34.681,82.023z
		 M34.538,85.266L34.538,85.266l-0.192-0.096l-0.198-0.099l-0.143-0.141l-0.144-0.194L33.764,84.4l-0.048-0.341l-0.048-0.483
		l0.048-0.437l0.048-0.339l0.097-0.287l0.144-0.192l0.143-0.145l0.192-0.096l0.144-0.048h0.197l0.336,0.048l0.288,0.144l0.192,0.144
		l0.144,0.192v2.18l-0.144,0.187l-0.24,0.143l-0.24,0.144l-0.336,0.05H34.538z"/>
	<path fill-rule="evenodd" clip-rule="evenodd" fill="#333333" d="M34.777,80.812h-0.341l-0.485,0.048l-0.389,0.144l-0.389,0.195
		l-0.289,0.341l-0.292,0.386l-0.144,0.486l-0.149,0.58v0.581v0.682l0.149,0.584l0.144,0.485l0.24,0.437l0.341,0.29l0.341,0.24
		l0.437,0.198l0.437,0.048l0.389-0.048l0.288-0.096l0.293-0.197l0.293-0.192v0.095v0.486l-0.101,0.242l-0.09,0.243l-0.245,0.194
		l-0.293,0.147l-0.437,0.095l-0.581,0.048h-0.048l0.484,1.069l0.63-0.05l0.533-0.145l0.491-0.192l0.192-0.149l0.144-0.143
		l0.197-0.192l0.096-0.198l0.245-0.485l0.096-0.533l0.048-0.632v-5h-1.359v0.392l-0.245-0.195l-0.288-0.197L34.777,80.812
		L34.777,80.812z M34.388,86.526L34.388,86.526l-0.437-0.048l-0.432-0.192l-0.336-0.24l-0.341-0.291l-0.244-0.437l-0.145-0.483
		l-0.144-0.581v-0.682v-0.581l0.144-0.58l0.145-0.48l0.293-0.386l0.292-0.339l0.384-0.194l0.385-0.144l0.485-0.051h0.341
		l0.336,0.096l0.288,0.195l0.245,0.194l0.011,0.014v-0.019v-0.379H37v4.987l-0.048,0.632l-0.096,0.533l-0.24,0.48l-0.101,0.196
		l-0.192,0.19l-0.144,0.147l-0.192,0.144l-0.485,0.192l-0.533,0.149l-0.623,0.045l-0.475-1.047h0.033l0.586-0.048l0.438-0.101
		l0.288-0.144h0.005l0.246-0.197l0.095-0.245l0.097-0.242v-0.488v-0.095v-0.019l-0.304,0.206l-0.288,0.192l-0.288,0.096
		L34.388,86.526L34.388,86.526z M35.652,81.298L35.652,81.298h0.006H35.652L35.652,81.298z M34.681,82.014l0.341,0.051l0.294,0.144
		l0.197,0.149l0.145,0.192v0.005v2.187v0.002l-0.145,0.197h-0.005l-0.24,0.144l-0.246,0.147l-0.341,0.05h-0.149h-0.006l-0.192-0.098
		l-0.197-0.099l-0.144-0.144v-0.005l-0.15-0.192v-0.002l-0.096-0.341l-0.048-0.341l-0.048-0.488l0.048-0.434l0.048-0.341
		l0.096-0.293v-0.002l0.15-0.193l0.144-0.148h0.006l0.192-0.096h0.005l0.144-0.051H34.681L34.681,82.014L34.681,82.014z
		 M34.532,85.274L34.532,85.274l-0.193-0.097l-0.196-0.095l-0.144-0.149l-0.144-0.192l-0.096-0.339l-0.053-0.341l-0.048-0.488
		l0.048-0.434L33.76,82.8l0.096-0.293l0.144-0.192l0.144-0.143l0.196-0.101l0.144-0.048h0.197l0.341,0.048l0.289,0.149l0.192,0.145
		l0.149,0.192l0.006-0.005l-0.006,0.005v2.185l-0.149,0.192l-0.24,0.149l-0.241,0.144l-0.341,0.048H34.532z"/>
	<path fill-rule="evenodd" clip-rule="evenodd" fill="#333333" d="M41.913,86.489l-0.34-0.049l-0.341-0.149l-0.288-0.192
		l-0.294-0.293l-0.192-0.336l-0.148-0.391l-0.048-0.483l0.048-0.485l0.148-0.389l0.241-0.292l0.292-0.24l0.341-0.197l0.337-0.095
		l0.389-0.097h0.388h0.294l0.341,0.048l0.287,0.097l0.246,0.098v-0.392v-0.144l-0.048-0.192l-0.101-0.149l-0.097-0.096l-0.143-0.096
		l-0.197-0.049l-0.384-0.048l-0.39,0.048l-0.389,0.049l-0.341,0.146l-0.293,0.144l-0.533-0.922l0.485-0.242l0.485-0.192l0.538-0.097
		h0.533h0.485l0.437,0.097l0.388,0.192l0.341,0.197l0.241,0.287l0.197,0.293l0.095,0.387l0.048,0.437v3.691h-1.358V85.95
		l-0.293,0.248l-0.389,0.195l-0.341,0.096l-0.288,0.048L41.913,86.489L41.913,86.489z M42.154,83.867L42.154,83.867l-0.144,0.05
		l-0.144,0.098l-0.096,0.096l-0.101,0.144l-0.048,0.147v0.194v0.144l0.048,0.192l0.101,0.146l0.096,0.098l0.144,0.097l0.144,0.048
		l0.197,0.047l0.192,0.051l0.341-0.051l0.341-0.143l0.197-0.192l0.192-0.195v-0.778l-0.246-0.096l-0.239-0.098l-0.293-0.048h-0.293
		h-0.192L42.154,83.867z"/>
	<path fill-rule="evenodd" clip-rule="evenodd" fill="#333333" d="M43.225,80.802H42.74h-0.538l-0.533,0.096l-0.485,0.197
		l-0.496,0.245l0.544,0.938l0.006-0.006l0.292-0.144l0.336-0.144l0.389-0.05l0.39-0.045l0.384,0.045l0.192,0.05l0.144,0.096
		l0.096,0.096l0.096,0.139l0.048,0.198v0.138v0.379l-0.229-0.094l-0.293-0.096v-0.002l-0.341-0.046h-0.294h-0.388l-0.389,0.093
		l-0.341,0.101l-0.341,0.192l-0.293,0.244l-0.245,0.294l-0.144,0.389l-0.048,0.49l0.048,0.486l0.144,0.388l0.197,0.341l0.293,0.296
		l0.293,0.194l0.341,0.147l0.34,0.045l0.39,0.051l0.292-0.051l0.341-0.096l0.389-0.194l0.278-0.229v0.418v0.005h1.38v-3.696
		l-0.053-0.437l-0.096-0.391l-0.192-0.293l-0.245-0.293l-0.346-0.192l-0.384-0.197L43.225,80.802L43.225,80.802z M41.237,82.265
		L41.237,82.265l-0.538-0.922l0.485-0.24l0.485-0.197l0.538-0.093h0.533h0.485l0.437,0.093l0.388,0.197l0.336,0.195l0.245,0.287
		l0.197,0.293l0.095,0.387l0.048,0.437v3.691h-1.358v-0.437l-0.293,0.24l-0.384,0.197l-0.341,0.096l-0.292,0.048l-0.39-0.048
		l-0.34-0.049l-0.336-0.149l-0.293-0.192l-0.294-0.293l-0.192-0.336l-0.148-0.388l-0.048-0.486l0.048-0.485l0.148-0.389l0.241-0.292
		l0.292-0.24l0.336-0.197l0.341-0.095l0.389-0.097h0.388h0.294l0.341,0.048l0.287,0.097l0.246,0.098v-0.392v-0.144l-0.048-0.192
		l-0.101-0.143l-0.097-0.101l-0.143-0.096l-0.197-0.049l-0.384-0.048l-0.39,0.048l-0.389,0.049l-0.341,0.146L41.237,82.265
		L41.237,82.265z M42.836,83.819l0.293,0.048l0.239,0.098l0.246,0.096v0.778l-0.197,0.195l-0.192,0.192l-0.341,0.143l-0.341,0.051
		l-0.192-0.051l-0.192-0.045l-0.149-0.05l-0.144-0.097l-0.096-0.095l-0.101-0.149l-0.048-0.192v-0.144h0.01v0.144l0.048,0.192
		l0.097,0.14l0.095,0.099l0.143,0.096l0.145,0.045l0.192,0.051l0.192,0.048l0.341-0.048l0.336-0.147l0.192-0.189l0.192-0.196v-0.765
		l-0.235-0.094l-0.244-0.096l-0.288-0.05h-0.293h-0.192l-0.192,0.05l-0.145,0.048l-0.143,0.096l-0.095,0.097l-0.097,0.143
		l-0.048,0.142v0.194h-0.01v-0.194l0.048-0.147l0.101-0.144l0.096-0.096l0.144-0.101l0.149-0.047l0.192-0.048h0.192H42.836
		L42.836,83.819z"/>
	<path fill-rule="evenodd" clip-rule="evenodd" fill="#333333" d="M43.225,80.81H42.74h-0.538l-0.528,0.099l-0.49,0.192
		l-0.485,0.244l0.533,0.922l0.293-0.144l0.341-0.149l0.389-0.049l0.385-0.048l0.394,0.048l0.192,0.049l0.143,0.098l0.101,0.096
		l0.091,0.144l0.053,0.197v0.144v0.386l-0.246-0.095l-0.287-0.097L42.74,82.8h-0.294h-0.388l-0.385,0.097l-0.341,0.095l-0.341,0.197
		l-0.292,0.24l-0.241,0.292l-0.143,0.387l-0.053,0.485l0.053,0.488l0.143,0.386l0.192,0.341l0.294,0.29l0.288,0.192l0.341,0.149
		l0.34,0.049l0.39,0.048l0.292-0.048l0.336-0.099l0.389-0.194l0.293-0.243v0.437h1.358v-3.686l-0.048-0.438l-0.101-0.389
		l-0.192-0.293l-0.241-0.291l-0.341-0.194l-0.388-0.192L43.225,80.81L43.225,80.81z M41.237,82.252L41.237,82.252l-0.529-0.907
		l0.48-0.234l0.485-0.194l0.534-0.096h0.533h0.485l0.432,0.096l0.389,0.194l0.341,0.192l0.24,0.289l0.192,0.292l0.096,0.384
		l0.048,0.438v3.678h-1.338v-0.429v-0.018l-0.309,0.253l-0.384,0.195l-0.341,0.096l-0.288,0.048l-0.39-0.048l-0.335-0.048
		l-0.341-0.147l-0.289-0.189l-0.288-0.291l-0.196-0.338l-0.145-0.389l-0.047-0.483l0.047-0.483l0.145-0.384l0.239-0.29l0.293-0.243
		L41.332,83l0.341-0.093l0.385-0.096h0.388h0.294l0.336,0.046l0.292,0.098l0.241,0.096l0.015,0.006v-0.403V82.51v-0.003
		l-0.053-0.194V82.31l-0.096-0.146l-0.096-0.098l-0.149-0.099h-0.006l-0.192-0.05l-0.389-0.048h-0.005l-0.385,0.048l-0.389,0.05
		h-0.005l-0.341,0.147L41.237,82.252L41.237,82.252z M41.232,82.267L41.232,82.267l0.01-0.005L41.232,82.267L41.232,82.267z
		 M42.836,83.808l0.293,0.048h0.005l0.241,0.101l0.25,0.096v0.789h-0.006l-0.192,0.196l-0.196,0.195l-0.346,0.146l-0.341,0.048
		l-0.192-0.048l-0.197-0.048l-0.144-0.048h-0.006l-0.144-0.101l-0.096-0.096l-0.101-0.149v-0.002l-0.048-0.195v-0.147h0.006v0.147
		l0.053,0.195l0.096,0.147l0.096,0.095l0.144,0.097l0.149,0.048l0.192,0.05l0.192,0.051l0.341-0.051l0.341-0.144l0.192-0.197
		l0.197-0.195v-0.777l-0.246-0.096l-0.239-0.096l-0.293-0.048h-0.293h-0.192l-0.192,0.048l-0.149,0.047l-0.144,0.099l-0.096,0.096
		l-0.096,0.146L41.621,84.4v0.194h-0.006V84.4l0.048-0.149l0.101-0.147l0.096-0.099l0.149-0.099l0.144-0.05l0.197-0.048h0.192
		H42.836L42.836,83.808z"/>
	<path fill-rule="evenodd" clip-rule="evenodd" fill="#333333" d="M55.947,86.489l-0.538-0.198l-0.437-0.24l-0.341-0.293
		l-0.337-0.436l-0.192-0.486l-0.149-0.533l-0.047-0.631l0.047-0.632l0.149-0.53l0.192-0.487l0.294-0.435l0.384-0.341l0.389-0.243
		l0.485-0.144l0.538-0.05l0.485,0.05l0.438,0.144l0.384,0.243l0.341,0.341l0.293,0.387l0.192,0.484l0.096,0.581l0.053,0.632v0.387
		h-3.401l0.097,0.391l0.101,0.29l0.192,0.195l0.149,0.147l0.24,0.095l0.144,0.049l0.341,0.048l0.34-0.048l0.293-0.096l0.24-0.149
		l0.192-0.193l0.874,0.875l-0.24,0.196l-0.196,0.192l-0.239,0.145l-0.246,0.095l-0.485,0.198l-0.532,0.048L55.947,86.489
		L55.947,86.489z M56.139,81.975L56.139,81.975l-0.192,0.048l-0.197,0.101l-0.144,0.144l-0.095,0.145l-0.102,0.192l-0.095,0.244
		v0.243h2.041l-0.047-0.437l-0.102-0.195l-0.095-0.146l-0.144-0.144l-0.197-0.146l-0.192-0.048l-0.246-0.049L56.139,81.975z"/>
	<path fill-rule="evenodd" clip-rule="evenodd" fill="#333333" d="M56.385,80.802l-0.538,0.048L55.361,81l-0.394,0.239l-0.389,0.341
		l-0.293,0.442l-0.192,0.484l-0.15,0.533l-0.048,0.634l0.048,0.629l0.15,0.537l0.192,0.487l0.341,0.44l0.341,0.293l0.442,0.242
		l0.534,0.192l0.587,0.051l0.532-0.051l0.49-0.192l0.241-0.098l0.244-0.144v-0.003l0.197-0.194l0.24-0.195l0.011-0.005L57.6,84.778
		l-0.011,0.005l-0.192,0.192l-0.24,0.144l-0.294,0.096l-0.335,0.05l-0.341-0.05l-0.139-0.045l-0.244-0.099l-0.145-0.141
		l-0.192-0.194l-0.096-0.289l-0.096-0.378h3.396v-0.394v-0.002l-0.049-0.632l-0.096-0.584l-0.196-0.485l-0.294-0.392l-0.341-0.341
		L57.307,81l-0.438-0.15L56.385,80.802L56.385,80.802z M56.529,86.537L56.529,86.537l-0.582-0.048l-0.538-0.195l-0.432-0.243
		l-0.341-0.29l-0.341-0.44l-0.192-0.486l-0.149-0.533l-0.047-0.629l0.047-0.628l0.149-0.539l0.192-0.484l0.294-0.438l0.388-0.342
		l0.384-0.239l0.485-0.146l0.538-0.046l0.485,0.046l0.438,0.146l0.384,0.239l0.341,0.342l0.293,0.39l0.198,0.484l0.095,0.587
		l0.048,0.628v0.387h-3.401l0.097,0.386l0.101,0.294l0.192,0.195l0.143,0.144l0.246,0.098l0.144,0.049l0.341,0.048l0.34-0.048
		l0.288-0.096l0.245-0.144l0.198-0.197l0.868,0.875l-0.24,0.194l-0.196,0.194l-0.246,0.145l-0.239,0.098l-0.485,0.195L56.529,86.537
		L56.529,86.537z M56.33,81.926l0.246,0.049l0.192,0.048l0.197,0.144l0.144,0.149l0.095,0.144l0.102,0.195l0.047,0.435h-2.036
		v-0.241l0.09-0.24l0.102-0.196l0.095-0.145l0.144-0.146l0.197-0.098l0.192-0.048L56.33,81.926L56.33,81.926L56.33,81.926z
		 M55.323,83.082L55.323,83.082v-0.234l0.097-0.24l0.095-0.192l0.097-0.144l0.143-0.144l0.192-0.096l0.197-0.048l0.186-0.048
		l0.246,0.048l0.192,0.048l0.192,0.144l0.143,0.145l0.096,0.143l0.096,0.192l0.048,0.426H55.323z"/>
	<path fill-rule="evenodd" clip-rule="evenodd" fill="#333333" d="M56.379,80.81l-0.533,0.05l-0.485,0.144l-0.389,0.243
		l-0.384,0.338l-0.294,0.438l-0.196,0.487l-0.144,0.53l-0.047,0.632l0.047,0.631l0.144,0.533l0.196,0.486l0.337,0.436l0.341,0.293
		l0.437,0.24l0.538,0.198l0.582,0.048l0.532-0.048l0.485-0.198l0.246-0.095l0.239-0.145l0.196-0.192l0.24-0.196l-0.874-0.875
		l-0.005,0.009l0.005-0.009l-0.192,0.193l-0.245,0.149l-0.288,0.096l-0.34,0.048l-0.341-0.048l-0.144-0.049l-0.246-0.095
		l-0.143-0.147l-0.198-0.195l-0.095-0.29l-0.097-0.391h3.401v-0.387l-0.048-0.632l-0.101-0.581l-0.192-0.484l-0.293-0.39
		l-0.341-0.338l-0.384-0.243l-0.438-0.144L56.379,80.81L56.379,80.81z M56.529,86.526L56.529,86.526l-0.582-0.048l-0.533-0.195
		l-0.437-0.24l-0.336-0.29L54.3,85.317l-0.192-0.48l-0.144-0.533l-0.048-0.631l0.048-0.626l0.144-0.536l0.192-0.483l0.293-0.434
		l0.384-0.339l0.389-0.246l0.486-0.144l0.528-0.045l0.484,0.045l0.438,0.144l0.384,0.246l0.341,0.339l0.288,0.387l0.197,0.484
		l0.096,0.582l0.048,0.626v0.381h-3.4l0.096,0.399l0.101,0.288v0.005l0.196,0.197l0.144,0.144l0.245,0.101l0.149,0.045l0.341,0.05
		l0.34-0.05l0.293-0.096l0.24-0.147h0.006l0.186-0.189l0.864,0.861l-0.234,0.186l-0.197,0.194l-0.241,0.144l-0.239,0.096
		l-0.49,0.195L56.529,86.526L56.529,86.526z M56.33,81.916h0.006l0.24,0.05l0.197,0.051h0.005l0.192,0.144v0.002l0.15,0.144v0.002
		l0.096,0.144l0.095,0.197l0.053,0.447h-2.051h-0.006v-0.007v-0.245l0.096-0.242l0.096-0.197l0.101-0.144v-0.005l0.144-0.144
		l0.197-0.096v-0.006l0.192-0.045L56.33,81.916L56.33,81.916L56.33,81.916z M55.313,83.091L55.313,83.091v-0.243l0.095-0.244
		l0.102-0.192l0.095-0.145l0.144-0.144l0.197-0.101l0.192-0.048l0.192-0.049l0.246,0.049l0.197,0.048l0.192,0.146l0.144,0.144
		l0.101,0.146l0.097,0.195l0.047,0.437H55.313z"/>
	<path fill-rule="evenodd" clip-rule="evenodd" fill="#333333" d="M69.053,86.489l-0.533-0.198l-0.436-0.24l-0.39-0.293
		l-0.292-0.436l-0.24-0.486l-0.096-0.533l-0.052-0.631l0.052-0.632l0.096-0.533l0.24-0.484l0.292-0.435l0.341-0.341l0.438-0.243
		l0.484-0.144l0.485-0.05l0.533,0.05l0.437,0.144l0.39,0.243l0.341,0.341l0.244,0.387l0.192,0.484l0.145,0.581l0.047,0.632v0.387
		h-3.401l0.053,0.391l0.144,0.29l0.144,0.195l0.197,0.147l0.192,0.095l0.197,0.049l0.289,0.048l0.341-0.048l0.293-0.096l0.24-0.149
		l0.244-0.193l0.826,0.875l-0.192,0.196l-0.245,0.192l-0.192,0.145l-0.245,0.095l-0.533,0.198l-0.538,0.048L69.053,86.489
		L69.053,86.489z M69.202,81.975L69.202,81.975l-0.196,0.048l-0.144,0.095l-0.149,0.149l-0.144,0.145l-0.095,0.192l-0.049,0.244
		v0.243h2.037l-0.097-0.437l-0.048-0.195l-0.096-0.146l-0.149-0.144l-0.192-0.146l-0.192-0.048l-0.246-0.049L69.202,81.975z"/>
	<path fill-rule="evenodd" clip-rule="evenodd" fill="#333333" d="M69.442,80.802l-0.485,0.048l-0.49,0.146l-0.438,0.243
		l-0.341,0.341l-0.292,0.439l-0.245,0.485l-0.096,0.536l-0.049,0.634l0.049,0.629l0.096,0.539l0.245,0.485l0.292,0.44l0.389,0.29
		l0.438,0.245l0.538,0.192l0.538,0.051l0.533-0.051l0.533-0.192l0.245-0.096v-0.002l0.197-0.147l0.24-0.192l0.197-0.197l0.005-0.005
		l-0.837-0.888l-0.005,0.006l-0.245,0.195l-0.24,0.144l-0.287,0.096l-0.336,0.048l-0.293-0.048l-0.192-0.048l-0.192-0.094
		l-0.192-0.146l-0.144-0.192l-0.149-0.289l-0.043-0.378h3.395v-0.394l-0.048-0.634l-0.15-0.581l-0.192-0.49l-0.245-0.388
		l-0.341-0.341l-0.389-0.243l-0.442-0.146L69.442,80.802L69.442,80.802z M69.591,86.537L69.591,86.537l-0.538-0.051l-0.533-0.195
		l-0.436-0.24l-0.39-0.29l-0.292-0.437l-0.24-0.485l-0.101-0.537l-0.042-0.629l0.042-0.631l0.101-0.536l0.24-0.484l0.292-0.438
		l0.341-0.338l0.438-0.243l0.484-0.146l0.485-0.046l0.533,0.046l0.437,0.146l0.39,0.243l0.341,0.338l0.24,0.39l0.197,0.487
		l0.145,0.581l0.047,0.631v0.387h-3.395l0.048,0.386l0.144,0.294l0.149,0.192l0.192,0.146l0.192,0.098l0.197,0.049l0.293,0.048
		l0.336-0.048l0.293-0.096l0.24-0.146l0.244-0.195l0.826,0.875l-0.196,0.192l-0.241,0.196l-0.197,0.145l-0.24,0.095l-0.537,0.195
		L69.591,86.537L69.591,86.537z M69.442,81.924l0.24,0.051l0.198,0.048l0.196,0.149l0.144,0.143l0.096,0.147l0.048,0.189
		l0.097,0.443h-2.037v-0.246l0.049-0.242l0.095-0.194l0.149-0.147l0.144-0.144l0.144-0.098l0.196-0.048L69.442,81.924L69.442,81.924
		L69.442,81.924z M68.429,83.082L68.429,83.082v-0.234l0.053-0.24l0.096-0.192l0.144-0.146l0.144-0.144l0.139-0.096l0.196-0.045
		l0.24-0.05l0.24,0.05l0.192,0.045l0.192,0.146l0.144,0.145l0.096,0.143l0.048,0.192l0.096,0.426H68.429z"/>
	<path fill-rule="evenodd" clip-rule="evenodd" fill="#333333" d="M69.442,80.81l-0.485,0.05l-0.484,0.144l-0.438,0.243
		l-0.341,0.338l-0.292,0.438l-0.24,0.484l-0.096,0.533l-0.047,0.632l0.047,0.631l0.096,0.533l0.24,0.486l0.292,0.436l0.39,0.293
		l0.436,0.24l0.533,0.198l0.534,0.048l0.538-0.048l0.533-0.198l0.245-0.095l0.187-0.145l0.246-0.192l0.196-0.196l-0.826-0.875
		l-0.005,0.009l0.005-0.009l-0.244,0.193l-0.24,0.149l-0.293,0.096l-0.341,0.048l-0.289-0.048l-0.197-0.049l-0.192-0.095
		l-0.192-0.147l-0.149-0.195l-0.144-0.29l-0.048-0.391h3.395v-0.387l-0.047-0.632l-0.145-0.581l-0.192-0.484l-0.244-0.39
		l-0.341-0.338l-0.385-0.243l-0.442-0.144L69.442,80.81L69.442,80.81z M69.587,86.526L69.587,86.526l-0.528-0.048l-0.533-0.195
		l-0.437-0.24l-0.384-0.29l-0.293-0.437l-0.24-0.48l-0.101-0.533l-0.048-0.631l0.048-0.626l0.101-0.536l0.24-0.483l0.293-0.434
		l0.336-0.339l0.433-0.246l0.49-0.144l0.479-0.045l0.533,0.045l0.432,0.144l0.389,0.246l0.341,0.339l0.241,0.384l0.192,0.487
		l0.149,0.582l0.043,0.626v0.381H68.36l0.054,0.397v0.002l0.144,0.293h0.006l0.144,0.197h0.005l0.192,0.144l0.196,0.096v0.006
		l0.197,0.045l0.289,0.05l0.341-0.05h0.005l0.288-0.096h0.005l0.24-0.147l0.24-0.189l0.811,0.861l-0.187,0.186l-0.245,0.194
		l-0.187,0.144l-0.24,0.096l-0.537,0.195L69.587,86.526L69.587,86.526z M69.442,81.916h0.006l0.241,0.05l0.196,0.051l0.197,0.144
		v0.002l0.144,0.144v0.002l0.101,0.149l0.048,0.192l0.096,0.447h-2.047h-0.01v-0.007v-0.243v-0.002l0.047-0.242l0.102-0.197
		l0.149-0.149l0.144-0.144L69,82.017l0.006-0.006l0.192-0.045L69.442,81.916L69.442,81.916L69.442,81.916z M68.424,83.091
		L68.424,83.091v-0.243l0.049-0.244l0.095-0.192l0.149-0.145l0.144-0.149l0.144-0.095l0.196-0.048l0.24-0.049l0.246,0.049
		l0.192,0.048l0.196,0.146l0.144,0.144l0.096,0.146l0.048,0.195l0.097,0.437H68.424z"/>
	<polygon fill-rule="evenodd" clip-rule="evenodd" fill="#333333" points="64.88,86.489 64.539,86.342 64.3,86.196 64.101,85.953 
		63.958,85.71 63.856,85.42 63.814,85.129 63.761,84.839 63.761,82.166 62.935,82.166 62.935,80.909 63.761,80.909 63.761,79.499 
		65.119,78.819 65.119,80.909 66.383,80.909 66.383,82.166 65.119,82.166 65.119,84.498 65.167,84.839 65.264,85.034 65.365,85.129 
		65.461,85.177 65.7,85.226 65.946,85.226 66.143,85.177 66.527,84.983 66.383,86.244 66.143,86.387 65.85,86.438 65.557,86.489 
		65.216,86.537 	"/>
	<path fill-rule="evenodd" clip-rule="evenodd" fill="#333333" d="M65.13,78.806l-1.38,0.687v1.405h-0.82v1.278h0.82v2.66
		l0.054,0.293l0.048,0.294l0.096,0.29v0.002l0.144,0.243l0.197,0.242v0.006l0.245,0.144l0.341,0.147l0.341,0.05l0.341-0.05
		l0.292-0.051l0.293-0.048l0.245-0.144l0.006-0.006l0.149-1.279l-0.404,0.197l-0.192,0.048h-0.24l-0.245-0.048l-0.09-0.048
		l-0.096-0.093l-0.096-0.192l-0.048-0.339v-2.318h1.263v-1.278H65.13V78.806L65.13,78.806z M62.935,82.169L62.935,82.169v-1.26
		h0.826v-1.408l1.358-0.682v2.09h1.263v1.26h-1.263v2.326l0.054,0.341l0.095,0.195l0.097,0.098l0.095,0.048l0.24,0.049h0.246
		l0.192-0.049l0.394-0.196l-0.149,1.263l-0.244,0.146l-0.289,0.05l-0.292,0.049l-0.341,0.045l-0.337-0.045l-0.341-0.149
		l-0.245-0.144l-0.192-0.243l-0.143-0.243l-0.102-0.292l-0.047-0.289l-0.048-0.293v-2.667H62.935z"/>
	<path fill-rule="evenodd" clip-rule="evenodd" fill="#333333" d="M65.119,78.819l-1.358,0.68v1.41h-0.822v1.258h0.822v2.673
		l0.048,0.29l0.053,0.291l0.091,0.29l0.148,0.243l0.192,0.243l0.245,0.146l0.341,0.147l0.341,0.048l0.336-0.048l0.292-0.051
		l0.293-0.05l0.24-0.143l0.145-1.261l-0.385,0.194l-0.196,0.049h-0.24l-0.245-0.049l-0.095-0.048l-0.097-0.095l-0.101-0.195
		l-0.048-0.341v-2.332h1.263v-1.258h-1.263V78.819L65.119,78.819z M62.945,82.161L62.945,82.161v-1.248h0.826v-1.409l1.344-0.669
		v2.079h1.263v1.248h-1.263v0.005h0.005h-0.005v2.332l0.048,0.341v0.003l0.096,0.192v0.005l0.101,0.096l0.096,0.051h0.005l0.24,0.05
		h0.006h0.24l0.196-0.05l0.374-0.19l-0.139,1.243l-0.24,0.144L65.85,86.43l-0.292,0.048l-0.336,0.048l-0.341-0.048l-0.335-0.144
		l-0.24-0.143l-0.197-0.246l-0.144-0.239l-0.096-0.288l-0.048-0.289l-0.048-0.293v-2.675H62.945z"/>
	<polygon fill-rule="evenodd" clip-rule="evenodd" fill="#333333" points="60.994,86.489 60.653,86.342 60.413,86.196 
		60.217,85.953 60.072,85.71 59.977,85.42 59.928,85.129 59.88,84.839 59.88,82.166 59.049,82.166 59.049,80.909 59.88,80.909 
		59.88,79.499 61.235,78.819 61.235,80.909 62.401,80.909 62.401,82.166 61.235,82.166 61.235,84.498 61.288,84.839 61.383,85.034 
		61.48,85.129 61.575,85.177 61.821,85.226 62.06,85.226 62.258,85.177 62.646,84.983 62.504,86.244 62.258,86.387 61.965,86.438 
		61.672,86.489 61.331,86.537 	"/>
	<path fill-rule="evenodd" clip-rule="evenodd" fill="#333333" d="M61.245,78.806l-1.374,0.687v1.405h-0.826v1.278h0.826v2.66
		l0.048,0.293l0.048,0.294l0.096,0.29l0.005,0.002l0.144,0.243l0.197,0.242v0.006l0.244,0.144l0.341,0.147l0.336,0.05h0.005
		l0.341-0.05l0.288-0.051l0.293-0.048h0.005l0.241-0.144l0.005-0.006l0.149-1.279l-0.016,0.005l0.005,0.006l-0.005-0.006
		l-0.388,0.192l-0.193,0.048h-0.239l-0.24-0.048l-0.097-0.048l-0.095-0.093l-0.097-0.192l-0.048-0.339v-2.318h1.167v-1.278h-1.167
		V78.806L61.245,78.806z M59.055,82.169L59.055,82.169v-1.26h0.82v-1.408l1.365-0.682v2.09h1.161v1.26H61.24v2.326l0.047,0.341
		l0.096,0.195l0.096,0.098l0.095,0.048l0.246,0.049h0.239l0.197-0.049l0.389-0.196l-0.148,1.263l-0.24,0.146l-0.293,0.05
		l-0.288,0.049l-0.341,0.045l-0.341-0.045l-0.341-0.149l-0.24-0.144l-0.196-0.243l-0.145-0.243l-0.095-0.292l-0.054-0.289
		l-0.047-0.293v-2.667H59.055z"/>
	<path fill-rule="evenodd" clip-rule="evenodd" fill="#333333" d="M61.235,78.819l-1.359,0.68v1.41h-0.82v1.258h0.82v2.673
		l0.053,0.29l0.049,0.291l0.095,0.29l0.145,0.243l0.196,0.243l0.24,0.146l0.341,0.147l0.341,0.048l0.337-0.048l0.293-0.051
		l0.293-0.05l0.24-0.143l0.148-1.261l-0.389,0.194l-0.192,0.049h-0.244l-0.246-0.049l-0.095-0.048l-0.096-0.095l-0.096-0.195
		l-0.053-0.341v-2.332h1.167v-1.258h-1.167V78.819L61.235,78.819z M59.06,82.161L59.06,82.161v-1.248h0.826v-1.409l1.343-0.669
		v2.079h1.162v1.248h-1.162v2.337l0.048,0.341v0.003l0.101,0.192v0.005l0.097,0.096l0.096,0.051h0.005l0.241,0.05h0.25l0.192-0.05
		l0.379-0.19l-0.145,1.243l-0.239,0.144l-0.288,0.048l-0.293,0.048l-0.337,0.048l-0.341-0.048l-0.336-0.144l-0.24-0.143
		l-0.197-0.246l-0.144-0.239l-0.096-0.288l-0.048-0.289l-0.048-0.293v-2.675H59.06z"/>
	<polygon fill-rule="evenodd" clip-rule="evenodd" fill="#333333" points="72.646,86.39 72.646,80.909 74.004,80.909 74.004,81.391 
		74.25,81.101 74.537,80.954 74.878,80.81 75.22,80.81 75.466,80.81 75.752,80.86 75.998,81.004 76.238,81.101 75.849,82.459 
		75.657,82.313 75.466,82.219 75.22,82.169 74.975,82.169 74.735,82.169 74.537,82.219 74.394,82.313 74.25,82.459 74.154,82.654 
		74.053,82.848 74.004,83.141 74.004,83.43 74.004,86.39 	"/>
	<path fill-rule="evenodd" clip-rule="evenodd" fill="#333333" d="M75.466,80.799H75.22h-0.341l-0.341,0.147l-0.292,0.144v0.006
		l-0.23,0.272v-0.462v-0.007h-1.38v5.5h1.38V83.43v-0.289l0.048-0.29l0.096-0.195l0.096-0.192l0.144-0.143l0.144-0.096l0.192-0.048
		h0.245h0.24l0.24,0.048l0.192,0.096l0.192,0.146l0.011,0.008l0.4-1.38l-0.011-0.006l-0.24-0.093l-0.245-0.146l-0.292-0.048V80.799
		L75.466,80.799z M74.004,81.393L74.004,81.393l0.245-0.292l0.293-0.144l0.335-0.147h0.341h0.246l0.287,0.045l0.245,0.15
		l0.245,0.096l-0.394,1.358l-0.192-0.144l-0.192-0.101l-0.246-0.046h-0.24h-0.245l-0.192,0.046l-0.149,0.101l-0.145,0.144
		l-0.096,0.197l-0.101,0.19l-0.049,0.295v0.289v2.963h-1.358v-5.487h1.358V81.393z"/>
	<path fill-rule="evenodd" clip-rule="evenodd" fill="#333333" d="M75.459,80.81h-0.24h-0.341l-0.335,0.147l-0.293,0.144
		l-0.245,0.292v-0.487h-1.358v5.487h1.358V83.43v-0.289l0.054-0.295l0.096-0.195l0.096-0.192l0.145-0.144l0.149-0.101l0.192-0.046
		h0.24h0.245l0.24,0.046l0.198,0.101l0.196,0.144l0.384-1.358l-0.24-0.096l-0.245-0.15L75.459,80.81L75.459,80.81z M74.543,80.962
		L74.543,80.962l0.341-0.144h0.336h0.24l0.293,0.048l0.24,0.147l0.235,0.093l-0.384,1.338l-0.181-0.138l-0.196-0.096l-0.246-0.051
		h-0.245h-0.24l-0.197,0.051l-0.149,0.096l-0.15,0.149l-0.095,0.197l-0.097,0.192l-0.052,0.293v0.293v2.949h-1.338v-5.463h1.338
		v0.476v0.022l0.26-0.306L74.543,80.962z"/>
	<rect x="13.272" y="78.771" fill-rule="evenodd" clip-rule="evenodd" fill="#333333" width="1.354" height="1.359"/>
	<path fill-rule="evenodd" clip-rule="evenodd" fill="#333333" d="M13.266,78.774h1.359v1.359h-1.359V78.774L13.266,78.774z
		 M14.625,78.774L14.625,78.774H14.62H14.625L14.625,78.774z M14.625,78.761L14.625,78.761h-1.364v1.378h1.374v-1.378H14.625z"/>
	<path fill-rule="evenodd" clip-rule="evenodd" fill="#333333" d="M13.277,78.779h1.343v1.341h-1.343V78.779L13.277,78.779z
		 M13.272,80.13L13.272,80.13h1.354v-1.359h-1.354V80.13z"/>
	<rect x="24.043" y="80.903" fill-rule="evenodd" clip-rule="evenodd" fill="#333333" width="1.365" height="5.487"/>
	<path fill-rule="evenodd" clip-rule="evenodd" fill="#333333" d="M24.049,80.909h1.359v5.484h-1.359V80.909L24.049,80.909z
		 M24.038,80.898L24.038,80.898v5.5h0.011h1.369v-5.5H24.038z"/>
	<path fill-rule="evenodd" clip-rule="evenodd" fill="#333333" d="M24.043,86.39h0.011H24.043L24.043,86.39z M24.054,80.913
		L24.054,80.913h1.343v5.469h-1.343V80.913L24.054,80.913z M24.043,86.39L24.043,86.39h1.365v-5.487h-1.365V86.39z"/>
	<rect x="24.043" y="78.771" fill-rule="evenodd" clip-rule="evenodd" fill="#333333" width="1.365" height="1.359"/>
	<path fill-rule="evenodd" clip-rule="evenodd" fill="#333333" d="M24.043,78.774h1.365v1.359h-1.365V78.774L24.043,78.774z
		 M25.408,78.771L25.408,78.771h-0.011H25.408L25.408,78.771z M25.408,78.761L25.408,78.761h-1.37v1.378h1.38v-1.378H25.408z"/>
	<path fill-rule="evenodd" clip-rule="evenodd" fill="#333333" d="M24.054,78.779h1.343v1.341h-1.343V78.779L24.054,78.779z
		 M24.043,80.13L24.043,80.13h1.365v-1.359h-1.365V80.13z"/>
	<path fill-rule="evenodd" clip-rule="evenodd" fill="#333333" d="M61.432,96.093l-0.486-0.046l-0.388-0.146l-0.389-0.245
		l-0.293-0.336l-0.239-0.391l-0.197-0.531l-0.096-0.537l-0.048-0.677l0.048-0.632l0.096-0.536l0.197-0.483l0.239-0.389l0.293-0.339
		l0.389-0.244l0.437-0.145l0.485-0.047l0.293,0.047l0.341,0.097l0.287,0.149l0.294,0.24v-1.991l1.358-0.679v7.766h-1.358V95.56
		l-0.294,0.246l-0.341,0.192l-0.287,0.096H61.432L61.432,96.093z M61.335,91.68L61.335,91.68l-0.149,0.096l-0.143,0.144
		l-0.144,0.197l-0.096,0.24l-0.101,0.389v0.389v0.486l0.101,0.389l0.096,0.293l0.144,0.24l0.143,0.146l0.197,0.096l0.144,0.051
		h0.192h0.341l0.246-0.147l0.192-0.194l0.197-0.192v-2.137l-0.15-0.194l-0.24-0.144L62.06,91.68l-0.341-0.05h-0.192L61.335,91.68z"
		/>
	<path fill-rule="evenodd" clip-rule="evenodd" fill="#333333" d="M64.064,88.221l-1.38,0.688v1.974l-0.277-0.231l-0.292-0.144
		l-0.341-0.101l-0.293-0.048l-0.485,0.048l-0.442,0.149l-0.389,0.242l-0.293,0.341l-0.245,0.392l-0.192,0.485l-0.101,0.533
		l-0.048,0.634l0.048,0.679l0.101,0.535l0.192,0.533l0.245,0.392l0.293,0.341l0.389,0.245l0.389,0.147l0.49,0.047h0.341l0.292-0.098
		l0.342-0.194l0.277-0.232v0.419v0.01h1.38V88.221L64.064,88.221z M62.695,90.902L62.695,90.902v-1.988l1.358-0.682v7.766h-1.358
		V95.56l-0.294,0.242l-0.341,0.195l-0.287,0.098h-0.341l-0.486-0.051l-0.388-0.143l-0.389-0.243l-0.293-0.341l-0.239-0.387
		l-0.197-0.533l-0.096-0.535l-0.048-0.679l0.048-0.629l0.096-0.536l0.197-0.487l0.239-0.387l0.293-0.339l0.389-0.242l0.437-0.144
		l0.485-0.05l0.293,0.05l0.341,0.094l0.287,0.146L62.695,90.902L62.695,90.902z M61.719,91.632l0.341,0.047l0.246,0.145l0.244,0.144
		l0.145,0.197v2.134l-0.197,0.195l-0.192,0.192L62.06,94.83h-0.341h-0.192l-0.144-0.046l-0.192-0.098l-0.149-0.144l-0.144-0.243
		l-0.096-0.29l-0.101-0.389v-0.486v-0.389l0.101-0.389l0.096-0.24l0.144-0.195l0.149-0.146l0.144-0.096l0.192-0.047H61.719
		L61.719,91.632L61.719,91.632z M61.533,94.825L61.533,94.825l-0.149-0.048l-0.187-0.096l-0.148-0.144l-0.145-0.243l-0.096-0.29
		l-0.096-0.384v-0.486v-0.389l0.096-0.387l0.096-0.24l0.145-0.192l0.148-0.144l0.139-0.096l0.197-0.051h0.186l0.341,0.051
		l0.24,0.146l0.241,0.144l0.144,0.189v2.127l-0.192,0.195L62.3,94.681l-0.24,0.144h-0.341H61.533z"/>
	<path fill-rule="evenodd" clip-rule="evenodd" fill="#333333" d="M64.054,88.234l-1.358,0.68v1.988l-0.294-0.24l-0.293-0.147
		l-0.335-0.099l-0.293-0.047l-0.485,0.047l-0.437,0.145l-0.389,0.244l-0.289,0.341l-0.244,0.387l-0.192,0.487l-0.101,0.531
		l-0.048,0.632l0.048,0.681l0.101,0.53l0.192,0.536l0.244,0.389l0.289,0.336l0.389,0.245l0.388,0.143l0.486,0.051h0.341l0.287-0.098
		l0.341-0.192l0.294-0.246v0.437h1.358V88.234L64.054,88.234z M62.7,90.902L62.7,90.902v-1.984l1.343-0.671v7.741H62.7V95.56v-0.016
		l-0.303,0.251l-0.336,0.194l-0.293,0.096h-0.335l-0.486-0.045l-0.384-0.149l-0.389-0.239l-0.288-0.336l-0.245-0.389l-0.192-0.533
		l-0.096-0.533l-0.048-0.677l0.048-0.629l0.096-0.534l0.192-0.485l0.245-0.384l0.288-0.341l0.389-0.24l0.432-0.143l0.485-0.049
		l0.287,0.049l0.341,0.095l0.289,0.144l0.303,0.256V90.902L62.7,90.902z M62.695,90.902L62.695,90.902H62.7H62.695L62.695,90.902z
		 M61.724,91.621l0.341,0.048l0.246,0.149l0.239,0.146h0.006L62.7,92.16v2.142v0.005l-0.192,0.192l-0.197,0.195l-0.246,0.146H62.06
		h-0.336h-0.197l-0.149-0.047l-0.196-0.099l-0.144-0.147l-0.149-0.245l-0.096-0.291l-0.097-0.391v-0.486v-0.389l0.097-0.389
		l0.096-0.245v-0.003l0.149-0.194l0.144-0.147l0.149-0.098l0.196-0.048H61.724L61.724,91.621L61.724,91.621z M61.527,94.833
		L61.527,94.833l-0.144-0.05l-0.197-0.094l-0.143-0.146l-0.144-0.24l-0.096-0.293l-0.101-0.389v-0.486v-0.389l0.101-0.389
		l0.096-0.243l0.144-0.194l0.143-0.144l0.145-0.096l0.196-0.05h0.197l0.336,0.05l0.246,0.145l0.24,0.146l0.15,0.194v2.137
		l-0.192,0.192l-0.197,0.194l-0.246,0.144h-0.336H61.527z"/>
	<polygon fill-rule="evenodd" clip-rule="evenodd" fill="#333333" points="13.368,95.998 13.368,90.516 14.727,90.516 
		14.727,91.001 14.967,90.71 15.259,90.516 15.553,90.416 15.937,90.369 16.182,90.416 16.475,90.464 16.714,90.566 16.96,90.71 
		16.571,92.018 16.374,91.92 16.134,91.824 15.937,91.776 15.697,91.727 15.452,91.776 15.259,91.824 15.068,91.92 14.967,92.069 
		14.823,92.213 14.774,92.456 14.727,92.698 14.727,93.037 14.727,95.998 	"/>
	<path fill-rule="evenodd" clip-rule="evenodd" fill="#333333" d="M15.937,90.358l-0.389,0.048l-0.293,0.101l-0.293,0.194
		l-0.229,0.275v-0.463v-0.006h-1.375v5.5h1.375v-2.973v-0.336l0.048-0.24l0.053-0.24l0.138-0.146h0.005l0.097-0.143l0.192-0.096
		l0.192-0.046l0.24-0.05l0.24,0.05l0.192,0.046l0.245,0.098l0.192,0.096l0.011,0.005l0.394-1.326l-0.01-0.006l-0.24-0.144
		l-0.245-0.099l-0.293-0.05l-0.245-0.045V90.358L15.937,90.358z M14.727,90.997L14.727,90.997l0.24-0.29l0.293-0.194l0.293-0.097
		l0.384-0.047l0.245,0.047l0.288,0.048l0.245,0.099l0.24,0.144l-0.384,1.309l-0.197-0.093l-0.24-0.098l-0.197-0.048l-0.24-0.049
		l-0.245,0.049l-0.192,0.048l-0.192,0.098l-0.101,0.144l-0.144,0.147l-0.048,0.239l-0.048,0.246v0.341v2.958h-1.359v-5.484h1.359
		V90.997z"/>
	<path fill-rule="evenodd" clip-rule="evenodd" fill="#333333" d="M15.937,90.369l-0.384,0.047l-0.293,0.097l-0.293,0.194
		l-0.24,0.29v-0.484h-1.359v5.484h1.359v-2.958v-0.341l0.048-0.246l0.048-0.239l0.144-0.147l0.101-0.144l0.192-0.096l0.192-0.05
		l0.245-0.049l0.24,0.049l0.197,0.05l0.24,0.096l0.197,0.093l0.389-1.309l-0.246-0.144l-0.239-0.099l-0.293-0.048L15.937,90.369
		L15.937,90.369z M14.716,91.024L14.716,91.024l0.256-0.309l0.293-0.192l0.288-0.095l0.384-0.051l0.239,0.051l0.293,0.045
		l0.24,0.098l0.24,0.141l-0.384,1.293l-0.186-0.091l-0.245-0.099l-0.192-0.05l-0.245-0.048l-0.245,0.048l-0.197,0.05l-0.197,0.099
		l-0.096,0.146l-0.144,0.144l-0.005,0.003l-0.048,0.245l-0.048,0.24v0.006v0.341v2.947h-1.344v-5.464h1.344v0.474V91.024z"/>
	<polygon fill-rule="evenodd" clip-rule="evenodd" fill="#333333" points="4.531,95.998 3.944,93.716 3.609,92.507 3.316,93.764 
		2.735,95.998 1.567,95.998 1.519,95.949 0.07,90.705 0.07,90.516 1.375,90.516 1.908,92.551 2.148,93.913 2.345,93.183 
		2.489,92.507 3.07,90.516 4.237,90.516 4.771,92.507 5.112,93.913 5.405,92.507 5.89,90.516 7.249,90.516 5.693,95.998 	"/>
	<path fill-rule="evenodd" clip-rule="evenodd" fill="#333333" d="M7.26,90.508h-1.38l-0.485,1.996h0.011H5.394l-0.283,1.368
		l-0.33-1.368l-0.538-1.996H3.065l-0.586,1.996L2.334,93.18l-0.181,0.691l-0.24-1.322l-0.533-2.041H0l1.508,5.446l0.053,0.051v0.002
		H2.74l0.586-2.241l0.283-1.223l0.33,1.178l0.581,2.286h1.183L7.26,90.508L7.26,90.508z M5.112,93.913L5.112,93.913l0.293-1.41
		l0.485-1.99h1.359l-1.556,5.484H4.525l-0.581-2.282l-0.341-1.212l-0.288,1.261l-0.581,2.233H1.567l-0.048-0.048l-1.455-5.244
		v-0.032l-0.037-0.15h0.037v-0.01h1.311l0.533,2.041l0.246,1.359l0.192-0.73l0.144-0.68l0.587-1.99h1.162l0.533,1.99L5.112,93.913z"
		/>
	<polygon fill-rule="evenodd" clip-rule="evenodd" fill="#333333" points="7.249,90.513 5.89,90.513 5.405,92.503 5.112,93.913 
		4.771,92.503 4.237,90.513 3.07,90.513 2.489,92.503 2.345,93.183 2.148,93.913 1.908,92.554 1.37,90.513 0.064,90.513 
		0.064,90.523 1.364,90.523 1.898,92.554 2.148,93.953 2.351,93.186 2.5,92.507 3.076,90.523 4.232,90.523 4.76,92.507 
		5.112,93.953 5.41,92.507 5.895,90.523 7.238,90.523 5.687,95.989 4.536,95.989 3.955,93.716 3.603,92.469 3.31,93.761 
		2.723,95.989 1.573,95.989 1.525,95.944 0.064,90.673 0.064,90.705 1.519,95.949 1.567,95.998 2.729,95.998 3.316,93.764 
		3.609,92.503 3.944,93.718 4.531,95.998 5.698,95.998 	"/>
	<path fill-rule="evenodd" clip-rule="evenodd" fill="#333333" d="M9.482,96.045l-0.485-0.146l-0.389-0.24l-0.389-0.341
		l-0.293-0.434l-0.24-0.488L7.59,93.86l-0.048-0.629L7.59,92.65l0.096-0.536l0.24-0.53l0.293-0.389l0.389-0.341l0.389-0.245
		l0.485-0.193l0.533-0.047l0.533,0.047l0.485,0.193l0.389,0.245l0.389,0.341l0.293,0.389l0.24,0.53l0.101,0.536l0.042,0.581
		l-0.042,0.629l-0.101,0.535l-0.24,0.488l-0.293,0.434l-0.389,0.341l-0.389,0.24l-0.485,0.146l-0.533,0.049L9.482,96.045
		L9.482,96.045z M9.578,91.776L9.578,91.776L9.386,91.92l-0.197,0.149l-0.096,0.241l-0.096,0.29l-0.048,0.293l-0.048,0.339
		l0.048,0.341l0.048,0.341l0.096,0.24l0.096,0.242l0.197,0.195l0.192,0.147l0.192,0.05l0.245,0.046l0.245-0.046l0.192-0.05
		l0.197-0.147l0.192-0.195l0.096-0.242l0.096-0.24l0.096-0.341v-0.341v-0.339l-0.096-0.293l-0.096-0.29l-0.096-0.241l-0.192-0.149
		l-0.197-0.144l-0.192-0.099h-0.245H9.77L9.578,91.776z"/>
	<path fill-rule="evenodd" clip-rule="evenodd" fill="#333333" d="M10.015,90.358l-0.538,0.048l-0.485,0.197l-0.389,0.245
		l-0.389,0.336L7.92,91.576l-0.245,0.536L7.579,92.65l-0.048,0.581l0.048,0.631l0.096,0.535l0.245,0.488l0.293,0.44l0.389,0.34
		l0.389,0.243l0.485,0.147l0.538,0.047l0.533-0.047l0.49-0.147l0.389-0.243l0.395-0.34l0.288-0.44l0.245-0.488l0.096-0.535
		l0.054-0.631l-0.054-0.581l-0.096-0.538l-0.245-0.536l-0.288-0.391l-0.395-0.336l-0.389-0.245l-0.49-0.197L10.015,90.358
		L10.015,90.358z M10.015,90.369L10.015,90.369l0.533,0.047l0.485,0.193l0.389,0.245l0.389,0.341l0.293,0.386l0.24,0.536
		l0.101,0.533l0.042,0.581l-0.042,0.631l-0.101,0.535l-0.24,0.483l-0.293,0.437l-0.389,0.341l-0.389,0.243l-0.485,0.143
		l-0.533,0.051l-0.533-0.051l-0.485-0.143l-0.389-0.243l-0.389-0.341L7.926,94.88l-0.24-0.483l-0.101-0.535l-0.042-0.631
		l0.042-0.581l0.101-0.533l0.24-0.536l0.293-0.386l0.389-0.341l0.389-0.245l0.485-0.193L10.015,90.369L10.015,90.369z M10.26,91.68
		l0.192,0.096l0.192,0.146l0.197,0.146l0.096,0.241l0.096,0.29l0.101,0.291v0.341v0.341l-0.101,0.341l-0.096,0.24l-0.096,0.244
		l-0.197,0.192l-0.192,0.147l-0.192,0.048l-0.245,0.046l-0.24-0.046l-0.197-0.048L9.386,94.59l-0.197-0.192l-0.096-0.244
		l-0.096-0.24l-0.054-0.341l-0.042-0.341l0.042-0.341l0.054-0.291l0.096-0.29l0.096-0.241l0.197-0.146l0.192-0.146l0.197-0.096h0.24
		H10.26L10.26,91.68L10.26,91.68z M10.015,94.825L10.015,94.825l-0.24-0.051l-0.192-0.045l-0.192-0.144L9.2,94.393l-0.096-0.245
		l-0.097-0.24l-0.052-0.34l-0.048-0.336l0.048-0.336l0.052-0.294l0.097-0.292L9.2,92.075l0.192-0.147l0.192-0.144l0.192-0.096h0.24
		h0.24l0.192,0.096l0.192,0.144l0.197,0.147l0.096,0.235l0.096,0.292l0.096,0.294v0.336v0.336l-0.096,0.34l-0.096,0.24l-0.096,0.245
		l-0.197,0.192l-0.187,0.144l-0.197,0.045L10.015,94.825z"/>
	<path fill-rule="evenodd" clip-rule="evenodd" fill="#333333" d="M10.015,90.369v0.008V90.369l-0.533,0.047l-0.485,0.195
		l-0.389,0.243l-0.389,0.338l-0.293,0.392l-0.24,0.53L7.584,92.65l-0.042,0.581l0.042,0.629l0.101,0.535l0.24,0.488l0.293,0.436
		l0.389,0.336l0.389,0.245l0.485,0.143l0.533,0.049l0.533-0.049l0.485-0.143l0.389-0.245l0.389-0.336l0.293-0.436l0.24-0.488
		l0.101-0.535l0.042-0.629l-0.042-0.581l-0.101-0.536l-0.24-0.53l-0.293-0.392l-0.389-0.338l-0.389-0.243l-0.485-0.195
		L10.015,90.369L10.015,90.369z M10.015,96.085L10.015,96.085l-0.533-0.05l-0.48-0.144l-0.389-0.239l-0.389-0.336l-0.288-0.437
		l-0.245-0.485L7.595,93.86l-0.048-0.629l0.048-0.581l0.096-0.533l0.245-0.533l0.288-0.384l0.389-0.339l0.389-0.242l0.48-0.192
		l0.533-0.049l0.533,0.049l0.485,0.192l0.384,0.242l0.389,0.339l0.288,0.384l0.245,0.533l0.096,0.533l0.048,0.581l-0.048,0.629
		l-0.096,0.533l-0.245,0.485l-0.288,0.437l-0.389,0.336l-0.384,0.239l-0.485,0.144L10.015,96.085L10.015,96.085z M10.26,91.669
		l0.197,0.098l0.192,0.147l0.197,0.144l0.005,0.006l0.097,0.242l0.096,0.291l0.096,0.293v0.002v0.339v0.341l-0.096,0.341v0.002
		l-0.096,0.24l-0.101,0.247l-0.197,0.195l-0.192,0.146l-0.197,0.049l-0.239,0.047h-0.006L9.77,94.793l-0.197-0.049l-0.192-0.146
		H9.375l-0.192-0.195l-0.006-0.006l-0.09-0.242l-0.101-0.242l-0.048-0.341L8.89,93.231l0.048-0.341l0.048-0.293l0.101-0.291
		l0.096-0.247l0.197-0.144l0.192-0.147l0.197-0.098h0.005h0.24H10.26L10.26,91.669L10.26,91.669z M10.015,94.833L10.015,94.833
		l-0.24-0.05l-0.197-0.045L9.386,94.59l-0.197-0.195l-0.096-0.242L8.997,93.91l-0.054-0.338l-0.042-0.341l0.042-0.339l0.054-0.291
		l0.096-0.29l0.096-0.247l0.197-0.144l0.192-0.144l0.197-0.096h0.24h0.245l0.192,0.096l0.192,0.144l0.197,0.144l0.096,0.247
		l0.096,0.29l0.101,0.291v0.339v0.341l-0.101,0.338l-0.096,0.243l-0.096,0.242l-0.197,0.195l-0.192,0.147l-0.192,0.045
		L10.015,94.833z"/>
	<polygon fill-rule="evenodd" clip-rule="evenodd" fill="#333333" points="52.738,95.998 52.738,90.513 54.098,90.513 
		54.098,90.997 54.391,90.71 54.683,90.513 54.972,90.416 55.313,90.369 55.606,90.416 55.894,90.464 56.139,90.561 56.33,90.71 
		55.995,92.018 55.798,91.92 55.558,91.824 55.313,91.776 55.073,91.727 54.875,91.776 54.683,91.824 54.487,91.92 54.343,92.069 
		54.248,92.213 54.199,92.456 54.151,92.698 54.098,93.037 54.098,95.998 	"/>
	<path fill-rule="evenodd" clip-rule="evenodd" fill="#333333" d="M55.313,90.361l-0.341,0.051l-0.293,0.093l-0.294,0.197
		l-0.277,0.275v-0.463v-0.009h-1.375v5.503h1.375v-2.968l0.049-0.341l0.053-0.24l0.043-0.243l0.101-0.144l0.139-0.141l0.192-0.098
		l0.192-0.046l0.197-0.05l0.241,0.05l0.24,0.046l0.245,0.098l0.192,0.096L56,92.031l0.342-1.326l-0.006-0.003l-0.192-0.146
		l-0.245-0.099l-0.293-0.045L55.313,90.361L55.313,90.361z M54.103,90.997L54.103,90.997l0.289-0.29l0.292-0.194l0.289-0.097
		l0.341-0.047l0.292,0.047l0.289,0.048l0.244,0.097l0.192,0.146l-0.335,1.309l-0.192-0.096l-0.246-0.096l-0.244-0.048l-0.241-0.049
		l-0.197,0.049l-0.192,0.048l-0.196,0.096l-0.144,0.146l-0.095,0.144l-0.054,0.242l-0.047,0.246l-0.043,0.341v2.958h-1.358v-5.484
		h1.358V90.997z"/>
	<path fill-rule="evenodd" clip-rule="evenodd" fill="#333333" d="M55.313,90.369l-0.341,0.047l-0.289,0.097l-0.292,0.194
		l-0.293,0.29v-0.484h-1.36v5.484h1.36v-2.958l0.053-0.341l0.049-0.246l0.048-0.242l0.095-0.144l0.144-0.146l0.196-0.096
		l0.192-0.048l0.197-0.049l0.241,0.049l0.244,0.048l0.24,0.096l0.198,0.096l0.335-1.309l-0.192-0.146l-0.24-0.097l-0.293-0.048
		L55.313,90.369L55.313,90.369z M54.093,91.019L54.093,91.019l0.304-0.304l0.287-0.192l0.293-0.095l0.337-0.051l0.288,0.051
		l0.293,0.047l0.24,0.096l0.192,0.141l-0.336,1.293l-0.186-0.091l-0.246-0.101l-0.239-0.048l-0.246-0.048l-0.197,0.048l-0.196,0.048
		l-0.192,0.101l-0.149,0.146l-0.101,0.147l-0.048,0.245l-0.048,0.246l-0.048,0.336v2.952h-1.344v-5.464h1.344v0.474V91.019z"/>
	<polygon fill-rule="evenodd" clip-rule="evenodd" fill="#333333" points="43.956,95.998 43.321,93.716 43.028,92.501 42.74,93.764 
		42.105,95.998 40.944,95.998 40.944,95.949 39.388,90.513 40.8,90.513 41.285,92.551 41.573,93.913 41.721,93.183 41.913,92.501 
		42.495,90.513 43.614,90.513 44.195,92.501 44.537,93.913 44.824,92.501 45.314,90.513 46.673,90.513 45.117,95.998 	"/>
	<path fill-rule="evenodd" clip-rule="evenodd" fill="#333333" d="M46.684,90.508h-1.38l-0.485,1.993l0.011,0.002l-0.011-0.002
		l-0.282,1.367l-0.331-1.367l-0.586-1.993h-1.129l-0.586,1.993l-0.192,0.679l-0.139,0.685l-0.284-1.316l-0.484-2.041h-1.429
		l1.556,5.442v0.048v0.01h1.184l0.628-2.241l0.289-1.223l0.277,1.172l0.634,2.292h1.177L46.684,90.508L46.684,90.508z
		 M44.537,93.913L44.537,93.913l0.293-1.41l0.484-1.99h1.36l-1.556,5.484h-1.162l-0.635-2.282l-0.293-1.212l-0.288,1.261
		l-0.629,2.233h-1.167v-0.048l-1.557-5.436h1.407l0.485,2.041l0.293,1.359l0.144-0.73l0.196-0.68l0.582-1.99h1.119l0.581,1.99
		L44.537,93.913z"/>
	<path fill-rule="evenodd" clip-rule="evenodd" fill="#333333" d="M46.673,90.513h-1.36l-0.484,1.988l-0.293,1.409l-0.341-1.409
		l-0.581-1.988h-1.119l-0.582,1.988l-0.192,0.682l-0.148,0.727l-0.288-1.359l-0.49-2.038h-1.407l1.557,5.436v0.048h1.161
		l0.635-2.233l0.288-1.263l0.293,1.215l0.629,2.282h1.167L46.673,90.513L46.673,90.513z M44.834,92.507L44.834,92.507l0.486-1.984
		h1.343l-1.551,5.466H43.96l-0.628-2.276l-0.304-1.25l-0.299,1.301L42.1,95.989h-1.146v-0.039v-0.003l-1.556-5.423h1.391
		l0.485,2.031l0.299,1.402l0.155-0.773l0.192-0.677l0.581-1.984h1.103l0.581,1.984l0.352,1.444L44.834,92.507z"/>
	<path fill-rule="evenodd" clip-rule="evenodd" fill="#333333" d="M48.906,96.045l-0.49-0.146l-0.432-0.24l-0.341-0.341
		l-0.293-0.434l-0.24-0.488l-0.149-0.535l-0.047-0.629l0.047-0.581l0.149-0.536l0.24-0.487l0.293-0.432l0.341-0.341l0.432-0.245
		l0.49-0.193l0.533-0.047l0.486,0.047l0.485,0.193l0.437,0.245l0.341,0.341l0.341,0.432l0.192,0.487l0.144,0.536l0.048,0.581
		l-0.048,0.629l-0.144,0.535l-0.192,0.488l-0.341,0.434l-0.341,0.341l-0.437,0.24l-0.485,0.146l-0.486,0.049L48.906,96.045
		L48.906,96.045z M48.955,91.776L48.955,91.776l-0.198,0.144l-0.143,0.144l-0.144,0.245l-0.097,0.29l-0.048,0.293v0.339v0.341
		l0.048,0.338l0.097,0.243l0.144,0.242l0.143,0.195l0.198,0.147l0.24,0.045l0.244,0.05l0.246-0.05l0.192-0.045l0.192-0.147
		l0.15-0.195l0.143-0.242l0.097-0.243l0.048-0.338v-0.341v-0.339l-0.048-0.293l-0.097-0.29l-0.143-0.245l-0.15-0.144l-0.192-0.144
		l-0.192-0.099h-0.246h-0.244L48.955,91.776z"/>
	<path fill-rule="evenodd" clip-rule="evenodd" fill="#333333" d="M49.439,90.358l-0.538,0.048l-0.485,0.197l-0.437,0.24
		l-0.341,0.346l-0.293,0.437L47.1,92.112l-0.143,0.533l-0.048,0.586l0.048,0.631l0.143,0.535l0.246,0.488l0.293,0.437l0.341,0.343
		l0.437,0.243l0.485,0.147l0.538,0.047l0.491-0.047l0.486-0.147l0.436-0.243l0.341-0.343l0.342-0.437l0.197-0.488l0.144-0.535
		l0.048-0.631l-0.048-0.586l-0.144-0.533l-0.197-0.485l-0.342-0.437l-0.341-0.346l-0.436-0.24l-0.486-0.197L49.439,90.358
		L49.439,90.358z M49.439,90.369L49.439,90.369l0.486,0.047l0.485,0.193l0.437,0.245l0.341,0.341l0.341,0.437l0.192,0.485
		l0.149,0.533l0.042,0.581l-0.042,0.631l-0.149,0.533l-0.192,0.485l-0.341,0.437l-0.341,0.341l-0.437,0.243l-0.485,0.143
		l-0.486,0.051l-0.533-0.051l-0.49-0.143l-0.432-0.243l-0.341-0.341L47.35,94.88l-0.24-0.485l-0.149-0.533l-0.047-0.631l0.047-0.581
		l0.149-0.533l0.24-0.485l0.293-0.437l0.341-0.341l0.432-0.245l0.49-0.193L49.439,90.369L49.439,90.369z M49.685,91.677l0.192,0.099
		l0.192,0.144l0.15,0.149l0.143,0.241l0.097,0.29l0.048,0.291v0.341v0.341l-0.048,0.335l-0.097,0.246l-0.143,0.242l-0.15,0.195
		l-0.192,0.147l-0.192,0.045l-0.246,0.048l-0.244-0.048l-0.24-0.045l-0.198-0.147l-0.143-0.195l-0.144-0.242l-0.097-0.246
		l-0.048-0.335v-0.341V92.89l0.048-0.291l0.097-0.29l0.144-0.241l0.143-0.149l0.198-0.144l0.24-0.099h0.244H49.685L49.685,91.677
		L49.685,91.677z M49.439,94.825L49.439,94.825L49.2,94.774l-0.245-0.045l-0.192-0.144l-0.144-0.192l-0.144-0.245l-0.096-0.24
		l-0.048-0.335v-0.341V92.89l0.048-0.289l0.096-0.287l0.144-0.24l0.144-0.147l0.197-0.144l0.24-0.096h0.239h0.24l0.192,0.096
		l0.193,0.144l0.144,0.147l0.144,0.24l0.096,0.287L50.5,92.89v0.341v0.341l-0.053,0.335l-0.096,0.24l-0.144,0.245l-0.144,0.192
		l-0.193,0.144l-0.192,0.045L49.439,94.825z"/>
	<path fill-rule="evenodd" clip-rule="evenodd" fill="#333333" d="M49.439,90.369v0.008V90.369l-0.533,0.045l-0.49,0.197
		l-0.432,0.243l-0.341,0.338l-0.293,0.437l-0.24,0.485l-0.149,0.533l-0.047,0.584l0.047,0.629l0.149,0.535l0.24,0.488l0.293,0.436
		l0.341,0.336l0.432,0.245l0.49,0.143l0.533,0.049l0.486-0.049l0.485-0.143l0.437-0.245l0.341-0.336l0.341-0.436l0.192-0.488
		l0.149-0.535l0.042-0.629l-0.042-0.584l-0.149-0.533l-0.192-0.485l-0.341-0.437l-0.341-0.338l-0.437-0.243l-0.485-0.197
		L49.439,90.369L49.439,90.369z M49.439,96.085L49.439,96.085l-0.533-0.05l-0.484-0.144l-0.432-0.239l-0.341-0.336l-0.288-0.437
		l-0.245-0.485l-0.144-0.533l-0.048-0.629l0.048-0.581l0.144-0.533l0.245-0.483l0.288-0.437l0.341-0.338l0.432-0.24l0.484-0.192
		l0.533-0.049l0.486,0.049l0.479,0.192l0.437,0.24l0.341,0.341l0.335,0.434l0.192,0.483l0.149,0.533l0.048,0.581l-0.048,0.629
		l-0.149,0.533l-0.192,0.485l-0.335,0.432l-0.341,0.341l-0.437,0.239l-0.479,0.144L49.439,96.085L49.439,96.085z M49.685,91.669
		l0.197,0.098l0.196,0.147l0.144,0.144v0.006l0.149,0.242l0.096,0.291v0.005l0.048,0.289v0.341v0.341l-0.048,0.341l-0.096,0.242
		v0.002l-0.149,0.245l-0.144,0.195h-0.005l-0.197,0.146l-0.192,0.049l-0.246,0.047h-0.005l-0.24-0.047l-0.245-0.049l-0.197-0.146
		v-0.003l-0.144-0.192l-0.15-0.247l-0.096-0.242V93.91l-0.048-0.338v-0.003v-0.338V92.89l0.048-0.293l0.096-0.291v-0.002l0.15-0.245
		l0.144-0.144l0.197-0.147l0.245-0.098h0.244H49.685L49.685,91.669L49.685,91.669z M49.439,94.833L49.439,94.833l-0.244-0.05
		l-0.24-0.048l-0.198-0.144l-0.143-0.195l-0.144-0.242l-0.097-0.243l-0.048-0.341v-0.338V92.89l0.048-0.289l0.097-0.292l0.144-0.245
		l0.143-0.144l0.198-0.144l0.24-0.096h0.244h0.246l0.192,0.096l0.192,0.144l0.15,0.144l0.143,0.245l0.097,0.292l0.048,0.289v0.341
		v0.338l-0.048,0.341l-0.097,0.243l-0.143,0.242l-0.15,0.195l-0.192,0.144l-0.192,0.048L49.439,94.833z"/>
	<polygon fill-rule="evenodd" clip-rule="evenodd" fill="#333333" points="20.792,95.998 19.63,93.423 18.948,94.345 18.948,95.998 
		17.589,95.998 17.589,88.914 18.948,88.234 18.948,92.601 19.433,91.92 20.504,90.513 22.103,90.513 20.648,92.309 22.3,95.998 	
		"/>
	<path fill-rule="evenodd" clip-rule="evenodd" fill="#333333" d="M18.958,88.218l-1.374,0.688v7.102h1.374v-1.657l0.672-0.907
		l1.156,2.563h1.524l-1.652-3.696l1.465-1.807h-0.021v0.009v-0.009h-1.604l-1.071,1.41l-0.469,0.658V88.218L18.958,88.218z
		 M17.589,95.998L17.589,95.998v-7.083l1.359-0.68v4.367l0.485-0.681l1.066-1.407h1.604l-1.455,1.796l1.652,3.688h-1.508
		l-1.162-2.575l-0.682,0.922v1.652H17.589z"/>
	<path fill-rule="evenodd" clip-rule="evenodd" fill="#333333" d="M18.948,88.232l-1.359,0.682v7.083h1.359v-1.647l0.682-0.925
		l1.162,2.572h1.503l-1.647-3.688l1.455-1.796h-1.599l-1.072,1.407l-0.485,0.681V88.232L18.948,88.232z M17.6,95.986L17.6,95.986
		v-7.068l1.343-0.671v4.382l0.501-0.703l1.066-1.403h1.577l-1.45,1.786l1.647,3.677h-1.486l-1.167-2.58l-0.688,0.939v1.641H17.6z"/>
	<rect x="23.126" y="90.51" fill-rule="evenodd" clip-rule="evenodd" fill="#333333" width="1.359" height="5.488"/>
	<path fill-rule="evenodd" clip-rule="evenodd" fill="#333333" d="M23.126,90.513h1.359v5.484h-1.359V90.513L23.126,90.513z
		 M23.116,90.504L23.116,90.504v5.503h0.011h1.365v-5.503H23.116z"/>
	<path fill-rule="evenodd" clip-rule="evenodd" fill="#333333" d="M23.126,95.998h0.005H23.126L23.126,95.998z M23.131,90.521
		L23.131,90.521h1.344v5.463h-1.344V90.521L23.131,90.521z M23.126,95.998L23.126,95.998h1.359V90.51h-1.359V95.998z"/>
	<rect x="23.126" y="88.376" fill-rule="evenodd" clip-rule="evenodd" fill="#333333" width="1.359" height="1.358"/>
	<path fill-rule="evenodd" clip-rule="evenodd" fill="#333333" d="M23.126,88.378h1.359v1.359h-1.359V88.378L23.126,88.378z
		 M24.485,88.378L24.485,88.378h-0.011H24.485L24.485,88.378z M24.485,88.368L24.485,88.368h-1.37v1.378h1.38v-1.378H24.485z"/>
	<path fill-rule="evenodd" clip-rule="evenodd" fill="#333333" d="M23.131,88.386h1.344v1.34h-1.344V88.386L23.131,88.386z
		 M23.126,89.734L23.126,89.734h1.359v-1.358h-1.359V89.734z"/>
	<polygon fill-rule="evenodd" clip-rule="evenodd" fill="#333333" points="57.013,88.914 57.013,95.998 58.373,95.998 
		58.373,88.232 	"/>
	<path fill-rule="evenodd" clip-rule="evenodd" fill="#333333" d="M57.013,88.914l1.36-0.682v7.766h-1.36V88.914L57.013,88.914z
		 M57.003,88.906L57.003,88.906v7.102h0.01h1.37v-7.79L57.003,88.906z"/>
	<path fill-rule="evenodd" clip-rule="evenodd" fill="#333333" d="M57.013,95.998h0.011H57.013L57.013,95.998z M57.024,88.919
		L57.024,88.919l1.338-0.671v7.739h-1.338V88.919L57.024,88.919z M57.013,88.914L57.013,88.914v7.083h1.36v-7.766L57.013,88.914z"/>
	<polygon fill-rule="evenodd" clip-rule="evenodd" fill="#333333" points="0.064,31.194 85.506,0.014 85.512,0.014 85.512,16.123 
		0.064,31.205 	"/>
	<path fill-rule="evenodd" clip-rule="evenodd" fill="#333333" d="M85.522,0L0.011,31.205l0.006,0.018l85.506-15.093V0L85.522,0z
		 M0.064,31.205L0.064,31.205v-0.011L85.506,0.014h0.006v16.109L0.064,31.205z"/>
	<path fill-rule="evenodd" clip-rule="evenodd" fill="#333333" d="M85.512,0.015h-0.006L0.064,31.196v0.011l85.447-15.084V0.015
		L85.512,0.015z M0.112,31.187L0.112,31.187L85.506,0.025v16.089L0.112,31.187z"/>
	<polygon fill-rule="evenodd" clip-rule="evenodd" fill="#333333" points="0.549,71.346 0.549,40.481 18.074,40.481 22.151,47.566 
		9.77,47.566 9.77,52.663 20.989,52.663 20.989,59.164 9.77,59.164 9.77,64.261 25.258,64.261 25.258,71.346 	"/>
	<path fill-rule="evenodd" clip-rule="evenodd" fill="#333333" d="M18.079,40.474H0.538v30.88h24.73V64.25H9.78v-5.075H21v-6.523
		H9.78v-5.075h12.387L18.079,40.474L18.079,40.474z M0.549,71.346L0.549,71.346V40.481h17.525l4.078,7.085H9.77v5.097h11.219v6.501
		H9.77v5.097h15.488v7.085H0.549z"/>
	<path fill-rule="evenodd" clip-rule="evenodd" fill="#333333" d="M18.074,40.483H0.549v30.861h24.715v-7.083H9.77v-5.095h11.219
		v-6.502H9.77v-5.095h12.381L18.074,40.483L18.074,40.483z M0.554,71.336L0.554,71.336V40.49h17.514l4.066,7.066H9.764v5.114h11.214
		v6.484H9.764v0.011H9.77H9.764v5.103h15.483v7.068H0.554z"/>
	<polygon fill-rule="evenodd" clip-rule="evenodd" fill="#333333" points="31.766,71.346 31.766,59.164 20.989,40.481 
		31.233,40.481 36.43,50.576 41.674,40.481 51.816,40.481 40.991,59.164 40.991,71.346 	"/>
	<path fill-rule="evenodd" clip-rule="evenodd" fill="#333333" d="M51.832,40.474H41.669l-0.006,0.005L36.43,50.557l-5.192-10.083
		H20.973l10.788,18.693v12.186h9.241V59.167L51.832,40.474L51.832,40.474z M36.43,50.576L36.43,50.576l5.244-10.095h10.142
		L40.991,59.164v12.182h-9.225V59.164L20.989,40.481h10.244L36.43,50.576z"/>
	<path fill-rule="evenodd" clip-rule="evenodd" fill="#333333" d="M51.822,40.483H41.669l-5.245,10.091l-5.191-10.091H20.984
		l10.783,18.682v12.182h9.225V59.165L51.822,40.483L51.822,40.483z M41.674,40.49L41.674,40.49h10.133L40.981,59.163v12.174h-9.205
		V59.163L21.005,40.49h10.223l5.197,10.106L41.674,40.49z"/>
	<path fill-rule="evenodd" clip-rule="evenodd" fill="#333333" d="M33.029,90.406l-0.394,0.144l-0.389,0.247l-0.293,0.344
		l-0.24,0.384l-0.202,0.491l-0.09,0.533l-0.048,0.634l0.048,0.633l0.09,0.581l0.155,0.537l0.24,0.392l0.341,0.34l0.341,0.241
		l0.442,0.146l0.485,0.05h0.341l0.292-0.146l0.341-0.147l0.23-0.229v0.126v0.483l-0.096,0.239l-0.096,0.192l-0.239,0.192
		l-0.293,0.197l-0.432,0.091l-0.581,0.053h-0.048h-0.016l0.496,1.084l0.64-0.048l0.533-0.146l0.491-0.195l0.192-0.146v-0.006
		l0.197-0.189l0.144-0.146l0.15-0.195l0.192-0.487l0.095-0.581l0.053-0.634v-4.96h-1.38v0.371l-0.23-0.223l-0.292-0.147
		l-0.341-0.098l-0.341-0.048L33.029,90.406L33.029,90.406z M33.424,94.777L33.424,94.777l-0.149-0.099l-0.192-0.141l-0.14-0.24
		l-0.101-0.29l-0.048-0.391l-0.047-0.48l0.047-0.389l0.048-0.384l0.101-0.245l0.14-0.192l0.149-0.145l0.192-0.096l0.192-0.048h0.139
		l0.341,0.048l0.288,0.147l0.192,0.141l0.144,0.196v2.127l-0.144,0.189l-0.24,0.192l-0.24,0.147h-0.341h-0.139L33.424,94.777
		L33.424,94.777z M34.73,92.162L34.73,92.162h-0.011H34.73L34.73,92.162z M28.03,90.406L28.03,90.406l-0.341,0.098h-0.006
		l-0.341,0.197l-0.277,0.227V90.51v-0.006H25.69v5.498h1.375v-3.059h-0.01h0.01h-0.01h0.01l0.054-0.293l0.047-0.293l0.043-0.19
		l0.148-0.194l0.139-0.145l0.149-0.095l0.24-0.097h0.24h0.239l0.192,0.097l0.144,0.095l0.143,0.145l0.096,0.149l0.101,0.24
		l0.043,0.288v0.293v3.059h1.38V92.89l-0.048-0.584l-0.096-0.482l-0.148-0.44l-0.192-0.391l-0.299-0.245l-0.341-0.197l-0.437-0.144
		l-0.437-0.048L28.03,90.406z"/>
	<g>
		<defs>
			<path id="SVGID_1_" d="M28.025,90.407l-0.341,0.098l-0.341,0.2l-0.278,0.224v-0.415v-0.008h-1.38v5.503h1.38v-3.065H27.06h0.005
				H27.06h0.005l0.049-0.292l0.053-0.293l0.043-0.192l0.144-0.189l0.149-0.147l0.144-0.093l0.24-0.099h0.24h0.24l0.192,0.099
				l0.144,0.093l0.144,0.147l0.096,0.143l0.101,0.242l0.042,0.289v0.292v3.065h1.38V92.89l-0.048-0.584l-0.101-0.487l-0.143-0.437
				l-0.198-0.392l-0.292-0.242l-0.341-0.192l-0.437-0.149l-0.437-0.048L28.025,90.407L28.025,90.407z M34.73,92.16L34.73,92.16
				h-0.011H34.73L34.73,92.16z M33.419,94.777L33.419,94.777l-0.144-0.101l-0.192-0.139l-0.139-0.239l-0.101-0.291l-0.048-0.391
				l-0.047-0.483l0.047-0.386l0.048-0.385l0.101-0.245l0.139-0.192l0.15-0.141l0.186-0.099l0.192-0.048h0.149l0.336,0.048
				l0.288,0.144l0.192,0.147l0.144,0.194v2.127l-0.144,0.189l-0.239,0.189l-0.24,0.15H33.76H33.61L33.419,94.777L33.419,94.777z
				 M33.024,90.407L33.024,90.407l-0.389,0.149l-0.389,0.24l-0.293,0.346l-0.24,0.384l-0.202,0.487l-0.091,0.536l-0.048,0.634
				l0.048,0.631l0.091,0.581l0.149,0.541l0.245,0.39l0.341,0.34l0.341,0.241l0.437,0.149l0.496,0.047h0.335h0.006l0.287-0.146
				l0.341-0.147l0.23-0.229v0.122v0.486l-0.096,0.242l-0.101,0.192l-0.239,0.189l-0.288,0.194l-0.431,0.093l-0.581,0.053h-0.054
				h-0.011l0.458,1.013h0.768l0.442-0.122l0.485-0.198l0.197-0.143l0.197-0.192l0.144-0.149l0.143-0.192l0.198-0.49l0.095-0.584
				l0.048-0.631v-4.96h-1.374v0.376l-0.23-0.232l-0.292-0.143l-0.336-0.098l-0.341-0.048L33.024,90.407z"/>
		</defs>
		<use xlink:href="#SVGID_1_"  overflow="visible" fill-rule="evenodd" clip-rule="evenodd" fill="#333333"/>
		<clipPath id="SVGID_2_">
			<use xlink:href="#SVGID_1_"  overflow="visible"/>
		</clipPath>
		<g transform="matrix(1 0 0 1 0 3.814697e-06)" clip-path="url(#SVGID_2_)">
			
				<image overflow="visible" width="17" height="13" xlink:href="84EBFFE9.jpg"  transform="matrix(0.6262 0 0 -0.6259 25.5947 53.7912)">
			</image>
		</g>
	</g>
</g>
</svg>
