<?xml version="1.0" encoding="utf-8"?>
<!-- Generator: Adobe Illustrator 22.0.1, SVG Export Plug-In . SVG Version: 6.00 Build 0)  -->
<svg version="1.1" id="_x3C_Layer_x3E_" xmlns="http://www.w3.org/2000/svg" xmlns:xlink="http://www.w3.org/1999/xlink" x="0px"
	 y="0px" viewBox="0 0 130.995 58.249" enable-background="new 0 0 130.995 58.249" xml:space="preserve">
<g>
	<path fill="#333333" d="M5.601,7.595c2.515-3.93,6.642-7.598,11.607-7.533c1.926-0.393,3.707,1.218,5.594,0.563
		c2.625-0.919,5.504-0.783,8.03,0.38c2.118-0.866,4.433-1.138,6.694-0.786c4.493,0.969,7.86,4.546,10.113,8.397
		c4.939,8.567,5.764,18.93,4.349,28.558c-1.218,6.786-3.825,13.794-9.262,18.34c-3.318,2.797-7.927,3.491-11.921,1.795
		c-1.52,0.626-3.15,0.942-4.795,0.93c-1.49-0.077-2.958-0.391-4.349-0.93c-2.742,1.219-5.866,1.252-8.633,0.092
		C8.81,55.62,5.941,51.756,3.95,47.76c-3.629-7.454-4.493-15.995-3.655-24.157C0.823,17.933,2.638,12.458,5.601,7.595z
		 M8.902,10.451c-3.838,8.122-4.546,17.436-3.327,26.2c1.31,8.148,4.834,16.454,11.646,21.432
		c5.685-4.127,9.091-10.716,10.808-17.41c1.972-8.105,1.832-16.58-0.406-24.615c-0.996-2.62,0.983-4.991,1.965-7.271
		c3.326,6.267,4.998,13.278,4.86,20.371c0.091,6.777-1.451,13.476-4.493,19.532c-0.454,0.651-0.836,1.35-1.14,2.083
		c0.183,0.747,0.865,1.31,1.061,2.017c-0.585,0.941-1.265,1.819-2.031,2.62c-0.511-0.472-1.009-0.969-1.546-1.402
		c-0.904,0.563-1.624,1.31-2.463,2.017c0.699,0.821,1.511,1.54,2.41,2.135c3.815-2.915,6.807-6.769,8.685-11.188
		c2.514-5.993,3.694-12.461,3.458-18.956c-0.197-7.86-2.044-15.982-6.812-22.388c0.572-1.017,1.343-1.908,2.266-2.62
		c1.706,1.475,3.165,3.213,4.323,5.148c3.735,6.501,5.552,13.927,5.24,21.419c0.121,5.43-0.832,10.83-2.803,15.89
		c-1.486,3.986-3.972,7.522-7.218,10.271c-0.367,1.166,1.402,1.664,2.109,2.332c3.901-2.962,6.936-6.916,8.79-11.45
		c2.345-5.783,3.482-11.984,3.341-18.222c-0.092-2.989-0.412-5.967-0.956-8.908c-1.441-7.402-4.991-14.751-11.161-19.323
		c-1.814,1.137-3.404,2.598-4.69,4.31c-5.358,6.825-7.624,15.72-7.519,24.275c-0.152,4.695,0.476,9.384,1.86,13.873
		c0.206,0.469,0.274,0.987,0.197,1.493c-0.651,1.786-1.399,3.535-2.24,5.24c-3.059-5.464-4.732-11.595-4.873-17.855
		c-0.328-8.266,1.035-16.952,5.62-23.986c-0.393-0.7-0.831-1.374-1.31-2.017c0.649-0.934,1.377-1.81,2.175-2.62l1.638,1.493
		c0.743-0.768,1.539-1.482,2.384-2.135c-0.758-0.756-1.554-1.473-2.384-2.148c-2.022,1.406-3.794,3.142-5.24,5.135
		c-5.017,6.707-7.022,15.262-7.009,23.58c0.013,8.319,1.664,16.428,6.262,23.187c0.969,1.31-0.996,2.371-1.611,3.406
		c-4.48-3.812-6.982-9.419-8.41-15.013c-1.989-8.28-1.732-16.94,0.747-25.087c1.436-5.067,4.361-9.586,8.397-12.969
		c-0.445-0.983-1.52-1.454-2.293-2.148C13.607,2.839,10.748,6.374,8.902,10.451z"/>
	<path fill="#333333" d="M64.551,11.63c4.166-0.314,8.345,0.066,12.524-0.118h2.306c0,0.354,0,1.048,0,1.402
		c-1.008,0.064-1.971,0.445-2.751,1.087c-0.489,0.729-0.719,1.601-0.655,2.476c0,7.611,0.118,15.157,0,22.663
		c-0.367,2.62-1.389,5.515-3.825,6.943c-3.139,1.698-6.865,1.933-10.192,0.642c-2.869-1.087-4.415-4.127-4.755-7.035h1.703
		c0.321,1.169,0.961,2.225,1.847,3.052c1.859,1.751,4.786,1.664,6.537-0.196c0.004-0.005,0.009-0.009,0.013-0.014
		c0.882-1.508,1.284-3.249,1.153-4.991c0-6.917,0-13.847,0-20.764c0-1.179-0.105-2.725-1.31-3.262
		c-0.835-0.274-1.695-0.467-2.568-0.576C64.565,12.665,64.551,12.01,64.551,11.63z"/>
	<path fill="#333333" d="M81.516,11.63c4.965,0,9.943-0.183,14.895,0c0,0.432,0,0.865,0,1.31c-1.651,0.118-3.93,0.616-3.812,2.738
		c-0.223,7.271,0,14.541-0.105,21.812c0,1.913-0.197,4.048,0.943,5.712c1.933,0.654,3.993,0.843,6.013,0.55
		c2.32-0.345,4.279-1.904,5.135-4.087h1.808c-0.852,2.266-1.598,4.572-2.397,6.851H81.555c0-0.432,0-0.865,0-1.31
		c0.981-0.076,1.919-0.435,2.699-1.035c0.544-0.76,0.8-1.689,0.721-2.62c0-8.262,0-16.524,0-24.785
		c0.111-0.981-0.141-1.969-0.707-2.777c-0.754-0.593-1.665-0.952-2.62-1.035C81.542,12.547,81.529,12.102,81.516,11.63z"/>
	<path fill="#333333" d="M106.105,11.722c3.603-0.314,7.218,0,10.821-0.157c1.382-0.054,2.765-0.006,4.14,0.144
		c0,0.419,0,0.838,0,1.31c-1.127,0.275-2.502,0.21-3.314,1.14c-0.509,1.101-0.717,2.317-0.603,3.524c0,7.039,0,14.083,0,21.131
		c-0.103,1.334,0.085,2.675,0.55,3.93c0.829,0.896,2.037,1.34,3.249,1.192c1.748,0.224,3.525-0.002,5.161-0.655
		c1.396-0.784,2.493-2.01,3.118-3.485h1.769c-0.76,2.293-1.585,4.572-2.345,6.864c-7.48,0-14.96,0-22.454,0
		c0-0.419-0.066-0.838-0.105-1.31c1.016-0.092,1.985-0.474,2.79-1.1c0.629-0.895,0.896-1.995,0.747-3.079c0-8.345,0-16.69,0-25.034
		c0.022-1.036-0.468-2.016-1.31-2.62l-2.214-0.576C106.105,12.639,106.105,12.036,106.105,11.722z"/>
</g>
</svg>
