<?xml version="1.0" encoding="utf-8"?>
<!-- Generator: Adobe Illustrator 22.0.1, SVG Export Plug-In . SVG Version: 6.00 Build 0)  -->
<svg version="1.1" id="Layer_1" xmlns="http://www.w3.org/2000/svg" xmlns:xlink="http://www.w3.org/1999/xlink" x="0px" y="0px"
	 viewBox="0 0 215 28.292" enable-background="new 0 0 215 28.292" xml:space="preserve">
<g>
	<path fill="#FFFFFF" d="M61.18,7.71c-1.794,0-3.617,0.807-4.843,2.033c-1.255,1.255-1.913,2.929-1.913,4.753
		c0,1.913,0.688,3.617,1.913,4.842c1.255,1.256,3.049,2.033,4.843,2.033c1.255,0,2.361-0.329,3.378-0.896v-2.93
		c-0.897,0.897-2.153,1.465-3.378,1.465c-1.255,0-2.362-0.448-3.169-1.346c-0.807-0.777-1.255-1.913-1.255-3.169
		c0-1.136,0.448-2.271,1.255-3.169c0.778-0.778,1.913-1.255,3.169-1.255c1.255,0,2.361,0.448,3.169,1.255
		c0.777,0.897,1.345,2.033,1.345,3.169v6.546h2.362v-6.546c0-1.824-0.778-3.528-2.033-4.753C64.767,8.487,63.093,7.71,61.18,7.71z"
		/>
	<path fill="#FFFFFF" d="M76.096,7.71c-1.794,0-3.617,0.807-4.842,2.033c-1.256,1.255-1.913,2.929-1.913,4.753
		c0,1.913,0.687,3.617,1.913,4.842c1.255,1.256,3.049,2.033,4.842,2.033c0.688,0,1.255-0.12,1.793-0.239
		c0.568-0.12,1.017-0.329,1.584-0.688v-2.929c-0.449,0.448-0.896,0.777-1.465,1.016c-0.568,0.329-1.255,0.448-1.913,0.448
		c-1.256,0-2.362-0.448-3.169-1.345c-0.778-0.778-1.255-1.913-1.255-3.169c0-1.137,0.448-2.272,1.255-3.169
		c0.777-0.777,1.913-1.255,3.169-1.255c1.255,0,2.362,0.449,3.168,1.255c0.778,0.897,1.345,2.033,1.345,3.169
		c0,2.361,0,4.753,0,7.115c0,0.777-0.328,1.704-0.777,2.481c-0.568,0.688-1.226,1.255-2.153,1.584
		c-0.777,0.329-1.704,0.329-2.6,0.239c-1.017-0.12-2.153-0.449-3.288-0.897l-0.778,2.242c1.255,0.448,2.6,0.897,3.946,1.017
		c1.136,0.119,2.271,0,3.378-0.329c1.345-0.449,2.481-1.256,3.288-2.362c0.777-1.136,1.345-2.481,1.345-3.826
		c0-0.239,0-0.329,0-0.568v-6.666c0-1.824-0.807-3.528-2.033-4.753C79.683,8.487,78.009,7.71,76.096,7.71z"/>
	<path fill="#FFFFFF" d="M7.682,9.264v7.354c0,0.778-0.329,1.465-0.777,1.913c-0.448,0.448-1.136,0.778-1.793,0.778
		c-0.778,0-1.466-0.239-2.033-0.778c-0.808-0.778-0.808-1.584-0.808-2.72H0c0,1.704,0,3.049,1.345,4.184
		c1.076,1.046,2.541,1.375,3.767,1.375c1.464,0,2.72-0.449,3.617-1.256c0.807-0.776,1.345-1.913,1.345-3.288V8.008H8.938
		C8.25,8.008,7.682,8.457,7.682,9.264z"/>
	<path fill="#FFFFFF" d="M48.266,7.71c-2.153,0-3.497,1.016-4.066,1.913c-0.538-0.897-1.883-1.913-4.036-1.913
		c-1.345,0-2.601,0.448-3.497,1.255c-0.807,0.778-1.345,1.794-1.345,3.169v8.938h2.361v-8.699c0-0.687,0.329-1.345,0.778-1.794
		c0.568-0.568,1.255-0.777,1.913-0.777c0.687,0,1.345,0.238,1.913,0.777c0.448,0.448,0.807,1.136,0.807,1.794v8.699h2.272v-8.699
		c0-0.687,0.329-1.345,0.777-1.794c0.568-0.568,1.256-0.777,1.913-0.777c0.688,0,1.345,0.238,1.913,0.777
		c0.448,0.448,0.777,1.136,0.777,1.794v8.699h2.362v-8.938c0-1.345-0.568-2.361-1.345-3.169C50.866,8.158,49.611,7.71,48.266,7.71z"
		/>
	<path fill="#FFFFFF" d="M17.546,10.983c1.974,0,3.049,1.171,3.766,2.674c0.332,0.693,0.532,1.437,0.83,2.143
		c1.041,2.515,2.89,4.204,5.708,4.204c3.397,0,6.156-2.775,6.156-6.134c0-3.405-2.754-6.159-6.152-6.159
		c-1.743,0-3.314,0.728-4.433,1.894c-1.019-1.046-2.441-1.894-4.751-1.894c-2.325-0.001-4.643,1.102-5.793,2.916
		c1.322-1.332,3.004-1.956,4.679-1.953c2.912,0.005,5.071,1.824,6.097,4.511c0.422-2.302,2.277-3.573,4.201-3.573
		c2.35,0,4.251,1.906,4.251,4.253c0,2.3-1.916,4.235-4.255,4.231c-1.974,0-3.049-1.171-3.766-2.674
		c-0.332-0.693-0.533-1.437-0.83-2.143c-1.041-2.514-2.89-4.203-5.708-4.203c-3.397,0-6.156,2.775-6.156,6.133
		c0,3.405,2.754,6.16,6.152,6.16c1.743,0,3.313-0.729,4.433-1.895c1.019,1.046,2.44,1.895,4.75,1.895
		c2.325,0,4.643-1.102,5.793-2.918c-1.323,1.332-3.004,1.956-4.679,1.953c-2.913-0.005-5.071-1.825-6.097-4.51
		c-0.422,2.302-2.278,3.572-4.201,3.572c-2.35,0-4.251-1.906-4.251-4.254C13.291,12.914,15.207,10.979,17.546,10.983z"/>
	<path fill="#FFFFFF" d="M141.151,10.389l0.457-0.086c0.257-0.269,0.189-0.91-0.102-1.034c-0.709,0.06-1.552,0.092-2.493,0.094
		c-0.815,0-1.585-0.03-2.657-0.086c-0.326,0.124-0.326,0.818-0.128,1.035l0.545,0.117c0.557,0.113,0.818,0.259,0.818,0.407
		c0,0.208-0.095,0.625-0.293,1.149c-0.515,1.365-1.028,2.807-1.805,4.511c-0.72-1.416-1.62-3.324-2.212-4.741
		c-0.194-0.501-0.254-0.672-0.254-0.911c0-0.151,0.447-0.299,1.199-0.449l0.481-0.084c0.226-0.121,0.256-1.002-0.1-1.035
		c-2.077,0.064-3.689,0.095-5.736,0.095l-6.542,0.008c-1.361,0-2.399-0.026-3.727-0.085c-0.323,0.159-0.323,0.799-0.104,1.038
		l0.59,0.143c0.553,0.145,0.878,0.266,1.336,1.121c1.584,3.062,3.178,6.447,4.74,9.772c0.196,0.175,0.418,0.209,0.746,0.209
		c0.323-0.005,0.55-0.034,0.744-0.211c0.747-1.468,2.684-5.393,3.519-6.922c0.974,1.878,2.666,5.327,3.347,6.917
		c0.198,0.172,0.423,0.207,0.746,0.205c0.323,0,0.553-0.033,0.751-0.21c1.354-3.122,2.838-6.368,4.324-9.372
		C139.86,10.894,140.084,10.596,141.151,10.389z M129.101,12.997c-0.156,0.593-1.26,2.715-1.709,3.51
		c-0.555-0.941-1.855-3.592-2.306-4.625c-0.198-0.433-0.295-0.789-0.295-0.968c0-0.321,0.613-0.446,1.656-0.446
		c0.577,0,1.098,0.03,1.547,0.118c0.65,0.114,1.208,1.058,1.208,1.529C129.203,12.354,129.203,12.612,129.101,12.997z"/>
	<path fill="#FFFFFF" d="M151.469,17.505c-0.871,1.362-2.109,1.534-3.013,1.534c-3.016,0.007-4.576-2.142-4.576-4.35
		c0-0.471,0.065-0.532,0.811-0.532l6.216-0.008c1.011-0.003,1.166-0.419,1.166-0.97c-0.003-2.269-1.815-4.243-5.189-4.238
		c-4.051,0.005-6.99,2.895-6.99,6.607c0.009,3.213,2.37,6.008,6.748,6c1.946-0.002,4.346-0.856,5.666-3.363
		C152.309,17.684,151.821,17.445,151.469,17.505z M146.661,10.295c1.098,0,1.722,0.646,1.723,1.615c0,0.298-0.067,0.592-0.227,0.681
		c-0.356,0.206-0.881,0.266-1.327,0.266h-1.203c-1.043,0.007-1.494-0.026-1.494-0.441C144.134,11.48,145.305,10.301,146.661,10.295z
		"/>
	<path fill="#FFFFFF" d="M174.949,10.35l0.455-0.094c0.257-0.263,0.193-0.908-0.102-1.03c-0.712,0.059-1.555,0.087-2.492,0.087
		c-0.813,0.003-1.591-0.023-2.659-0.083c-0.325,0.124-0.325,0.825-0.127,1.034l0.548,0.117c0.55,0.116,0.816,0.258,0.816,0.411
		c0,0.206-0.104,0.617-0.296,1.146c-0.515,1.363-1.031,2.805-1.807,4.516c-0.714-1.416-1.624-3.324-2.211-4.744
		c-0.192-0.502-0.26-0.673-0.26-0.911c0-0.148,0.452-0.293,1.198-0.445l0.48-0.083c0.233-0.129,0.264-1.006-0.089-1.037
		c-2.072,0.062-3.698,0.092-5.736,0.095l-6.545,0.01c-1.364,0.002-2.401-0.026-3.728-0.082c-0.329,0.145-0.323,0.798-0.094,1.031
		l0.582,0.146c0.55,0.147,0.873,0.263,1.33,1.115c1.583,3.063,3.187,6.45,4.745,9.775c0.196,0.178,0.417,0.21,0.746,0.21
		c0.325,0,0.548-0.034,0.742-0.21c0.747-1.47,2.679-5.393,3.523-6.928c0.973,1.883,2.669,5.33,3.346,6.918
		c0.192,0.179,0.424,0.209,0.742,0.209c0.327,0,0.556-0.03,0.749-0.209c1.357-3.119,2.844-6.369,4.33-9.376
		C173.656,10.847,173.881,10.551,174.949,10.35z M162.894,12.956c-0.153,0.592-1.254,2.712-1.707,3.506
		c-0.55-0.943-1.852-3.592-2.301-4.625c-0.196-0.433-0.303-0.793-0.303-0.971c0-0.322,0.614-0.438,1.657-0.438
		c0.583-0.003,1.101,0.027,1.552,0.113c0.651,0.111,1.201,1.062,1.201,1.527C162.993,12.31,162.993,12.573,162.894,12.956z"/>
	<path fill="#FFFFFF" d="M181.215,8.897c-3.82,0-7.481,2.335-7.444,6.546c0.037,4.066,3.41,6.069,7.268,6.063
		c3.984-0.007,7.45-2.041,7.444-6.349C188.482,11.005,185.037,8.894,181.215,8.897z M181.393,20.148
		c-1.875,0.004-2.949-2.269-2.957-5.357c-0.002-3.207,1.156-4.538,2.594-4.546c1.843,0,2.752,2.476,2.785,5.335
		C183.855,18.233,183.235,20.144,181.393,20.148z"/>
	<path fill="#FFFFFF" d="M194.083,11.409c0.191,0,0.481,0.029,1.23,0.59c0.418,0.355,0.81,0.529,1.265,0.529
		c1.035,0,2.074-0.561,2.069-1.92c0-1.115-0.906-1.734-1.785-1.734c-1.365,0.004-2.297,0.973-3.174,1.479
		c-0.257-0.059-0.322-0.15-0.322-0.355c0-0.268,0.065-0.674,0.126-1.265c-0.126-0.177-0.325-0.266-0.58-0.266
		c-1.007,0.589-3.24,1.384-4.734,1.771c-0.227,0.181-0.227,0.704,0,0.887l0.459,0.26c0.616,0.355,0.616,0.709,0.619,1.891v4.446
		c0.006,2.063-0.122,2.325-1.192,2.418l-0.618,0.057c-0.258,0.18-0.252,0.858,0.034,1.032c1.072-0.063,2.495-0.09,3.827-0.096
		c1.524,0,2.812,0.029,4.375,0.084c0.289-0.174,0.287-0.854,0.03-1.031l-1.037-0.086c-1.067-0.082-1.199-0.323-1.208-2.381
		l-0.005-4.541C193.461,12.059,193.625,11.412,194.083,11.409z"/>
	<path fill="#FFFFFF" d="M214.841,20.107l-0.483-0.093c-0.845-0.143-1.456-0.289-1.909-0.67c-0.814-0.678-3.674-4.683-4.255-5.622
		c-0.167-0.237-0.231-0.411-0.231-0.499c0-0.089,0.033-0.209,0.196-0.383c0.45-0.421,0.943-0.858,2.169-1.713
		c0.871-0.621,1.559-0.914,2.173-1.04l1.036-0.202c0.225-0.239,0.19-0.885-0.136-1.027c-1.909,0.261-4.6,0.412-6.126,0.412
		l-0.776,0.005c-0.327,0.119-0.355,0.77-0.061,1.032l0.805,0.12c0.296,0.022,0.621,0.141,0.621,0.288
		c0,0.18-0.163,0.501-0.779,1.175l-1.353,1.452c-0.651,0.679-1.334,0.826-1.881,0.826c-0.359,0-0.458-0.088-0.458-0.417l-0.01-9.246
		c0-1.862,0.033-3.096,0.092-4.303C203.352,0.051,203.117,0,202.926,0c-1.658,0.645-3.625,1.355-4.958,1.653
		c-0.227,0.181-0.227,0.713,0,0.888l0.55,0.295c0.655,0.348,0.655,0.665,0.658,1.849l0.015,12.962
		c0.003,2.066-0.131,2.306-1.297,2.421l-0.621,0.062c-0.256,0.176-0.256,0.856,0.039,1.028c1.132-0.06,2.47-0.092,3.953-0.094
		c1.491,0,2.852,0.029,3.886,0.085c0.3-0.172,0.295-0.856,0.034-1.029l-0.513-0.064c-1.144-0.111-1.272-0.345-1.274-2.413
		l-0.002-1.705c-0.004-0.561,0.163-0.712,0.385-0.712c0.329,0,0.589,0.119,0.812,0.443l2.309,3.18
		c0.257,0.355,0.552,0.82,0.552,0.946c0,0.11-0.193,0.169-0.514,0.229l-0.425,0.095c-0.258,0.262-0.198,0.881,0.125,1.027
		c0.908-0.06,2.077-0.097,3.995-0.097c1.877,0,3.077,0.03,4.08,0.086C215.034,21.02,215.098,20.309,214.841,20.107z"/>
	<path fill="#FFFFFF" d="M107.149,7.293c-0.686-0.379-1.473-0.596-2.315-0.596c-1.485,0-2.811,0.675-3.689,1.737
		c-0.883-1.062-2.209-1.737-3.697-1.737c-0.836,0-1.623,0.217-2.312,0.596c-1.479,0.819-2.48,2.392-2.48,4.202
		c0,0.517,0.085,1.013,0.238,1.476c0.822,3.7,8.251,8.363,8.251,8.363s7.421-4.662,8.246-8.363c0.152-0.464,0.238-0.959,0.238-1.476
		C109.628,9.685,108.628,8.115,107.149,7.293z"/>
</g>
</svg>
