<?xml version="1.0" encoding="utf-8"?>
<!-- Generator: Adobe Illustrator 22.0.1, SVG Export Plug-In . SVG Version: 6.00 Build 0)  -->
<svg version="1.1" id="Layer_1" xmlns="http://www.w3.org/2000/svg" xmlns:xlink="http://www.w3.org/1999/xlink" x="0px" y="0px"
	 viewBox="0 0 160 20.875" enable-background="new 0 0 160 20.875" xml:space="preserve">
<g>
	<path fill="#FFFFFF" d="M9.373,4.982c3.005,0,4.642,1.783,5.734,4.071c0.505,1.054,0.81,2.188,1.264,3.263
		c1.584,3.829,4.401,6.4,8.691,6.4c5.171,0,9.373-4.226,9.373-9.338C34.435,4.194,30.242,0,25.068,0
		c-2.654,0-5.045,1.109-6.75,2.883C16.767,1.291,14.601,0,11.084,0C7.545-0.001,4.016,1.677,2.265,4.44
		c2.013-2.028,4.573-2.978,7.124-2.973c4.433,0.007,7.721,2.777,9.283,6.868c0.642-3.505,3.467-5.439,6.397-5.439
		c3.577,0,6.472,2.902,6.472,6.476c0,3.502-2.918,6.448-6.478,6.442c-3.005,0-4.642-1.783-5.734-4.071
		c-0.505-1.054-0.811-2.188-1.264-3.263c-1.584-3.827-4.401-6.4-8.691-6.4C4.201,2.08,0,6.305,0,11.418
		c0,5.183,4.193,9.379,9.367,9.379c2.654,0,5.044-1.11,6.75-2.885c1.551,1.593,3.715,2.885,7.233,2.885
		c3.539,0,7.069-1.678,8.82-4.442c-2.014,2.028-4.573,2.978-7.124,2.973c-4.435-0.007-7.721-2.778-9.283-6.867
		c-0.642,3.504-3.468,5.438-6.397,5.438c-3.579,0-6.472-2.902-6.472-6.476C2.895,7.923,5.811,4.976,9.373,4.982z"/>
	<path fill="#FFFFFF" d="M89.505,10.194l0.436-0.082c0.245-0.257,0.181-0.869-0.097-0.987c-0.677,0.057-1.482,0.087-2.379,0.089
		c-0.778,0-1.513-0.029-2.536-0.082c-0.311,0.118-0.311,0.781-0.122,0.988l0.521,0.112c0.532,0.108,0.78,0.247,0.78,0.388
		c0,0.199-0.091,0.597-0.28,1.097c-0.492,1.303-0.981,2.68-1.723,4.306c-0.687-1.351-1.546-3.173-2.112-4.526
		c-0.185-0.479-0.243-0.641-0.243-0.869c0-0.145,0.427-0.285,1.144-0.428l0.459-0.08c0.216-0.115,0.244-0.956-0.096-0.988
		c-1.982,0.062-3.521,0.091-5.475,0.091L71.536,9.23c-1.299,0-2.29-0.025-3.558-0.081c-0.309,0.152-0.309,0.763-0.1,0.991
		l0.563,0.136c0.528,0.138,0.838,0.254,1.275,1.07c1.512,2.923,3.033,6.155,4.525,9.328c0.187,0.167,0.399,0.199,0.712,0.199
		c0.309-0.005,0.525-0.032,0.71-0.202c0.713-1.402,2.563-5.148,3.359-6.608c0.93,1.793,2.545,5.085,3.195,6.603
		c0.189,0.164,0.404,0.198,0.712,0.195c0.309,0,0.528-0.031,0.717-0.201c1.293-2.981,2.71-6.079,4.128-8.947
		C88.272,10.676,88.486,10.391,89.505,10.194z M78.002,12.683c-0.149,0.566-1.203,2.591-1.631,3.351
		c-0.53-0.898-1.771-3.429-2.201-4.415c-0.189-0.414-0.281-0.754-0.281-0.924c0-0.306,0.585-0.426,1.581-0.426
		c0.55,0,1.048,0.028,1.477,0.113c0.62,0.109,1.153,1.01,1.153,1.459C78.099,12.069,78.099,12.316,78.002,12.683z"/>
	<path fill="#FFFFFF" d="M99.353,16.987c-0.832,1.3-2.013,1.464-2.876,1.464c-2.879,0.007-4.368-2.044-4.368-4.153
		c0-0.449,0.062-0.507,0.774-0.507l5.934-0.008c0.965-0.003,1.113-0.4,1.113-0.926c-0.003-2.166-1.732-4.051-4.953-4.046
		c-3.867,0.005-6.673,2.763-6.673,6.307c0.009,3.067,2.262,5.735,6.441,5.728c1.858-0.002,4.149-0.817,5.409-3.21
		C100.155,17.157,99.69,16.929,99.353,16.987z M94.764,10.104c1.048,0,1.644,0.617,1.645,1.541c0,0.284-0.064,0.565-0.217,0.65
		c-0.34,0.197-0.841,0.254-1.266,0.254h-1.148c-0.996,0.006-1.426-0.025-1.426-0.421C92.352,11.235,93.469,10.109,94.764,10.104z"/>
	<path fill="#FFFFFF" d="M121.768,10.157l0.435-0.09c0.245-0.251,0.184-0.867-0.098-0.983c-0.68,0.056-1.484,0.083-2.379,0.083
		c-0.777,0.003-1.518-0.022-2.538-0.079c-0.31,0.118-0.31,0.788-0.121,0.987l0.523,0.112c0.525,0.111,0.779,0.246,0.779,0.392
		c0,0.197-0.1,0.589-0.283,1.093c-0.492,1.301-0.985,2.677-1.725,4.311c-0.682-1.351-1.551-3.173-2.111-4.529
		c-0.183-0.479-0.248-0.642-0.248-0.869c0-0.142,0.431-0.28,1.144-0.424l0.458-0.08c0.222-0.123,0.252-0.96-0.085-0.99
		c-1.978,0.059-3.53,0.088-5.475,0.091l-6.248,0.01c-1.302,0.002-2.292-0.025-3.559-0.078c-0.314,0.138-0.309,0.762-0.089,0.984
		l0.555,0.139c0.525,0.14,0.833,0.251,1.27,1.065c1.511,2.924,3.042,6.157,4.53,9.331c0.187,0.17,0.398,0.201,0.712,0.201
		c0.31,0,0.523-0.033,0.708-0.201c0.713-1.403,2.557-5.149,3.363-6.614c0.929,1.798,2.547,5.088,3.194,6.604
		c0.183,0.171,0.405,0.2,0.709,0.2c0.313,0,0.53-0.029,0.715-0.2c1.295-2.977,2.715-6.08,4.134-8.95
		C120.533,10.631,120.748,10.349,121.768,10.157z M110.26,12.644c-0.146,0.565-1.197,2.588-1.63,3.347
		c-0.525-0.9-1.768-3.429-2.197-4.415c-0.187-0.413-0.289-0.757-0.289-0.926c0-0.307,0.586-0.418,1.581-0.418
		c0.557-0.003,1.051,0.026,1.482,0.108c0.621,0.106,1.147,1.014,1.147,1.458C110.355,12.027,110.355,12.278,110.26,12.644z"/>
	<path fill="#FFFFFF" d="M127.749,8.77c-3.647,0-7.141,2.229-7.106,6.249c0.035,3.881,3.255,5.793,6.938,5.788
		c3.803-0.006,7.112-1.949,7.106-6.06C134.686,10.782,131.398,8.767,127.749,8.77z M127.919,19.51
		c-1.79,0.004-2.815-2.166-2.823-5.114c-0.002-3.062,1.103-4.332,2.477-4.339c1.76,0,2.628,2.363,2.659,5.093
		C130.269,17.681,129.677,19.505,127.919,19.51z"/>
	<path fill="#FFFFFF" d="M140.033,11.167c0.182,0,0.46,0.028,1.174,0.563c0.399,0.338,0.773,0.505,1.207,0.505
		c0.988,0,1.98-0.536,1.975-1.833c0-1.065-0.865-1.655-1.704-1.655c-1.303,0.004-2.193,0.929-3.03,1.412
		c-0.246-0.056-0.307-0.144-0.307-0.338c0-0.256,0.062-0.643,0.121-1.208c-0.121-0.169-0.31-0.254-0.554-0.254
		c-0.961,0.562-3.093,1.321-4.519,1.691c-0.217,0.173-0.217,0.672,0,0.847l0.438,0.248c0.588,0.339,0.588,0.677,0.591,1.805v4.244
		c0.005,1.969-0.117,2.22-1.138,2.308l-0.59,0.055c-0.247,0.172-0.24,0.819,0.032,0.985c1.024-0.06,2.382-0.086,3.653-0.091
		c1.454,0,2.684,0.028,4.176,0.08c0.276-0.166,0.274-0.815,0.029-0.984l-0.99-0.082c-1.019-0.078-1.145-0.308-1.153-2.272
		l-0.005-4.334C139.439,11.788,139.596,11.17,140.033,11.167z"/>
	<path fill="#FFFFFF" d="M159.848,19.47l-0.461-0.088c-0.806-0.137-1.389-0.276-1.822-0.64c-0.777-0.648-3.508-4.47-4.062-5.367
		c-0.159-0.226-0.221-0.392-0.221-0.477c0-0.085,0.031-0.199,0.187-0.366c0.43-0.402,0.901-0.819,2.071-1.635
		c0.831-0.593,1.488-0.873,2.074-0.992l0.989-0.193c0.214-0.229,0.181-0.845-0.129-0.981c-1.823,0.249-4.391,0.393-5.847,0.393
		l-0.741,0.005c-0.312,0.114-0.338,0.735-0.059,0.985l0.769,0.115c0.283,0.021,0.593,0.134,0.593,0.275
		c0,0.172-0.156,0.479-0.744,1.122l-1.292,1.386c-0.621,0.648-1.274,0.789-1.795,0.789c-0.342,0-0.437-0.084-0.437-0.398
		l-0.01-8.826c0-1.778,0.032-2.955,0.088-4.108c-0.118-0.145-0.342-0.193-0.525-0.193c-1.583,0.616-3.46,1.294-4.733,1.578
		c-0.217,0.172-0.217,0.68,0,0.848l0.525,0.282c0.625,0.332,0.625,0.635,0.628,1.765l0.015,12.373
		c0.003,1.973-0.125,2.202-1.238,2.311l-0.592,0.059c-0.244,0.168-0.244,0.817,0.037,0.981c1.081-0.057,2.358-0.088,3.774-0.09
		c1.423,0,2.722,0.028,3.71,0.081c0.286-0.164,0.281-0.817,0.032-0.982l-0.489-0.061c-1.092-0.106-1.214-0.33-1.216-2.304
		l-0.002-1.627c-0.004-0.536,0.156-0.68,0.368-0.68c0.314,0,0.563,0.114,0.776,0.423l2.204,3.036
		c0.245,0.339,0.527,0.783,0.527,0.903c0,0.105-0.184,0.161-0.491,0.219l-0.406,0.091c-0.247,0.25-0.189,0.841,0.12,0.98
		c0.867-0.057,1.983-0.092,3.813-0.092c1.791,0,2.937,0.029,3.894,0.082C160.033,20.342,160.094,19.663,159.848,19.47z"/>
	<path fill="#FFFFFF" d="M57.046,7.238C56.39,6.877,55.64,6.67,54.836,6.67c-1.418,0-2.683,0.645-3.521,1.659
		c-0.843-1.014-2.109-1.659-3.529-1.659c-0.798,0-1.549,0.207-2.207,0.569c-1.412,0.781-2.367,2.283-2.367,4.011
		c0,0.493,0.081,0.967,0.227,1.409c0.784,3.532,7.877,7.983,7.877,7.983s7.084-4.451,7.871-7.983
		c0.146-0.443,0.227-0.916,0.227-1.409C59.412,9.522,58.457,8.023,57.046,7.238z"/>
</g>
</svg>
