<?xml version="1.0" encoding="utf-8"?>
<!-- Generator: Adobe Illustrator 22.0.1, SVG Export Plug-In . SVG Version: 6.00 Build 0)  -->
<svg version="1.1" id="Layer_1" xmlns="http://www.w3.org/2000/svg" xmlns:xlink="http://www.w3.org/1999/xlink" x="0px" y="0px"
	 viewBox="0 0 272 166.633" enable-background="new 0 0 272 166.633" xml:space="preserve">
<g>
	<path fill="#296CFC" d="M239.943,158.737H3c-1.654,0-3-1.346-3-3V3c0-1.654,1.346-3,3-3h236.943c1.654,0,3,1.346,3,3v152.737
		C242.943,157.392,241.597,158.737,239.943,158.737z M3,2C2.449,2,2,2.449,2,3v152.737c0,0.551,0.449,1,1,1h236.943
		c0.551,0,1-0.449,1-1V3c0-0.551-0.449-1-1-1H3z"/>
	<path fill="#296CFC" d="M240.894,27.173H1.749c-0.552,0-1-0.448-1-1s0.448-1,1-1h239.145c0.552,0,1,0.448,1,1
		S241.446,27.173,240.894,27.173z"/>
	<path fill="#296CFC" d="M73.328,147.754c-0.552,0-1-0.448-1-1V35.329c0-0.552,0.448-1,1-1s1,0.448,1,1v111.426
		C74.328,147.307,73.88,147.754,73.328,147.754z"/>
	<path fill="#296CFC" d="M169.57,14.932h-17.656c-0.552,0-1-0.448-1-1s0.448-1,1-1h17.656c0.552,0,1,0.448,1,1
		S170.122,14.932,169.57,14.932z"/>
	<path fill="#296CFC" d="M141.924,14.932H87.408c-0.552,0-1-0.448-1-1s0.448-1,1-1h54.517c0.552,0,1,0.448,1,1
		S142.477,14.932,141.924,14.932z"/>
	<path fill="#296CFC" d="M79.017,14.932H40.438c-0.552,0-1-0.448-1-1s0.448-1,1-1h38.579c0.552,0,1,0.448,1,1
		S79.569,14.932,79.017,14.932z"/>
	<path fill="#296CFC" d="M24.825,20.701H13.287c-0.552,0-1-0.448-1-1V8.163c0-0.552,0.448-1,1-1h11.538c0.552,0,1,0.448,1,1v11.538
		C25.825,20.253,25.377,20.701,24.825,20.701z M14.287,18.701h9.538V9.163h-9.538V18.701z"/>
	<path fill="#296CFC" d="M231.454,89.598H167.21c-0.552,0-1-0.448-1-1s0.448-1,1-1h64.244c0.552,0,1,0.448,1,1
		S232.006,89.598,231.454,89.598z"/>
	<g>
		<path fill="#296CFC" d="M63.216,47.692H29.981c-0.552,0-1-0.448-1-1s0.448-1,1-1h33.235c0.552,0,1,0.448,1,1
			S63.769,47.692,63.216,47.692z"/>
		<path fill="#296CFC" d="M18.007,51.363c-2.576,0-4.671-2.096-4.671-4.671s2.095-4.671,4.671-4.671s4.671,2.095,4.671,4.671
			S20.583,51.363,18.007,51.363z M18.007,44.021c-1.473,0-2.671,1.198-2.671,2.671c0,1.473,1.198,2.671,2.671,2.671
			s2.671-1.198,2.671-2.671C20.678,45.219,19.479,44.021,18.007,44.021z"/>
	</g>
	<path opacity="0.2" fill="#296CFC" d="M231.454,50.692H82.426c-2.209,0-4-1.791-4-4s1.791-4,4-4h149.028c2.209,0,4,1.791,4,4
		S233.663,50.692,231.454,50.692z"/>
	<g>
		<path fill="#296CFC" d="M63.216,65.432H29.981c-0.552,0-1-0.448-1-1s0.448-1,1-1h33.235c0.552,0,1,0.448,1,1
			S63.769,65.432,63.216,65.432z"/>
		<path fill="#296CFC" d="M18.007,69.103c-2.576,0-4.671-2.096-4.671-4.671s2.095-4.671,4.671-4.671s4.671,2.095,4.671,4.671
			S20.583,69.103,18.007,69.103z M18.007,61.761c-1.473,0-2.671,1.198-2.671,2.671c0,1.473,1.198,2.671,2.671,2.671
			s2.671-1.198,2.671-2.671C20.678,62.959,19.479,61.761,18.007,61.761z"/>
	</g>
	<path opacity="0.2" fill="#296CFC" d="M190.867,68.432H82.426c-2.209,0-4-1.791-4-4s1.791-4,4-4h108.441c2.209,0,4,1.791,4,4
		S193.076,68.432,190.867,68.432z"/>
	<g>
		<path fill="#296CFC" d="M63.216,83.171H29.981c-0.552,0-1-0.448-1-1s0.448-1,1-1h33.235c0.552,0,1,0.448,1,1
			S63.769,83.171,63.216,83.171z"/>
		<path fill="#296CFC" d="M18.007,86.843c-2.576,0-4.671-2.096-4.671-4.671s2.095-4.671,4.671-4.671s4.671,2.095,4.671,4.671
			S20.583,86.843,18.007,86.843z M18.007,79.5c-1.473,0-2.671,1.198-2.671,2.671c0,1.473,1.198,2.671,2.671,2.671
			s2.671-1.198,2.671-2.671C20.678,80.699,19.479,79.5,18.007,79.5z"/>
	</g>
	<path opacity="0.2" fill="#296CFC" d="M231.454,86.171H82.426c-2.209,0-4-1.791-4-4s1.791-4,4-4h149.028c2.209,0,4,1.791,4,4
		S233.663,86.171,231.454,86.171z"/>
	<g>
		<path fill="#296CFC" d="M63.216,100.912H29.981c-0.552,0-1-0.448-1-1s0.448-1,1-1h33.235c0.552,0,1,0.448,1,1
			S63.769,100.912,63.216,100.912z"/>
		<path fill="#296CFC" d="M18.007,104.583c-2.576,0-4.671-2.095-4.671-4.671s2.095-4.671,4.671-4.671s4.671,2.096,4.671,4.671
			S20.583,104.583,18.007,104.583z M18.007,97.24c-1.473,0-2.671,1.198-2.671,2.671c0,1.473,1.198,2.671,2.671,2.671
			s2.671-1.198,2.671-2.671C20.678,98.438,19.479,97.24,18.007,97.24z"/>
	</g>
	<path opacity="0.2" fill="#296CFC" d="M121.471,103.912H82.426c-2.209,0-4-1.791-4-4s1.791-4,4-4h39.045c2.209,0,4,1.791,4,4
		S123.68,103.912,121.471,103.912z"/>
	<g>
		<path fill="#296CFC" d="M63.216,118.651H29.981c-0.552,0-1-0.448-1-1s0.448-1,1-1h33.235c0.552,0,1,0.448,1,1
			S63.769,118.651,63.216,118.651z"/>
		<path fill="#296CFC" d="M18.007,122.322c-2.576,0-4.671-2.095-4.671-4.671s2.095-4.671,4.671-4.671s4.671,2.096,4.671,4.671
			S20.583,122.322,18.007,122.322z M18.007,114.98c-1.473,0-2.671,1.198-2.671,2.671c0,1.473,1.198,2.671,2.671,2.671
			s2.671-1.198,2.671-2.671C20.678,116.178,19.479,114.98,18.007,114.98z"/>
	</g>
	<path opacity="0.2" fill="#296CFC" d="M155.935,121.651H82.426c-2.209,0-4-1.791-4-4s1.791-4,4-4h73.509c2.209,0,4,1.791,4,4
		S158.144,121.651,155.935,121.651z"/>
	<g>
		<linearGradient id="SVGID_1_" gradientUnits="userSpaceOnUse" x1="176.7804" y1="150.296" x2="255.6629" y2="71.4135">
			<stop  offset="0" style="stop-color:#1D0561"/>
			<stop  offset="0.0454" style="stop-color:#210964"/>
			<stop  offset="0.4411" style="stop-color:#402977"/>
			<stop  offset="0.7734" style="stop-color:#523D84"/>
			<stop  offset="1" style="stop-color:#594488"/>
		</linearGradient>
		<circle fill="url(#SVGID_1_)" cx="216.222" cy="110.855" r="55.778"/>
		<g>
			<path fill="#FFFFFF" d="M216.53,109.781c-1.189,0-2.396-0.356-3.466-1.07l-27.133-18.183c-0.366-0.245-0.528-0.701-0.4-1.122
				c0.128-0.421,0.517-0.708,0.957-0.708c0,0,0,0,0.001,0l59.094,0.053c0.438,0,0.824,0.285,0.954,0.703
				c0.13,0.418-0.026,0.872-0.386,1.12l-26.238,18.128C218.906,109.42,217.727,109.781,216.53,109.781z M189.781,90.701
				l24.395,16.348c1.448,0.965,3.249,0.972,4.587,0.017l23.617-16.317L189.781,90.701z"/>
			<path fill="#FFFFFF" d="M243.668,133.012h-54.894c-1.813,0-3.287-1.475-3.287-3.288V89.698c0-0.552,0.448-1,1-1s1,0.448,1,1
				v40.026c0,0.71,0.578,1.288,1.287,1.288h54.894c0.709,0,1.287-0.578,1.287-1.288V89.698c0-0.552,0.448-1,1-1s1,0.448,1,1v40.026
				C246.956,131.537,245.481,133.012,243.668,133.012z"/>
		</g>
	</g>
</g>
</svg>
