<?xml version="1.0" encoding="utf-8"?>
<!-- Generator: Adobe Illustrator 22.0.1, SVG Export Plug-In . SVG Version: 6.00 Build 0)  -->
<svg version="1.1" id="_x3C_Layer_x3E_" xmlns="http://www.w3.org/2000/svg" xmlns:xlink="http://www.w3.org/1999/xlink" x="0px"
	 y="0px" viewBox="0 0 122.53 50.223" enable-background="new 0 0 122.53 50.223" xml:space="preserve">
<path fill="#333333" d="M108.105,3.066c0.307-0.022,0.58-0.085,0.82-0.19c0.239-0.104,0.431-0.264,0.572-0.483
	c0.143-0.217,0.214-0.521,0.214-0.909c0-0.328-0.065-0.59-0.191-0.786c-0.128-0.194-0.292-0.344-0.495-0.449
	c-0.202-0.103-0.434-0.176-0.696-0.211c-0.113-0.017-0.225-0.028-0.336-0.037h-2.458v3.099h1.594
	C107.474,3.099,107.799,3.089,108.105,3.066z M102.335,8.759c0.621,0.644,1.355,1.148,2.201,1.515
	c0.845,0.367,1.762,0.55,2.748,0.55c0.975,0,1.879-0.183,2.718-0.55c0.839-0.367,1.568-0.872,2.19-1.515
	c0.62-0.643,1.107-1.403,1.46-2.278c0.351-0.877,0.528-1.831,0.528-2.864c0-1.002-0.177-1.938-0.528-2.806
	c-0.115-0.284-0.25-0.551-0.394-0.81h-2.389c0.244,0.414,0.369,0.93,0.369,1.551c0,0.883-0.247,1.532-0.742,1.941
	c-0.493,0.412-1.106,0.656-1.841,0.731l2.808,4.333h-1.64l-2.67-4.221h-1.617v4.221h-1.526V0h-2.74
	c-0.144,0.259-0.279,0.526-0.393,0.81c-0.351,0.868-0.528,1.804-0.528,2.806c0,1.034,0.176,1.988,0.528,2.864
	C101.228,7.355,101.715,8.116,102.335,8.759z M43.173,16.792c-2.128,0-3.255,1.662-3.279,3.364h6.84
	C46.734,18.15,45.465,16.792,43.173,16.792z M114.876,0c0.052,0.106,0.109,0.207,0.157,0.316c0.448,1.018,0.674,2.118,0.674,3.3
	c0,1.215-0.225,2.332-0.674,3.359c-0.448,1.022-1.054,1.914-1.819,2.669c-0.764,0.756-1.655,1.345-2.671,1.763
	c-1.018,0.419-2.103,0.629-3.258,0.629c-1.152,0-2.241-0.21-3.265-0.629c-1.025-0.418-1.924-1.007-2.695-1.763
	c-0.771-0.756-1.38-1.647-1.829-2.669c-0.449-1.027-0.675-2.144-0.675-3.359c0-1.182,0.225-2.282,0.675-3.3
	c0.048-0.109,0.106-0.21,0.157-0.316H0l11.782,50.223c24.737-15.908,48.511-0.62,49.467-0.037h0.003
	c0.002-0.002,0.005-0.003,0.007-0.004h0.012c0.002,0.001,0.005,0.003,0.007,0.004h0.004c0.954-0.583,24.73-15.871,49.466,0.037
	L122.53,0H114.876z M32.377,30.491H16.272V13.717h7.241v12.21h8.864V30.491z M54.038,23.532H39.906c0,2.183,1.849,3.83,4.312,3.83
	c1.465,0,2.799-0.485,3.742-1.796h5.635c-1.842,4.232-5.414,5.436-10.285,5.436c-6.334,0-10.813-3.43-10.813-8.863
	c0-5.803,4.411-8.864,10.813-8.864c7.162,0,10.752,4.641,10.752,9.108C54.062,22.755,54.091,23.128,54.038,23.532z M67.146,30.518
	h-6.102l-9.11-16.815h8.221l5.228,10.221l0.144,0.308l0.131-0.308l4.889-10.221h4.937L67.146,30.518z M83.237,30.485h-6.984V13.671
	h6.984V30.485z M88.483,15.779l-2.104,2.288h-0.875l0.965-2.495h-1.927v-3.327h3.942V15.779z M97.648,30.964
	c-7.462,0-8.821-4.311-8.821-5.38h5.404c0,0.628,0.85,1.38,1.568,1.686c0.591,0.253,1.248,0.303,1.864,0.303
	c1.521,0,2.77-0.369,2.77-1.253c0-1.076-1.278-1.315-2.688-1.517c-3.837-0.553-9.215-1.198-9.215-5.49
	c0-4.004,4.372-6.041,9.012-6.041c7.429,0,9.399,4.116,9.399,5.307h-5.492c0-0.356-0.271-1.039-1.02-1.429
	c-0.556-0.29-1.372-0.525-2.161-0.525c-2.052,0-3.206,0.427-3.206,1.367c0,0.768,1.041,1.149,2.535,1.406
	c3.901,0.67,9.89,0.901,9.89,5.648C107.485,27.457,105.398,30.964,97.648,30.964z"/>
</svg>
