<?xml version="1.0" encoding="utf-8"?>
<!-- Generator: Adobe Illustrator 22.0.1, SVG Export Plug-In . SVG Version: 6.00 Build 0)  -->
<svg version="1.1" id="_x3C_Layer_x3E_" xmlns="http://www.w3.org/2000/svg" xmlns:xlink="http://www.w3.org/1999/xlink" x="0px"
	 y="0px" viewBox="0 0 176.166 67.666" enable-background="new 0 0 176.166 67.666" xml:space="preserve">
<g>
	<path fill-rule="evenodd" clip-rule="evenodd" fill="#333333" d="M162.954,60.279c-2.208-1.153-2.549-4.414-2.5-12.34l0.05-12.15
		l-4.188-0.006l0.94-2.251h3.248v-5.753l7.776-2.876l-0.004,8.438l3.564,0.008l-0.94,2.491l-2.62-0.002l-0.014,21.025
		c0.17,1.694,0.741,2.691,1.553,3.417H162.954L162.954,60.279z"/>
	<path fill-rule="evenodd" clip-rule="evenodd" fill="#333333" d="M86.546,8.324c0.594,1.629,1.937,3.307,0.982,5.192
		c-0.465,1.913-2.273,3.463-4.186,3.773c-1.99,0.181-3.901-0.154-5.375-1.369c-1.059-5.528,1.189-10.644,5.556-13.692L86.546,8.324
		L86.546,8.324z"/>
	<path fill-rule="evenodd" clip-rule="evenodd" fill="#333333" d="M94.258,25.169c-0.995,3.346-10.877,1.15-13.977-4.34
		c4.07,0.452,8.655-3.153,8.732-7.26L94.258,25.169L94.258,25.169z"/>
	<path fill-rule="evenodd" clip-rule="evenodd" fill="#333333" d="M98.302,24.737c0.452-0.2,1.363-0.653,1.588-1.621L89.258,0.057
		C89.025,0.027,88.813,0,88.601,0c-0.434,0-0.867,0.113-1.474,0.547L98.302,24.737L98.302,24.737z"/>
	<path fill-rule="evenodd" clip-rule="evenodd" fill="#333333" d="M103.081,19.731c4.521-6.847,0.71-18.086-9.03-19.661
		L103.081,19.731L103.081,19.731z"/>
	<path fill-rule="evenodd" clip-rule="evenodd" fill="#333333" d="M102.084,34.473c1.425-1.197,3.931-1.225,5.555-0.457
		c0.684,0.343,1.339,0.798,1.765,1.397l-3.132,4.872c-0.4-0.314-0.685-0.457-1.198-0.712c-1.552-0.671-3.19-0.279-4.13,0.568v14.213
		c-0.021,2.457,0.406,4.701,1.682,5.868h-7.121c-1.481-1.139-1.852-2.962-1.994-4.557l-0.058-18.899
		c0.065-1.532-0.327-2.208-0.94-3.062l7.378,0.029c0.598,0.428,0.626,1.168,0.94,1.736L102.084,34.473L102.084,34.473z"/>
	<path fill-rule="evenodd" clip-rule="evenodd" fill="#333333" d="M111.084,39.144c-0.058-1.796,0.342-3.945-0.833-5.497h6.844
		c0.456,0.342,0.713,0.91,0.854,1.453c0.37,0.483,0.342,1.168,0.512,1.737l0.058,20.138c0.286,1.197,0.741,2.408,1.624,3.348
		l-7.321,0.015c-2.393-2.314-1.609-6.124-1.796-10.055L111.084,39.144L111.084,39.144z"/>
	<path fill-rule="evenodd" clip-rule="evenodd" fill="#333333" d="M129.029,53.585c0.342,1.254,0.997,2.791,2.507,2.963
		c0.883,0.029,1.537-0.712,2.05-1.339c1.596-3.132,1.368-6.551,1.368-10.111c-0.513-2.649,0.113-6.266-2.735-7.89
		c-0.996-0.371-1.766,0.313-2.393,0.94c-1.11,1.68-1.238,3.603-1.31,5.74C128.147,47.306,128.545,50.139,129.029,53.585
		L129.029,53.585L129.029,53.585z M121.908,39.345c0.74-2.053,3.047-3.077,4.728-4.188c2.563-0.94,5.383-3.276,8.261-1.367
		c2.393,1.565,4.5,3.33,6.01,5.754c0.369,0.94,0.541,1.993,0.797,2.99c0,1.339,0.284,2.336,0.257,3.675
		c0.085,1.453,0.085,2.762,0,4.188c-0.087,2.42-1.225,4.585-3.133,6.266c-2.85,2.537-6.438,5.413-10.312,3.446
		c-3.475-1.623-7.577-4.842-7.32-9.256c-0.142-3.133-0.285-5.839,0.143-8.888C121.509,41.08,121.423,40.113,121.908,39.345
		L121.908,39.345z"/>
	<path fill-rule="evenodd" clip-rule="evenodd" fill="#333333" d="M147.032,60.279c-2.208-1.153-2.549-4.414-2.501-12.34l0.05-12.15
		l-4.188-0.006l0.94-2.251h3.247v-5.753l7.776-2.876l-0.004,8.438l3.564,0.008l-0.94,2.491l-2.62-0.002l-0.015,21.025
		c0.171,1.694,0.741,2.691,1.553,3.417H147.032L147.032,60.279z"/>
	<path fill-rule="evenodd" clip-rule="evenodd" fill="#333333" d="M75.935,36.765c-0.046-1.534-0.327-2.208-0.94-3.062l7.378,0.029
		c0.598,0.428,0.626,1.168,0.939,1.736l1.254-0.996c1.424-1.197,3.93-1.225,5.554-0.457c0.684,0.343,1.338,0.798,1.766,1.397
		l-3.133,4.872c-0.399-0.314-0.685-0.457-1.197-0.712c-1.552-0.671-3.19-0.279-4.13,0.568v14.213
		c-0.022,2.457,0.406,4.701,1.681,5.868h-7.122c-1.481-1.139-1.903-2.835-1.994-4.557L75.935,36.765L75.935,36.765z"/>
	<path fill-rule="evenodd" clip-rule="evenodd" fill="#333333" d="M20.135,44.244l-2.696,5.514
		c-1.831,3.253-4.398,7.245-8.338,8.237c-1.525,0.534-2.873,0.05-4.348-0.051L0,65.721c0.356,0.383,0.857,0.704,1.347,0.89
		c8.365,3.191,11.733-0.241,19.97-18.85l7.779,16.574h10.36L34.562,53.15l2.771-5.783l7.652,16.714l9.915,0.064L37.549,26.013
		l-7.992,3.972l6.264,14.229l-2.746,5.593L21.595,25.028l-8.421,4.289L20.135,44.244L20.135,44.244z"/>
	<path fill-rule="evenodd" clip-rule="evenodd" fill="#333333" d="M65.054,45.595c-0.056-1.069-0.825-1.181-1.367-1.181
		c-1.765,0.257-3.286,1.733-4.13,3.247c-0.755,1.353-0.933,2.491-0.997,3.674c-0.007,1.273-0.085,2.221,0.428,3.191
		c0.284,0.625,0.911,0.909,1.51,1.081c1.139,0.228,2.194-0.085,3.077-0.685c2.079-1.168,1.709-3.503,1.738-5.581L65.054,45.595
		L65.054,45.595L65.054,45.595z M51.98,50.963c0.2-2.762,1.709-5.354,4.273-6.75c2.535-1.567,5.498-2.194,8.118-3.56
		c0.456-0.369,1.026-0.826,1.054-1.424c0.028-0.741-0.342-1.31-0.996-1.567c-3.988-0.855-7.293,1.652-10.198,4.129
		c0.371-1.822,0.655-3.817,1.509-5.524c0.428-0.456,0.684-1.083,1.254-1.426c2.82-1.395,6.352-1.793,9.514-1.566
		c2.591,0.171,4.985,2.023,5.867,4.387c0.456,1.111,0.428,2.363,0.512,3.504l0.029,15.438c0.028,1.339,0.655,2.593,1.453,3.674
		h-7.378c-0.883-0.798-1.318-1.795-1.567-3.047c-2.065,1.822-6.373,4.53-8.944,2.735C53.817,58.768,51.383,54.752,51.98,50.963
		L51.98,50.963z"/>
	<path fill-rule="evenodd" clip-rule="evenodd" fill="#333333" d="M173.513,58.409h0.14l0.147,0.01
		c0.103,0.006,0.179,0.019,0.23,0.041c0.092,0.034,0.155,0.098,0.188,0.188c0.021,0.054,0.035,0.159,0.041,0.314
		c0.007,0.154,0.019,0.272,0.041,0.355h0.639l-0.022-0.074c-0.009-0.024-0.015-0.05-0.018-0.076
		c-0.003-0.024-0.005-0.049-0.005-0.075v-0.228c0-0.261-0.075-0.451-0.225-0.573c-0.082-0.065-0.203-0.114-0.363-0.148
		c0.175-0.02,0.323-0.077,0.443-0.172c0.12-0.098,0.181-0.252,0.181-0.467c0-0.284-0.114-0.488-0.343-0.613
		c-0.134-0.074-0.302-0.118-0.505-0.132c-0.036-0.001-0.212-0.004-0.528-0.004c-0.317-0.002-0.556-0.002-0.715-0.002v2.564h0.673
		V58.409L173.513,58.409z M174.14,57.855c-0.089,0.062-0.211,0.094-0.368,0.094h-0.259v-0.745h0.163
		c0.167,0,0.297,0.019,0.389,0.054c0.137,0.056,0.206,0.152,0.206,0.293C174.271,57.689,174.229,57.792,174.14,57.855L174.14,57.855
		L174.14,57.855z M175.488,56.395L175.488,56.395c0.453,0.452,0.678,0.997,0.678,1.635c0,0.657-0.23,1.21-0.693,1.661
		c-0.45,0.434-0.99,0.653-1.619,0.653c-0.651,0-1.199-0.224-1.644-0.67c-0.446-0.444-0.669-0.992-0.669-1.644
		c0-0.674,0.24-1.237,0.722-1.685c0.451-0.419,0.981-0.627,1.59-0.627C174.493,55.718,175.037,55.943,175.488,56.395L175.488,56.395
		z M175.204,56.69c0.369,0.378,0.555,0.824,0.555,1.339c0,0.53-0.186,0.984-0.558,1.363c-0.373,0.375-0.82,0.564-1.346,0.564
		c-0.528,0-0.978-0.187-1.35-0.562c-0.374-0.374-0.561-0.83-0.561-1.366c0-0.517,0.184-0.964,0.552-1.339
		c0.374-0.386,0.828-0.578,1.359-0.578C174.38,56.113,174.829,56.304,175.204,56.69L175.204,56.69z"/>
</g>
</svg>
