<?xml version="1.0" encoding="utf-8"?>
<!-- Generator: Adobe Illustrator 22.0.1, SVG Export Plug-In . SVG Version: 6.00 Build 0)  -->
<svg version="1.1" id="_x3C_Layer_x3E_" xmlns="http://www.w3.org/2000/svg" xmlns:xlink="http://www.w3.org/1999/xlink" x="0px"
	 y="0px" viewBox="0 0 167.179 73.47" enable-background="new 0 0 167.179 73.47" xml:space="preserve">
<g>
	<path fill="#333333" d="M167.179,17.048h-52.731C103.579-0.076,80.886-5.146,63.763,5.724c-4.562,2.896-8.428,6.762-11.324,11.324
		H0l5.336,5.35h44.289c-0.823,1.946-1.476,3.96-1.95,6.018H11.34l5.378,5.336h30.134c-0.084,0.989-0.125,1.978-0.125,2.981
		c0,1.003,0,2.034,0.139,3.037H22.681l5.336,5.35h19.671c0.479,2.059,1.136,4.073,1.964,6.018H34.035l5.336,5.35h13.124
		c10.906,17.1,33.609,22.122,50.709,11.217c4.511-2.877,8.339-6.705,11.217-11.217h13.402l5.336-5.35h-15.91
		c0.828-1.945,1.485-3.959,1.964-6.018h19.95l5.336-5.35h-24.45c0.084-1.003,0.139-2.02,0.139-3.037c0-1.017,0-1.992-0.125-2.981
		h30.399l5.336-5.35h-36.57c-0.475-2.059-1.127-4.073-1.95-6.018h44.581L167.179,17.048z M83.59,68.163
		c-17.32,0-31.36-14.04-31.36-31.36s14.04-31.36,31.36-31.36s31.36,14.04,31.36,31.36S100.909,68.163,83.59,68.163
		C83.59,68.163,83.59,68.163,83.59,68.163z"/>
	<polygon fill="#333333" points="67.457,41.358 63.208,28.471 58.373,28.471 58.373,45.022 61.898,45.022 61.898,32.748 
		65.618,45.022 69.268,45.022 73.002,32.748 73.002,45.022 76.526,45.022 76.526,28.471 71.678,28.471 	"/>
	<polygon fill="#333333" points="98.162,40.592 91.531,28.471 87.63,28.471 87.63,45.022 90.904,45.022 90.904,33.431 97.535,45.12 
		101.478,45.022 101.478,28.471 98.204,28.471 	"/>
	<rect x="80.371" y="28.458" fill="#333333" width="3.358" height="16.551"/>
	<rect x="105.309" y="28.458" fill="#333333" width="3.358" height="16.551"/>
</g>
</svg>
