<?xml version="1.0" encoding="utf-8"?>
<!-- Generator: Adobe Illustrator 22.0.1, SVG Export Plug-In . SVG Version: 6.00 Build 0)  -->
<svg version="1.1" id="_x3C_Layer_x3E_" xmlns="http://www.w3.org/2000/svg" xmlns:xlink="http://www.w3.org/1999/xlink" x="0px"
	 y="0px" viewBox="0 0 141.131 38.575" enable-background="new 0 0 141.131 38.575" xml:space="preserve">
<g>
	<polygon fill-rule="evenodd" clip-rule="evenodd" fill="#333333" points="54.046,0 27.022,38.575 33.778,38.575 60.475,0 	"/>
	<polygon fill-rule="evenodd" clip-rule="evenodd" fill="#333333" points="68.788,23.856 68.788,2.784 64.255,2.784 40.333,36.275 
		47.709,36.275 62.215,15.892 62.215,36.275 67.608,36.275 82.024,15.767 82.024,36.275 88.642,36.275 88.642,2.784 83.857,2.784 	
		"/>
	<path fill-rule="evenodd" clip-rule="evenodd" fill="#333333" d="M97.172,21.214l0.011-6.219l4.417,6.219H97.172L97.172,21.214z
		 M131.295,2.784h-7.509l-8.191,11.489l-7.955-11.442h-7.509l11.661,16.775l-2.007,2.815L96.08,2.784h-5.288v33.491h6.367
		l0.012-9.157h7.866l0.704,0.975l-5.833,8.182h7.51l2.102-2.949l2.154,2.982l7.78-0.033l-5.954-8.532l1.999-2.803l7.881,11.336
		h7.509l-11.588-16.669L131.295,2.784z"/>
	<path fill-rule="evenodd" clip-rule="evenodd" fill="#333333" d="M136.711,6.814h-0.823V5.139h1.04
		c0.532,0,1.113,0.108,1.113,0.809C138.041,6.777,137.402,6.814,136.711,6.814L136.711,6.814z M138.829,5.981
		c0-1.012-0.569-1.506-1.776-1.506h-1.956v5.269h0.789V7.478h0.831l1.38,2.266h0.845l-1.445-2.327
		C138.249,7.332,138.829,6.935,138.829,5.981z"/>
	<path fill-rule="evenodd" clip-rule="evenodd" fill="#333333" d="M136.789,10.96c-2.026,0-3.576-1.662-3.576-3.868
		c0-2.157,1.55-3.821,3.576-3.821c2.003,0,3.556,1.665,3.556,3.821C140.344,9.298,138.792,10.96,136.789,10.96L136.789,10.96z
		 M136.789,2.608c-2.374,0-4.365,1.94-4.365,4.484c0,2.591,1.991,4.531,4.365,4.531c2.366,0,4.342-1.94,4.342-4.531
		C141.131,4.548,139.155,2.608,136.789,2.608z"/>
	<path fill-rule="evenodd" clip-rule="evenodd" fill="#333333" d="M11.004,18.476l-4.685,0.049V8.767h4.685
		c2.68,0,4.855,2.173,4.855,4.853C15.86,16.302,13.684,18.476,11.004,18.476L11.004,18.476z M31.6,30.076h-1.637v-8.174h7.301
		l2.507-3.377v-2.397h-9.808V8.827h9.372V2.834H23.535v32.688l-9.045-10.784c4.528-1.401,7.828-5.806,7.828-10.79
		c0-6.129-4.969-11.096-11.095-11.096L0,2.834v33.451h6.319V25.388l9.153,10.896H27.46L31.6,30.076z"/>
	<polygon fill-rule="evenodd" clip-rule="evenodd" fill="#333333" points="39.63,36.271 39.63,32.457 36.688,36.271 	"/>
</g>
</svg>
