<?xml version="1.0" encoding="utf-8"?>
<!-- Generator: Adobe Illustrator 22.0.1, SVG Export Plug-In . SVG Version: 6.00 Build 0)  -->
<svg version="1.1" id="Layer_1" xmlns="http://www.w3.org/2000/svg" xmlns:xlink="http://www.w3.org/1999/xlink" x="0px" y="0px"
	 viewBox="0 0 140 38.875" enable-background="new 0 0 140 38.875" xml:space="preserve">
<title>img-walmart</title>
<g id="Layer_1-2">
	<path fill="#333333" d="M43.3,22.175v-15.2h-3.9v19.2h3.9V22.175z M139.3,25.375c-0.4,0-0.7,0.3-0.7,0.7c0,0.4,0.3,0.7,0.7,0.7
		s0.7-0.3,0.7-0.7l0,0C140,25.675,139.7,25.375,139.3,25.375L139.3,25.375L139.3,25.375L139.3,25.375z M139.3,25.475
		c0.3,0,0.6,0.2,0.6,0.5s-0.2,0.6-0.5,0.6s-0.6-0.2-0.6-0.5l0,0C138.8,25.775,139,25.575,139.3,25.475L139.3,25.475L139.3,25.475z
		 M139.2,26.075L139.2,26.075c0.1,0,0.1,0,0.1,0.1l0,0c0,0.1,0,0.1,0,0.2h0.2c0-0.1,0-0.1,0-0.2s-0.1-0.2-0.1-0.2l0,0
		c0.1,0,0.1-0.1,0.1-0.2v-0.1c-0.1,0-0.2,0-0.2,0H139v0.7h0.2V26.075L139.2,26.075L139.2,26.075z M139.2,25.775L139.2,25.775
		c0.2,0,0.2,0,0.2,0.1s0,0.1-0.2,0.1l0,0V25.775L139.2,25.775L139.2,25.775z M46.1,11.775v14.4H50v-8.5c0-0.4,0.1-0.8,0.2-1.2
		c0.3-1.1,1.3-1.8,2.4-1.9c1.6,0,2.3,1.3,2.3,3.3v8.2h4v-8.6c0-0.4,0.1-0.8,0.2-1.2c0.3-1,1.3-1.7,2.3-1.8c1.6,0,2.3,1.3,2.3,3.6
		v7.9h4v-8.6c0-4.5-2.3-6.2-4.9-6.2c-1,0-2,0.3-2.9,0.8c-0.7,0.5-1.3,1-1.8,1.8l0,0c-0.7-1.6-2.3-2.7-4.1-2.6
		c-1.7-0.1-3.4,0.8-4.2,2.3l0,0v-1.9h-3.7V11.775z M84.7,11.775v14.4h4v-7.4c0-0.4,0-0.7,0.1-1.1c0.3-1.5,1.7-2.6,3.2-2.6
		c0.4,0,0.8,0,1.2,0.1v-3.8c-0.3-0.1-0.6-0.1-0.9-0.1c-1.9,0.1-3.5,1.3-4,3.1l0,0v-2.7h-3.6V11.775z M94.9,6.975v14.1
		c-0.2,1.5,0.3,3,1.2,4.2c0.9,0.8,2,1.2,3.2,1.2c1,0,1.9-0.1,2.8-0.4v-3c-0.5,0.1-1,0.2-1.6,0.2c-1.3,0-1.8-0.9-1.8-2.6v-5.4h3.4
		v-3.7h-3.4v-4.5L94.9,6.975z M36.8,22.675c0,1.2,0.1,2.3,0.2,3.5c-3.3,0.9-3.9-1.6-3.9-1.6H33c-1.1,1.2-2.6,1.9-4.2,1.8
		c-2.4,0.2-4.5-1.7-4.7-4.1l0,0v-0.2c0-3.7,3.3-5.5,8.6-5.5v-0.1c0-0.9-0.4-2.2-2.8-2.2c-1.4,0-2.8,0.4-4,1.1l-0.8-2.5
		c1.7-0.9,3.5-1.4,5.4-1.3c4.8,0,6.2,2.9,6.2,6.2L36.8,22.675L36.8,22.675L36.8,22.675z M32.8,19.175c-2.5,0-4.7,0.5-4.7,2.5
		c-0.1,1,0.7,1.8,1.6,1.9H30c1.2,0,2.2-0.8,2.5-1.9c0.1-0.3,0.1-0.5,0.1-0.8L32.8,19.175L32.8,19.175L32.8,19.175z M0,6.975
		c0,0,3.5,14,4,16.3c0.7,2.6,1.8,3.6,5.1,3l2.1-8.7c0.5-1.9,0.9-3.9,1.2-5.9l0,0c0.2,2,0.6,3.9,1,5.8c0,0,0.9,3.9,1.3,6
		c0.4,2.1,1.7,3.4,5,2.7l5.3-19.2h-4.1l-1.7,8.3c-0.5,2.4-0.9,4.3-1.2,6.5l0,0c-0.3-2.2-0.7-4-1.2-6.4l-1.9-8.4h-4.3l-1.9,8.2
		c-0.5,2.5-1.1,4.5-1.4,6.7l0,0c-0.3-2-0.8-4.6-1.3-7c0,0-1.2-5.9-1.6-7.9L0,6.975L0,6.975z M82,22.675c0,1.2,0.1,2.3,0.2,3.5
		c-3.3,0.9-3.9-1.6-3.9-1.6l0,0c-1.1,1.2-2.7,1.9-4.3,1.8c-2.4,0.2-4.5-1.7-4.7-4.1l0,0v-0.2c0-3.7,3.3-5.5,8.6-5.5v-0.2
		c0-0.9-0.4-2.2-2.8-2.2c-1.4,0-2.8,0.4-4,1.1l-0.8-2.6c1.7-0.9,3.5-1.3,5.4-1.3c4.8,0,6.2,2.9,6.2,6.2L82,22.675L82,22.675
		L82,22.675z M78.1,19.175c-2.5,0-4.7,0.5-4.7,2.5c-0.1,1,0.7,1.8,1.6,1.9h0.3c1.2,0,2.2-0.8,2.6-1.9c0.1-0.2,0.1-0.5,0.2-0.8
		V19.175L78.1,19.175L78.1,19.175z M118.7,19.175c-0.3-0.6-0.9-0.9-1.6-0.8l-8,3.8c-0.8,0.7-0.9,1.9-0.3,2.8c0.4,1,1.5,1.5,2.5,1.2
		l7.2-5c0.4-0.5,0.4-1.2,0-1.8l0,0L118.7,19.175z M128.1,19.175c-0.4,0.5-0.4,1.2,0,1.8l7.2,5.1c1,0.3,2.1-0.2,2.5-1.2
		c0.6-0.8,0.6-2-0.2-2.7l-7.9-3.7c-0.6-0.1-1.3,0.2-1.6,0.8l0,0V19.175z M123.4,21.875c-0.7-0.1-1.3,0.3-1.6,0.9l-0.8,8.7
		c0.5,1.3,1.9,1.9,3.1,1.4c0.7-0.2,1.2-0.8,1.4-1.4l-0.8-8.7c-0.2-0.6-0.9-1-1.6-0.9H123.4L123.4,21.875z M128.1,13.775
		c0.3,0.6,0.9,0.9,1.6,0.8l8-3.6c0.8-0.7,0.9-1.9,0.2-2.7c-0.4-1-1.5-1.5-2.5-1.2l-7.2,5c-0.4,0.5-0.4,1.2,0,1.8l0,0L128.1,13.775z
		 M118.7,13.775c0.4-0.5,0.4-1.2,0-1.8l-7.2-4.9c-1-0.4-2.1,0.2-2.6,1.2c-0.7,0.8-0.6,2,0.2,2.7l7.9,3.7c0.6,0.1,1.3-0.2,1.6-0.8
		l0,0L118.7,13.775z M123.3,11.075c0.7,0.1,1.3-0.3,1.6-0.9l0.8-8.6c-0.5-1.3-1.9-1.9-3.1-1.4c-0.7,0.2-1.2,0.8-1.4,1.4l0.8,8.7
		c0.2,0.6,0.9,1,1.6,0.9l0,0L123.3,11.075z M103.5,36.875c0.5,0,0.9-0.4,0.9-0.8c0-0.5-0.4-0.9-0.8-0.9c-0.5,0-0.9,0.4-0.9,0.8l0,0
		l0,0C102.6,36.475,103,36.875,103.5,36.875C103.4,36.875,103.4,36.875,103.5,36.875L103.5,36.875L103.5,36.875z M99.3,36.775h1.4
		v-2.2c0-0.1,0-0.2,0-0.3c0.1-0.4,0.5-0.8,1-0.7c0.1,0,0.3,0,0.4,0v-1.3h-0.3c-0.5,0-1,0.4-1.2,0.9l0,0v-0.8h-1.4v4.6L99.3,36.775z
		 M98.2,34.975c0-0.2,0-0.4,0-0.5c0.1-1.1-0.6-2.1-1.7-2.2h-0.3c-1.2,0-2.3,0.9-2.3,2.2l0,0l0,0l0,0l0,0v0.2c-0.1,1.2,0.8,2.2,2,2.3
		h0.4c0.6,0,1.2-0.1,1.8-0.3l-0.2-0.9c-0.4,0.1-0.8,0.2-1.2,0.2c-0.6,0.1-1.1-0.3-1.3-0.9L98.2,34.975L98.2,34.975z M95.3,34.075
		c0-0.5,0.4-0.9,0.9-0.9c0.4,0,0.8,0.4,0.8,0.8v0.1H95.3z M90.8,31.475v0.8h-0.6v1h0.6v1.8c-0.1,0.5,0.1,1,0.4,1.3s0.7,0.4,1.1,0.4
		c0.3,0,0.6,0,0.9-0.1v-1c-0.1,0-0.3,0-0.4,0c-0.4,0-0.6-0.2-0.6-0.8v-1.6h1v-1h-1v-1.2L90.8,31.475z M87.2,31.475v0.8h-0.6v1h0.5
		v1.8c-0.1,0.5,0.1,1,0.4,1.4c0.3,0.3,0.7,0.4,1.1,0.4c0.3,0,0.6,0,0.9-0.1v-1c-0.1,0-0.3,0-0.4,0c-0.4,0-0.6-0.2-0.6-0.8v-1.6h1v-1
		h-0.9v-1.3L87.2,31.475z M85.9,34.975c0-0.2,0-0.4,0-0.5c0.1-1.1-0.6-2.1-1.7-2.2H84c-1.2,0-2.3,0.9-2.3,2.2l0,0l0,0l0,0l0,0v0.2
		c-0.1,1.2,0.8,2.2,2,2.3H84c0.5,0,1.1-0.1,1.6-0.3v-0.9c-0.4,0.1-0.8,0.2-1.2,0.2c-0.5,0.1-1.1-0.2-1.3-0.7H86L85.9,34.975z
		 M83,34.075c0-0.5,0.4-0.9,0.9-0.9c0.4,0,0.8,0.4,0.8,0.8v0.1H83z M76.4,35.475v1.3h1.2v-0.5l0,0c0.3,0.5,0.8,0.8,1.4,0.7
		c1.2,0,2.1-1,2.1-2.2l0,0l0,0v-0.2c0.2-1.1-0.6-2.1-1.7-2.3h-0.2c-0.5,0-1.1,0.2-1.4,0.6l0,0v-2.6h-1.4V35.475L76.4,35.475
		L76.4,35.475z M77.8,34.175c0-0.1,0-0.2,0-0.3c0.1-0.4,0.4-0.7,0.8-0.7c0.7,0.2,1.1,0.9,0.9,1.6c-0.1,0.4-0.4,0.7-0.8,0.9h-0.2
		c-0.4,0-0.7-0.2-0.8-0.6c0-0.1,0-0.2,0-0.2L77.8,34.175L77.8,34.175z M73.6,34.975c0-0.2,0-0.4,0-0.5c0.1-1.1-0.7-2.1-1.8-2.2h-0.2
		c-1.2,0-2.3,0.9-2.3,2.2l0,0l0,0l0,0l0,0v0.2c-0.1,1.2,0.8,2.2,2,2.3h0.4c0.5,0,1.1-0.1,1.6-0.3l-0.1-0.9c-0.4,0.1-0.8,0.2-1.2,0.2
		c-0.6,0.1-1.1-0.3-1.3-0.8h3L73.6,34.975z M70.7,34.075c0-0.5,0.4-0.8,0.9-0.8c0.4,0,0.8,0.4,0.8,0.8v0.1L70.7,34.075L70.7,34.075z
		 M64.4,32.275l1.6,4.5h1.4l1.7-4.5h-1.6l-0.7,2.1c-0.1,0.4-0.2,0.7-0.2,1.1l0,0c-0.1-0.3-0.2-0.7-0.3-1.1l-0.6-2.1H64.4
		L64.4,32.275z M63.6,31.175c0-0.4-0.3-0.7-0.7-0.7l0,0c-0.4,0-0.7,0.3-0.7,0.7c0,0.4,0.3,0.7,0.7,0.7l0,0l0,0
		C63.2,31.875,63.6,31.475,63.6,31.175L63.6,31.175L63.6,31.175z M63.6,36.875v-4.5h-1.5v4.5H63.6z M57.3,30.675v6.2h3.9v-1.2h-2.5
		v-5H57.3L57.3,30.675z M53.4,36.875c0.5,0,0.8-0.4,0.8-0.9s-0.4-0.8-0.9-0.8c-0.4,0-0.8,0.3-0.8,0.8l0,0
		C52.5,36.375,52.8,36.775,53.4,36.875C53.3,36.775,53.3,36.775,53.4,36.875L53.4,36.875L53.4,36.875z M47.3,32.175l1.7,4.1
		c0,0.1,0,0.2,0,0.2c0,0.1,0,0.1,0,0.2c-0.1,0.2-0.3,0.4-0.6,0.6c-0.2,0.1-0.4,0.2-0.6,0.2l0.2,1.4c0.5-0.1,1-0.3,1.4-0.6
		c0.8-0.8,1.3-1.9,1.6-3l1.1-3h-1.6l-0.6,2.2c0,0.3-0.1,0.6-0.2,0.8l0,0c0-0.3-0.1-0.6-0.2-0.8l-0.7-2.2h-1.6L47.3,32.175z
		 M46.9,35.075c0-0.2,0-0.4,0-0.5c0.1-1.1-0.6-2.1-1.7-2.2h-0.3c-1.2,0-2.3,0.9-2.3,2.2l0,0l0,0l0,0l0,0v0.2c-0.1,1.2,0.8,2.2,2,2.3
		H45c0.6,0,1.2-0.1,1.8-0.3l-0.2-0.9c-0.4,0.1-0.8,0.2-1.2,0.2c-0.6,0.1-1.1-0.3-1.3-0.8h2.8V35.075z M43.9,34.175
		c0-0.5,0.4-0.9,0.9-0.9c0.4,0,0.8,0.4,0.8,0.8v0.1H43.9z M37.3,36.875h1.4v-2.7c0-0.1,0-0.2,0-0.3c0.1-0.3,0.4-0.5,0.7-0.5
		c0.4,0,0.8,0.4,0.7,0.8c0,0.1,0,0.1,0,0.2v2.5h1.6v-2.6c0.2-0.8-0.3-1.7-1.2-1.9l0,0h-0.4c-0.6,0-1.1,0.3-1.4,0.7l0,0v-0.7h-1.4
		C37.3,32.375,37.3,36.875,37.3,36.875z M36.5,34.575c0.1-1.2-0.8-2.3-2-2.3h-0.2c-1.3-0.2-2.4,0.8-2.5,2c0,0.1,0,0.2,0,0.3
		c-0.1,1.2,0.9,2.3,2.1,2.3h0.3c1.2,0,2.3-1,2.3-2.2L36.5,34.575C36.5,34.575,36.5,34.575,36.5,34.575z M33.2,34.575
		c-0.1-0.6,0.3-1.2,0.9-1.3l0,0c0.6,0.1,1,0.7,0.9,1.4l0,0c0.1,0.6-0.3,1.2-0.8,1.3l0,0C33.6,35.775,33.2,35.275,33.2,34.575
		L33.2,34.575L33.2,34.575z M24.1,36.875h1.4v-2.7c0-0.1,0-0.2,0-0.4c0.1-0.3,0.4-0.5,0.7-0.5c0.4,0,0.7,0.4,0.7,0.8v2.7h1.4v-2.6
		c0-0.1,0-0.2,0-0.4c0.1-0.3,0.4-0.5,0.7-0.5c0.5,0,0.7,0.4,0.7,1v2.5h1.4v-2.6c0.2-0.8-0.3-1.7-1.1-1.9c-0.1,0-0.3-0.1-0.4-0.1
		c-0.3,0-0.6,0.1-0.9,0.2c-0.2,0.1-0.4,0.3-0.6,0.5l0,0c-0.2-0.5-0.7-0.8-1.2-0.8s-1.1,0.2-1.4,0.7l0,0v-0.6H24L24.1,36.875
		L24.1,36.875z M21.3,35.075c0-0.2,0-0.4,0-0.5c0.1-1.1-0.7-2.1-1.8-2.2l0,0h-0.3c-1.2,0-2.2,1.1-2.2,2.3l0,0l0,0
		c-0.1,1.2,0.8,2.2,2,2.3h0.4c0.6,0,1.1-0.1,1.6-0.3l-0.2-0.9c-0.4,0.1-0.8,0.2-1.2,0.2c-0.6,0.1-1.1-0.3-1.3-0.9H21.3L21.3,35.075z
		 M18.4,34.175c0-0.5,0.4-0.9,0.9-0.9c0.4,0,0.8,0.4,0.8,0.8v0.1H18.4z M12.1,32.375l1.6,4.5h1.5l1.7-4.5h-1.6l-0.5,2.1
		c-0.1,0.4-0.2,0.7-0.2,1.1l0,0c-0.1-0.4-0.2-0.7-0.3-1.1l-0.6-2.1H12.1z M11.5,34.275c0.1-1-0.6-1.8-1.5-2c-0.1,0-0.3,0-0.4,0
		c-0.6,0-1.2,0.1-1.8,0.4l0.3,0.9c0.4-0.2,0.8-0.3,1.3-0.3c0.7,0,0.8,0.3,0.8,0.6l0,0c-1.6,0-2.7,0.6-2.7,1.7c0,0.8,0.6,1.4,1.4,1.4
		l0,0H9c0.5,0,1-0.2,1.3-0.6l0,0l0.1,0.5h1.3c0-0.4,0-0.7,0-1.1L11.5,34.275L11.5,34.275z M10.2,35.275c0,0.1,0,0.2,0,0.2
		c-0.1,0.3-0.4,0.5-0.7,0.5c-0.3,0-0.5-0.2-0.6-0.4v-0.1c0-0.5,0.6-0.7,1.3-0.7L10.2,35.275L10.2,35.275L10.2,35.275z M2.8,35.475
		c0.5,0.2,1,0.4,1.6,0.4c0.7,0,1-0.3,1-0.7c-0.1-0.5-0.5-0.9-1-0.9c-1.1-0.1-1.8-1.1-1.7-2.1c0.1-1.1,1.1-1.8,2.1-1.7l0,0h0.3
		c0.5,0,1.1,0.1,1.6,0.3l-0.3,1.2c-0.4-0.2-0.9-0.3-1.3-0.3c-0.4-0.1-0.8,0.2-0.9,0.6l0,0c0,0.4,0.4,0.6,1.2,0.9
		c0.9,0.2,1.5,1,1.5,1.9c-0.1,1.2-1.1,2-2.2,2H4.4c-0.6,0-1.2-0.1-1.8-0.4L2.8,35.475z"/>
</g>
</svg>
