<?xml version="1.0" encoding="utf-8"?>
<!-- Generator: Adobe Illustrator 22.0.1, SVG Export Plug-In . SVG Version: 6.00 Build 0)  -->
<svg version="1.1" id="_x3C_Layer_x3E_" xmlns="http://www.w3.org/2000/svg" xmlns:xlink="http://www.w3.org/1999/xlink" x="0px"
	 y="0px" viewBox="0 0 79.041 96.157" enable-background="new 0 0 79.041 96.157" xml:space="preserve">
<g>
	<path fill-rule="evenodd" clip-rule="evenodd" fill="#333333" d="M67.079,32.155c0.925-5.184-2.531-9.258-6.543-12.22
		c-5.616-4.135-11.973-6.604-18.515-8.517l0,0v68.384l0,0c2.901-2.53,5.802-5.37,8.579-8.27
		c5.925-6.542,11.418-13.208,13.701-21.231c0.926-3.641,0.432-7.777-2.654-10.245C64.302,37.957,66.709,35.365,67.079,32.155
		L67.079,32.155L67.079,32.155L67.079,32.155z M55.785,55.794c-2.037,3.703-4.814,7.098-8.086,10.245l0,0l-0.061-19.565l0,0
		c2.222-1.605,4.505-3.024,7.283-3.271c1.111,0,2.098,0.37,2.839,1.234C60.228,48.325,57.328,52.399,55.785,55.794L55.785,55.794
		L55.785,55.794L55.785,55.794z M61.401,30.612c-0.556,3.086-3.95,4.876-6.357,6.172c-2.407,1.234-4.876,2.222-7.406,3.147l0,0
		V19.935l0,0c3.889,1.173,7.406,3.148,10.739,5.493C59.92,26.724,62.018,28.329,61.401,30.612L61.401,30.612L61.401,30.612
		L61.401,30.612z"/>
	<path fill-rule="evenodd" clip-rule="evenodd" fill="#333333" d="M36.961,79.308V11.171l-5.493,2.839v36.537l0,0
		c-0.247,1.049,0.494,2.654-0.679,3.147c-0.309,0.062-0.555-0.062-0.679-0.308c-2.345-8.826-3.333-18.145-3.765-27.712l0,0
		l-0.185-8.332l-5.246,3.888v2.222l0,0c0.308,8.826,0.926,17.466,2.592,25.737l0,0l-2.098,2.345l0,0
		c-0.802-1.111-1.296-2.284-1.852-3.457c-2.654-7.036-3.641-14.751-4.012-22.712l0,0l-4.567,3.395l0,0
		c0.432,12.097,2.716,23.515,10.06,32.587c1.42-1.605,2.839-3.271,4.259-4.814c0.741,3.271,1.79,6.419,3.024,9.505
		C30.357,70.791,32.64,75.605,36.961,79.308L36.961,79.308z"/>
	<path fill-rule="evenodd" clip-rule="evenodd" fill="#333333" d="M78.991,20.12l-8.209-2.037l-1.481-5.555l-8.394-1.975
		l-1.728-6.048L39.368,0L19.926,4.505l-1.728,6.048l-8.394,1.975l0,0c-0.555,1.913-1.049,3.765-1.543,5.616l0,0L0.053,20.12l0,0
		C-0.564,37.587,4.25,52.954,12.952,66.656c6.357,9.813,15.924,20.182,26.416,25.305c7.097-3.395,13.393-9.073,19.071-15.43
		C72.202,60.608,79.731,41.969,78.991,20.12L78.991,20.12L78.991,20.12L78.991,20.12z M54.797,72.951
		c-4.505,5.061-9.567,10.06-15.245,12.961c-5.431-2.716-10.183-7.406-14.504-12.159C13.816,60.608,6.348,45.919,5.114,28.699
		c-0.123-1.42-0.185-2.777-0.123-4.259l0,0l6.974-1.605l1.605-5.74l8.579-2.037l0.062-0.185l1.543-5.925l15.553-3.641l16.047,3.641
		l1.543,6.048l8.703,2.098l1.481,5.74l7.036,1.605l0,0C73.93,43.203,66.462,58.941,54.797,72.951L54.797,72.951L54.797,72.951
		L54.797,72.951z"/>
	<path fill-rule="evenodd" clip-rule="evenodd" fill="#333333" d="M57.389,91.282c0.926-0.062,1.543-0.555,1.543-1.605
		c0-1.173-0.74-1.728-2.16-1.728l0,0H54.55v5.925h0.987v-2.53h0.926l1.543,2.53h1.049L57.389,91.282L57.389,91.282L57.389,91.282z
		 M55.538,90.541v-1.79h1.173l0,0c0.555,0,1.234,0.123,1.234,0.864c0,0.802-0.617,0.926-1.358,0.926l0,0H55.538L55.538,90.541
		L55.538,90.541z"/>
	<path fill-rule="evenodd" clip-rule="evenodd" fill="#333333" d="M56.648,86.036c-2.777,0-5.061,2.284-5.061,5.061
		c0,2.777,2.284,5.061,5.061,5.061c2.778,0,5.061-2.284,5.061-5.061C61.71,88.319,59.426,86.036,56.648,86.036L56.648,86.036
		L56.648,86.036L56.648,86.036z M56.648,95.664c-2.53,0-4.567-2.037-4.567-4.567c0-2.531,2.037-4.567,4.567-4.567
		c2.531,0,4.567,2.037,4.567,4.567C61.216,93.627,59.179,95.664,56.648,95.664L56.648,95.664L56.648,95.664L56.648,95.664z"/>
</g>
</svg>
